<?xml version="1.0" encoding="utf-8"?>
<!-- Generator: Adobe Illustrator 21.0.0, SVG Export Plug-In . SVG Version: 6.00 Build 0)  -->
<svg version="1.1" id="Layer_1" xmlns="http://www.w3.org/2000/svg" xmlns:xlink="http://www.w3.org/1999/xlink" x="0px" y="0px"
	 viewBox="0 0 57 75" style="enable-background:new 0 0 57 75;" xml:space="preserve">
<style type="text/css">
	.st0{fill:#FF0000;}
</style>
<title>Asset 1</title>
<g id="Layer_2">
	<g id="Layer_1-2">
		<path class="st0" d="M41.6,9.5c0.1,0.6,0.7,1,1.2,1h10.6c1.9,0,3.5,1.5,3.5,3.5c0,1.6-1,2.9-2.5,3.4l-1.9,50.2
			C52.5,71.7,49.1,75,45,75H12c-4.1,0-7.5-3.3-7.6-7.4L2.5,17.4c-1.9-0.5-2.9-2.5-2.4-4.3c0.4-1.5,1.8-2.5,3.4-2.5h10.6
			c0.6,0,1.1-0.4,1.2-1l0.8-3c1-3.8,4.4-6.4,8.4-6.5h8c3.9,0.1,7.3,2.7,8.4,6.5L41.6,9.5z M26,26.5v34c0,1.4,1.1,2.5,2.5,2.5
			s2.5-1.1,2.5-2.5v-34c0-1.4-1.1-2.5-2.5-2.5S26,25.1,26,26.5z M14.5,26.6l1,34c0,1.4,1.2,2.5,2.6,2.4s2.5-1.2,2.4-2.6l-1-34
			c0-1.4-1.2-2.5-2.6-2.4C15.5,24,14.4,25.2,14.5,26.6z M37.5,26.4l-1,34c0,1.4,1,2.5,2.4,2.6s2.5-1,2.6-2.4l1-34
			c0-1.4-1-2.5-2.4-2.6C38.7,24,37.5,25,37.5,26.4L37.5,26.4z M22.8,10.5h11.3c0.2,0,0.4-0.1,0.4-0.3c0,0,0-0.1,0-0.1l-0.5-1.8
			c-0.3-0.7-0.9-1.1-1.6-1.2h-8c-0.7,0.1-1.3,0.6-1.6,1.2L22.5,10c-0.1,0.2,0,0.4,0.2,0.5C22.7,10.5,22.8,10.5,22.8,10.5z"/>
	</g>
</g>
</svg>
