<?xml version="1.0"?>
<svg xmlns="http://www.w3.org/2000/svg" height="512px" viewBox="0 -2 496 496" width="512px"><path d="m496 276.496094c0-30.878906-25.128906-56-56-56-6.800781 0-13.496094 1.367187-19.832031 3.792968-8.136719-20.914062-28.425781-35.792968-52.167969-35.792968-15.894531 0-30.230469 6.6875-40.433594 17.359375-2.980468-25.113281-22.644531-45.128907-47.566406-48.71875v-32.640625h16v-16h-16v-40h25.078125l-57.078125-68.496094-57.078125 68.496094h25.078125v40h-16v16h16v32.640625c-24.929688 3.589843-44.585938 23.605469-47.566406 48.71875-10.203125-10.671875-24.539063-17.359375-40.433594-17.359375-23.742188 0-44.03125 14.878906-52.167969 35.792968-6.335937-2.425781-13.03125-3.792968-19.832031-3.792968-30.871094 0-56 25.121094-56 56 0 28.152344 20.910156 51.457031 48 55.359375v50.511719l-21.792969 38.128906h29.792969v56h-24v16h432v-16h-24v-56h29.792969l-21.792969-38.128906v-50.511719c27.089844-3.902344 48-27.207031 48-55.359375zm-56-40c22.054688 0 40 17.945312 40 40 0 19.3125-13.769531 35.472656-32 39.191406v-18.910156l20.441406-13.625-8.875-13.3125-11.566406 7.710937v-17.054687h-16v55.121094c-14-2.863282-25.457031-13.082032-29.902344-26.800782 13.285156-10.25 21.902344-26.28125 21.902344-44.320312 0-1.511719-.113281-3-.222656-4.488282 5.109375-2.296874 10.628906-3.511718 16.222656-3.511718zm-72-32c22.054688 0 40 17.945312 40 40 0 19.3125-13.769531 35.472656-32 39.191406v-55.191406h-16v17.054687l-11.558594-7.710937-8.875 13.3125 20.433594 13.625v18.910156c-18.230469-3.71875-32-19.871094-32-39.191406 0-22.054688 17.945312-40 40-40zm18.726562 160 17.144532 40h-14.589844l-17.144531-40zm-122.726562 112h-32v-32c0-8.824219 7.175781-16 16-16s16 7.175781 16 16zm-16-64c-17.648438 0-32 14.351562-32 32v32h-32v-80h128v80h-32v-32c0-17.648438-14.351562-32-32-32zm-124.128906-48-17.144532 40h-14.589843l17.144531-40zm12.128906-64.640625c12.449219-1.792969 23.59375-7.648438 32-16.246094v55.582031l-3.097656 9.304688h-28.902344zm48 16.640625h128v16h-128zm-12.894531 64 10.664062-32h16.789063l-5.335938 32zm43.671875-32h66.445312l5.335938 32h-77.117188zm88 32-5.335938-32h16.789063l10.664062 32zm9.222656-80h-128v-16h128zm-170.726562 64h18.292968l-10.664062 32h19.097656v8h-43.871094zm186.726562 32h19.105469l-10.664063-32h18.292969l17.144531 40h-43.878906zm3.097656-48-3.097656-9.296875v-55.582031c8.40625 8.589843 19.550781 14.445312 32 16.246093v48.632813zm-83.097656-323.503906 22.921875 27.503906h-45.84375zm-16 43.503906h32v40h-32zm32 56v32h-32v-32zm-80 88c0-22.054688 17.945312-40 40-40h48c22.054688 0 40 17.945312 40 40v56h-128zm-56-8c22.054688 0 40 17.945312 40 40 0 19.3125-13.769531 35.472656-32 39.191406v-18.910156l20.441406-13.625-8.875-13.3125-11.566406 7.710937v-17.054687h-16v55.191406c-18.230469-3.71875-32-19.871094-32-39.191406 0-22.054688 17.945312-40 40-40zm-112 72c0-22.054688 17.945312-40 40-40 5.59375 0 11.113281 1.214844 16.222656 3.511718-.109375 1.488282-.222656 2.976563-.222656 4.488282 0 18.039062 8.617188 34.070312 21.902344 44.320312-4.445313 13.71875-15.902344 23.925782-29.902344 26.800782v-55.121094h-16v17.054687l-11.558594-7.710937-8.875 13.3125 20.433594 13.625v18.910156c-18.230469-3.71875-32-19.878906-32-39.191406zm48 55.289062c19.976562-2.890625 36.886719-16.289062 44.152344-34.992187 3.777344 1.4375 7.734375 2.472656 11.847656 3.0625v48.640625h-52.640625l-3.359375 5.878906zm12.640625 32.710938h15.230469l-17.144532 40h-20.933593zm-4.640625 56h96v56h-96zm352 56h-96v-56h96zm-2.726562-72-17.144532-40h15.230469l22.847656 40zm7.367187-56h-52.640625v-48.640625c4.113281-.589844 8.070312-1.625 11.847656-3.0625 7.265625 18.703125 24.175782 32.101562 44.152344 34.992187v22.582032zm0 0" fill="#FFFFFF"/><path d="m270.246094 252.496094 10.875-43.527344-33.121094-22.089844-33.128906 22.089844 10.882812 43.527344zm-22.246094-46.382813 14.871094 9.910157-5.117188 20.472656h-19.507812l-5.125-20.472656zm0 0" fill="#FFFFFF"/><path d="m480 476.496094h16v16h-16zm0 0" fill="#FFFFFF"/><path d="m0 476.496094h16v16h-16zm0 0" fill="#FFFFFF"/></svg>
