<?xml version="1.0" encoding="iso-8859-1"?>
<!-- Generator: Adobe Illustrator 19.0.0, SVG Export Plug-In . SVG Version: 6.00 Build 0)  -->
<svg xmlns="http://www.w3.org/2000/svg" xmlns:xlink="http://www.w3.org/1999/xlink" version="1.1" id="Capa_1" x="0px" y="0px" viewBox="0 0 429.986 429.986" style="enable-background:new 0 0 429.986 429.986;" xml:space="preserve" width="512px" height="512px">
<path id="XMLID_1327_" d="M348.615,81.37c3.515,3.515,3.515,9.213,0,12.729l-24.738,24.739c-1.758,1.757-4.061,2.636-6.364,2.636  s-4.606-0.879-6.364-2.636c-3.515-3.515-3.515-9.213,0-12.729l24.738-24.739C339.402,77.856,345.1,77.856,348.615,81.37z   M271.673,137.931c8.229-4.752,17.883-6.282,27.173-4.308c10.634,2.261,19.848,8.953,25.28,18.362v-0.001  c5.129,8.882,6.491,19.229,3.836,29.137c-2.654,9.906-9.008,18.187-17.891,23.315c-6.03,3.482-12.624,5.137-19.134,5.137  c-13.28,0-26.212-6.886-33.316-19.19C247.036,172.047,253.34,148.518,271.673,137.931z M273.21,181.384  c5.623,9.738,18.123,13.087,27.861,7.465c4.719-2.725,8.094-7.124,9.505-12.387c1.41-5.263,0.686-10.759-2.038-15.476v-0.001  c-2.887-4.998-7.782-8.554-13.433-9.755c-1.405-0.299-2.827-0.446-4.241-0.446c-3.553,0-7.063,0.93-10.19,2.734  C270.936,159.143,267.587,171.643,273.21,181.384z M429.986,9v411.986c0,4.971-4.029,9-9,9H9c-4.971,0-9-4.029-9-9V9  c0-4.971,4.029-9,9-9h411.986C425.957,0,429.986,4.029,429.986,9z M18,69.861C44.734,65.926,65.927,44.733,69.861,18H18V69.861z   M69.861,411.986C65.927,385.253,44.734,364.061,18,360.125v51.861H69.861z M411.986,360.125  c-26.733,3.936-47.925,25.128-51.86,51.861h51.86V360.125z M411.986,88.012c-36.669-4.15-65.86-33.343-70.011-70.012H88.012  C83.862,54.669,54.669,83.861,18,88.012v253.963c36.669,4.15,65.862,33.343,70.012,70.012h253.963  c4.15-36.669,33.342-65.861,70.011-70.012V88.012z M411.986,18h-51.86c3.936,26.733,25.127,47.926,51.86,51.861V18z   M253.391,214.992c0,21.173-17.225,38.397-38.396,38.397c-10.865,0-21.268-4.634-28.542-12.713  c-6.356-7.059-9.856-16.181-9.856-25.685c0-21.171,17.225-38.396,38.398-38.396C236.166,176.597,253.391,193.821,253.391,214.992z   M235.391,214.992c0-11.246-9.149-20.396-20.396-20.396c-11.248,0-20.398,9.149-20.398,20.396c0,5.049,1.858,9.893,5.233,13.641  c3.866,4.294,9.394,6.757,15.165,6.757C226.241,235.39,235.391,226.239,235.391,214.992z M298.847,296.36  c-2.647,0.563-5.325,0.841-7.99,0.841c-6.687,0-13.297-1.75-19.183-5.148c-18.334-10.586-24.639-34.115-14.053-52.451  c10.587-18.335,34.115-24.638,52.45-14.054c8.883,5.129,15.236,13.409,17.891,23.315c2.655,9.906,1.293,20.254-3.836,29.136  C318.692,287.409,309.479,294.102,298.847,296.36z M310.576,253.522c-1.41-5.263-4.786-9.662-9.505-12.387  c-3.204-1.85-6.706-2.729-10.164-2.729c-7.054,0-13.924,3.658-17.698,10.194c-5.623,9.74-2.274,22.24,7.465,27.863  c4.373,2.524,9.496,3.337,14.432,2.288c5.65-1.2,10.546-4.756,13.433-9.755c0,0,0,0,0-0.001  C311.262,264.28,311.985,258.784,310.576,253.522z M106.111,311.146l-24.738,24.74c-3.515,3.515-3.514,9.213,0,12.728  c1.757,1.757,4.061,2.636,6.364,2.636s4.607-0.879,6.364-2.637l24.738-24.74c3.515-3.515,3.514-9.213,0-12.728  C115.325,307.632,109.626,307.631,106.111,311.146z M106.111,118.838c1.758,1.757,4.061,2.636,6.364,2.636  c2.303,0,4.607-0.879,6.364-2.636c3.515-3.515,3.515-9.213,0-12.729L94.102,81.37c-3.515-3.513-9.212-3.514-12.728,0  c-3.515,3.515-3.515,9.213,0,12.729L106.111,118.838z M176.204,268.738c-2.655,9.907-9.009,18.188-17.892,23.315  c-5.915,3.415-12.481,5.16-19.135,5.16c-3.335,0-6.691-0.438-10-1.324c-9.907-2.655-18.187-9.009-23.315-17.891  s-6.491-19.229-3.836-29.136c2.654-9.906,9.008-18.187,17.89-23.314c8.232-4.753,17.883-6.281,27.173-4.307  c10.632,2.26,19.846,8.952,25.279,18.359c0,0.001,0,0.001,0,0.001C177.497,248.484,178.858,258.832,176.204,268.738z   M156.781,248.604c-2.886-4.998-7.783-8.554-13.435-9.755c-1.406-0.3-2.827-0.447-4.242-0.447c-3.55,0-7.061,0.93-10.187,2.735  c-4.719,2.725-8.094,7.123-9.504,12.386c-1.41,5.262-0.687,10.759,2.038,15.477c2.725,4.719,7.123,8.094,12.385,9.504  c5.264,1.411,10.759,0.687,15.476-2.038c4.719-2.725,8.095-7.123,9.505-12.386C160.227,258.817,159.504,253.321,156.781,248.604z   M186.454,153.059c-6.356-7.059-9.856-16.18-9.856-25.685c0-21.172,17.225-38.396,38.398-38.396  c21.171,0,38.396,17.225,38.396,38.396c0,21.173-17.225,38.397-38.396,38.397C204.13,165.771,193.727,161.138,186.454,153.059z   M194.597,127.374c0,5.049,1.858,9.893,5.233,13.641c3.866,4.294,9.394,6.757,15.165,6.757c11.246,0,20.396-9.15,20.396-20.397  s-9.149-20.396-20.396-20.396C203.748,106.978,194.597,116.127,194.597,127.374z M323.877,311.146  c-3.516-3.516-9.214-3.515-12.728-0.001c-3.516,3.515-3.516,9.213-0.001,12.728l24.738,24.74c1.758,1.758,4.061,2.637,6.364,2.637  c2.303,0,4.606-0.879,6.363-2.636c3.516-3.515,3.516-9.213,0.001-12.728L323.877,311.146z M253.391,302.609  c0,21.173-17.225,38.397-38.396,38.397c-10.865,0-21.268-4.634-28.542-12.713c-6.356-7.059-9.856-16.181-9.856-25.685  c0-21.172,17.225-38.396,38.398-38.396C236.166,264.213,253.391,281.438,253.391,302.609z M235.391,302.609  c0-11.247-9.149-20.396-20.396-20.396c-11.248,0-20.398,9.149-20.398,20.396c0,5.049,1.858,9.893,5.233,13.641  c3.866,4.294,9.394,6.757,15.165,6.757C226.241,323.007,235.391,313.856,235.391,302.609z M129.177,134.095  c9.907-2.653,20.254-1.293,29.135,3.836c18.335,10.586,24.641,34.115,14.057,52.451c0,0,0,0,0,0.001  c-5.433,9.408-14.647,16.1-25.28,18.359c-2.648,0.563-5.327,0.842-7.992,0.842c-6.686,0-13.295-1.751-19.181-5.149  c-8.881-5.127-15.235-13.407-17.89-23.314c-2.655-9.907-1.292-20.254,3.836-29.136C110.991,143.103,119.271,136.749,129.177,134.095  z M119.413,176.462c1.41,5.262,4.785,9.66,9.503,12.385c4.373,2.525,9.497,3.338,14.429,2.289  c5.652-1.201,10.548-4.756,13.435-9.753c5.623-9.741,2.272-22.24-7.468-27.864c-3.142-1.813-6.63-2.741-10.164-2.741  c-1.772,0-3.555,0.233-5.313,0.704c-5.263,1.41-9.661,4.785-12.385,9.503C118.727,165.703,118.003,171.199,119.413,176.462z" fill="#FFFFFF"/>
<g>
</g>
<g>
</g>
<g>
</g>
<g>
</g>
<g>
</g>
<g>
</g>
<g>
</g>
<g>
</g>
<g>
</g>
<g>
</g>
<g>
</g>
<g>
</g>
<g>
</g>
<g>
</g>
<g>
</g>
</svg>
