<?xml version="1.0" encoding="iso-8859-1"?>
<!-- Generator: Adobe Illustrator 19.0.0, SVG Export Plug-In . SVG Version: 6.00 Build 0)  -->
<svg xmlns="http://www.w3.org/2000/svg" xmlns:xlink="http://www.w3.org/1999/xlink" version="1.1" id="Capa_1" x="0px" y="0px" viewBox="0 0 480 480" style="enable-background:new 0 0 480 480;" xml:space="preserve" width="512px" height="512px">
<g>
	<g>
		<path d="M210.4,88l42.632-61.656C257.521,19.857,264.911,15.99,272.8,16H480V0H272.8c-13.126,0-25.417,6.44-32.888,17.232    L197.2,78.872c-12.532,18.112-8.009,42.954,10.103,55.486c0.939,0.65,1.905,1.259,2.897,1.826    c7.879,4.455,17.05,6.067,25.976,4.568c-0.466,4.227-0.258,8.502,0.616,12.664l-6.864,14.696l-21.744-10.144    c-4.003-1.868-8.763-0.139-10.632,3.864l-13.552,29c-1.872,4.002-0.146,8.764,3.856,10.636c0.003,0.001,0.005,0.003,0.008,0.004    l21.168,9.872l-44.648,79.2c-8.044-0.824-16.166,0.392-23.616,3.536l-4-24.392c-0.679-4.33-4.74-7.29-9.07-6.611    c-0.038,0.006-0.076,0.012-0.114,0.019l-23.688,3.888l-0.912-5.512l22.808-50.344c1.826-4.023,0.045-8.765-3.979-10.591    c-1.441-0.654-3.044-0.866-4.605-0.609l-16.592,2.72c-5.743-14.945-19.819-25.046-35.816-25.704l-2.72-16.592l-15.784,2.592    l2.72,16.592c-14.959,5.734-25.074,19.817-25.728,35.824l-16.584,2.728c-4.36,0.716-7.313,4.831-6.597,9.191    c0.256,1.558,0.968,3.006,2.045,4.161l37.696,40.408l0.904,5.504l-23.68,3.888c-4.347,0.715-7.297,4.81-6.6,9.16l5.192,31.576    c0.634,3.861,3.967,6.697,7.88,6.704c0.437,0.002,0.874-0.035,1.304-0.112l23.056-3.768l7.808,90.6    c-17.556,9.477-27.42,28.825-24.776,48.6H0v16h480v-16H138.4l29.504-4.8c4.36-0.715,7.315-4.829,6.601-9.189    c0-0.001,0-0.002,0-0.003l-1.296-7.896c-3.352-20.201-19.129-36.062-39.312-39.52l-16.136-66.08l114.632,53.472    c4.003,1.868,8.763,0.138,10.632-3.864l3.384-7.248c8.756-18.516,4.629-40.561-10.232-54.656l32.056-85.232l21.16,9.816    c1.061,0.491,2.215,0.745,3.384,0.744c0.931,0.004,1.854-0.159,2.728-0.48c1.996-0.724,3.622-2.212,4.52-4.136l13.528-29    c1.867-4.004,0.134-8.764-3.87-10.631c-0.001,0-0.001-0.001-0.002-0.001L287.936,195.2l6.856-14.696    c0.992-0.536,1.888-1.216,2.832-1.824C302.237,196.058,318.02,208.117,336,208h144v-16H336c-6.765-0.005-13.215-2.86-17.768-7.864    c-4.588-5.017-6.813-11.757-6.112-18.52c1.688-12.585,12.562-21.892,25.256-21.616H368c22.091,0,40-17.909,40-40s-17.909-40-40-40    h-80c-2.674,0-5.172,1.335-6.656,3.56l-31.504,47.256c-0.176,0.272-0.416,0.488-0.608,0.752c-1.309,1.231-2.533,2.548-3.664,3.944    c-7.626,6.65-18.617,7.766-27.424,2.784c-11.434-6.556-15.388-21.139-8.833-32.572C209.65,89.134,210.013,88.559,210.4,88z     M59.368,193.224c10.04-1.65,20.03,3.21,24.928,12.128l-30.6,5.048l-14.056,2.304C41.421,202.685,49.327,194.878,59.368,193.224z     M24.048,231.456L64.56,224.8l31.576-5.184l8.92-1.464l-17.6,38.936c-0.651,1.437-0.863,3.035-0.608,4.592l1.296,7.896    l-20.32,3.344l-11.256,1.848l-1.296-7.904c-0.255-1.557-0.965-3.005-2.04-4.16L24.048,231.456z M120.64,418.264    c17.444-2.835,33.896,8.968,36.8,26.4L46.88,462.816c-2.863-17.45,8.953-33.92,26.4-36.8l23.68-3.888L120.64,418.264z     M63.736,322.224l29.936-4.92l2.808-0.456l20.936,85.736L71.32,410.16L63.736,322.224z M115.896,317.952l-1.752,3.76l-1.824-7.464    l6.128-1.008C117.509,314.761,116.657,316.335,115.896,317.952z M30.152,311.552l-2.592-15.784l94.736-15.56L124.88,296    L30.152,311.552z M231.904,372.064C231.904,372.064,231.904,372.064,231.904,372.064l-0.008,0.032L130.4,324.72    c7.468-16.018,26.506-22.949,42.524-15.482c0.001,0.001,0.002,0.001,0.004,0.002l43.504,20.296    C232.448,337.007,239.375,356.048,231.904,372.064z M222.608,314.8l-21.168-9.912l-21.176-9.872l43.336-76.888l30.08,14.032    L222.608,314.8z M295.664,216.472l-6.76,14.496L267.2,220.8l-43.504-20.296l-21.728-10.136l6.76-14.504L295.664,216.472z     M292.28,80H368c13.255,0,24,10.745,24,24s-10.745,24-24,24h-30.624c-8.223,0.031-16.255,2.474-23.104,7.024    c-2.314-8.614-7.428-16.213-14.536-21.6l7.032-15.4l-14.496-6.768l-7.024,15.368c-3.277-0.764-6.635-1.124-10-1.072L292.28,80z     M252.48,157.6c0.821-1.752,0.975-3.743,0.432-5.6c-1.678-5.556-1.257-11.534,1.184-16.8c0.693-1.484,1.535-2.894,2.512-4.208    c1.323-1.201,2.56-2.492,3.704-3.864c10.054-8.604,25.179-7.429,33.783,2.625c6.117,7.148,7.485,17.214,3.497,25.735    c-2.464,5.252-6.768,9.419-12.096,11.712c-1.765,0.786-3.186,2.184-4,3.936l-8.048,17.248l-29-13.536L252.48,157.6z" fill="#FFFFFF"/>
	</g>
</g>
<g>
	<g>
		<rect x="142.113" y="152.001" transform="matrix(0.4472 -0.8944 0.8944 0.4472 -54.6631 231.5565)" width="35.776" height="16" fill="#FFFFFF"/>
	</g>
</g>
<g>
	<g>
		<rect x="112.032" y="142.111" transform="matrix(0.8944 -0.4472 0.4472 0.8944 -58.8811 70.5701)" width="16" height="35.776" fill="#FFFFFF"/>
	</g>
</g>
<g>
	<g>
		<path d="M272,368v3.2c0.003,15.335-7.669,29.654-20.44,38.144l8.88,13.312c17.224-11.454,27.57-30.771,27.56-51.456V368H272z" fill="#FFFFFF"/>
	</g>
</g>
<g>
</g>
<g>
</g>
<g>
</g>
<g>
</g>
<g>
</g>
<g>
</g>
<g>
</g>
<g>
</g>
<g>
</g>
<g>
</g>
<g>
</g>
<g>
</g>
<g>
</g>
<g>
</g>
<g>
</g>
</svg>
