<?xml version="1.0" encoding="iso-8859-1"?>
<!-- Generator: Adobe Illustrator 19.0.0, SVG Export Plug-In . SVG Version: 6.00 Build 0)  -->
<svg xmlns="http://www.w3.org/2000/svg" xmlns:xlink="http://www.w3.org/1999/xlink" version="1.1" id="Layer_1" x="0px" y="0px" viewBox="0 0 480.014 480.014" style="enable-background:new 0 0 480.014 480.014;" xml:space="preserve" width="512px" height="512px">
<g>
	<g>
		<path d="M119.26,64.014c-26.472,0-48,21.528-48,48s21.528,48,48,48s48-21.528,48-48S145.732,64.014,119.26,64.014z     M119.26,144.014c-17.648,0-32-14.352-32-32s14.352-32,32-32s32,14.352,32,32S136.908,144.014,119.26,144.014z" fill="#FFFFFF"/>
	</g>
</g>
<g>
	<g>
		<circle cx="119.26" cy="216.014" r="8" fill="#FFFFFF"/>
	</g>
</g>
<g>
	<g>
		<circle cx="119.26" cy="248.014" r="8" fill="#FFFFFF"/>
	</g>
</g>
<g>
	<g>
		<circle cx="119.26" cy="280.014" r="8" fill="#FFFFFF"/>
	</g>
</g>
<g>
	<g>
		<path d="M475.94,1.526c-2.088-1.504-4.776-1.928-7.2-1.112c-86.072,28.592-180.88,28.592-266.952,0    c-2.448-0.824-5.128-0.4-7.2,1.112c-2.096,1.504-3.328,3.92-3.328,6.488v140.032c0,19.784,2.104,39.512,6.256,58.976    l-14.608-17.04c-7.6-8.872-18.672-13.968-30.368-13.968H70.916c-12.432,0-23.936,5.624-31.576,15.44l-30.184,38.8    c-11.736,15.104-11.12,36.504,1.48,50.896l38.608,44.128c1.456,1.672,3.536,2.656,5.752,2.728c2.24,0.152,4.352-0.776,5.92-2.336    l10.344-10.344v156.688c0,4.424,3.584,8,8,8h40c3.832,0,7.024-2.688,7.816-6.28l30.616,6.128c0.528,0.104,1.056,0.152,1.576,0.152    c3.536,0,6.744-2.36,7.712-5.896l24-88c0.376-1.376,0.376-2.832,0-4.2l-23.72-86.976V245.31l18.088,20.664    c7.552,8.632,18.472,13.616,29.944,13.656c2.616-0.056,5.2-0.4,7.744-0.912c24.248,47.656,61.304,89.072,107.8,119.96    c1.336,0.888,2.88,1.336,4.424,1.336s3.088-0.448,4.424-1.336c87.4-58.064,139.576-151.76,139.576-250.632V8.014    C479.26,5.446,478.028,3.03,475.94,1.526z M71.26,273.206l-13.28-16.6l13.28-13.28V273.206z M224.22,261.886    c-0.016,0.008-0.032,0.024-0.048,0.032c-2.752,1.072-5.696,1.72-8.816,1.72c-6.888-0.032-13.432-3.016-17.968-8.192    l-32.104-36.696c-2.192-2.512-5.712-3.392-8.832-2.224c-3.128,1.168-5.192,4.152-5.192,7.488v72c0,0.712,0.096,1.424,0.28,2.104    l23.424,85.896L153.5,462.702l-24.056-4.808l21.48-71.584c0.536-1.8,0.432-3.728-0.312-5.448l-24-56    c-1.496-3.504-5.248-5.416-8.96-4.688c-3.72,0.768-6.392,4.04-6.392,7.84V463.99c0,0.008,0,0.016,0,0.024h-24V296.03    c0-0.008,0-0.024,0-0.04v-71.976c0-3.232-1.952-6.16-4.936-7.392c-3.008-1.248-6.432-0.552-8.72,1.736l-32,32    c-2.88,2.88-3.136,7.472-0.592,10.656l27.528,34.408L55.652,308.31l-32.984-37.688c-7.552-8.64-7.928-21.488-0.88-30.536    l30.176-38.808c4.512-5.8,11.6-9.264,18.952-9.264h81.624c7.016,0,13.664,3.056,18.224,8.376l38.416,44.816    c0.008,0.016,0.024,0.04,0.032,0.048c1.52,1.752,3.88,2.76,6.016,2.76c0.008,0,0.024,0,0.032,0c0.016,0,0.032,0,0.056,0    c0,0,0,0,0.008,0s0.016,0,0.016,0c0.736,0,1.408-0.28,2.096-0.48c0.408-0.12,0.864-0.104,1.248-0.288    c1.04-0.488,1.968-1.208,2.72-2.104l34.392-41.272l12.472,12.472l-34.88,39.248C230.94,258.342,227.852,260.454,224.22,261.886z     M127.26,409.51v-42.512l7.504,17.504L127.26,409.51z M463.26,148.046c0,91.832-47.752,179.032-128,234.312    c-41.736-28.744-75.248-66.424-97.472-109.584c0.32-0.208,0.6-0.472,0.912-0.696c0.264-0.184,0.512-0.392,0.776-0.592    c2.112-1.576,4.104-3.296,5.872-5.28l39.896-44.88c2.816-3.168,2.672-7.976-0.328-10.968l-24-24    c-1.592-1.592-3.768-2.48-6.016-2.336c-2.248,0.104-4.344,1.144-5.784,2.864l-30.832,37c-7.32-24.856-11.024-50.312-11.024-75.84    V18.95c82.968,25.2,173.032,25.2,256,0V148.046z" fill="#FFFFFF"/>
	</g>
</g>
<g>
	<g>
		<path d="M279.26,96.014c-27.728,0-48,31.568-48,48c0,3.232,1.952,6.16,4.936,7.392c0.992,0.416,2.032,0.608,3.064,0.608    c2.08,0,4.128-0.816,5.664-2.344c7.184-7.192,15.224-13.656,34.336-13.656c19.096,0,27.736,7.048,34.336,13.656    c2.288,2.288,5.736,2.976,8.72,1.736c2.992-1.232,4.944-4.16,4.944-7.392C327.26,127.582,306.988,96.014,279.26,96.014z     M279.26,120.014c-8.2,0-15.024,1.032-20.824,2.768c5.632-6.016,12.928-10.768,20.824-10.768c7.936,0,15.264,4.8,20.904,10.848    C294.324,121.094,287.46,120.014,279.26,120.014z" fill="#FFFFFF"/>
	</g>
</g>
<g>
	<g>
		<path d="M391.26,96.014c-27.728,0-48,31.568-48,48c0,3.232,1.952,6.16,4.936,7.392c0.992,0.416,2.032,0.608,3.064,0.608    c2.08,0,4.128-0.816,5.664-2.344c7.184-7.192,15.224-13.656,34.336-13.656c19.096,0,27.736,7.048,34.336,13.656    c2.288,2.288,5.728,2.976,8.72,1.736c2.992-1.232,4.944-4.16,4.944-7.392C439.26,127.582,418.988,96.014,391.26,96.014z     M391.26,120.014c-8.2,0-15.024,1.032-20.824,2.768c5.632-6.016,12.928-10.768,20.824-10.768c7.936,0,15.264,4.8,20.904,10.848    C406.324,121.094,399.46,120.014,391.26,120.014z" fill="#FFFFFF"/>
	</g>
</g>
<g>
	<g>
		<path d="M386.324,248.622c-3-1.256-6.432-0.552-8.72,1.736c-8.528,8.528-18.832,16.856-42.344,16.856    c-22.392,0-33.584-8.104-42.344-16.856c-2.296-2.288-5.728-2.992-8.72-1.736c-2.984,1.232-4.936,4.16-4.936,7.392    c0,19.168,23.648,56,56,56s56-36.832,56-56C391.26,252.782,389.308,249.854,386.324,248.622z M335.26,296.014    c-12.16,0-22.96-8.56-30.272-18.168c8,3.264,17.824,5.376,30.272,5.376c12.472,0,22.208-2.024,30.168-5.24    C358.124,287.526,347.364,296.014,335.26,296.014z" fill="#FFFFFF"/>
	</g>
</g>
<g>
	<g>
		<rect x="215.26" y="392.014" width="16" height="16" fill="#FFFFFF"/>
	</g>
</g>
<g>
	<g>
		<rect x="247.26" y="392.014" width="16" height="16" fill="#FFFFFF"/>
	</g>
</g>
<g>
	<g>
		<rect x="279.26" y="392.014" width="16" height="16" fill="#FFFFFF"/>
	</g>
</g>
<g>
	<g>
		<rect x="375.26" y="392.014" width="16" height="16" fill="#FFFFFF"/>
	</g>
</g>
<g>
	<g>
		<rect x="407.26" y="392.014" width="16" height="16" fill="#FFFFFF"/>
	</g>
</g>
<g>
	<g>
		<rect x="439.26" y="392.014" width="16" height="16" fill="#FFFFFF"/>
	</g>
</g>
<g>
	<g>
		<rect x="295.26" y="424.014" width="16" height="16" fill="#FFFFFF"/>
	</g>
</g>
<g>
	<g>
		<rect x="327.26" y="424.014" width="16" height="16" fill="#FFFFFF"/>
	</g>
</g>
<g>
	<g>
		<rect x="359.26" y="424.014" width="16" height="16" fill="#FFFFFF"/>
	</g>
</g>
<g>
</g>
<g>
</g>
<g>
</g>
<g>
</g>
<g>
</g>
<g>
</g>
<g>
</g>
<g>
</g>
<g>
</g>
<g>
</g>
<g>
</g>
<g>
</g>
<g>
</g>
<g>
</g>
<g>
</g>
</svg>
