<?xml version="1.0" encoding="iso-8859-1"?>
<!-- Generator: Adobe Illustrator 18.0.0, SVG Export Plug-In . SVG Version: 6.00 Build 0)  -->
<!DOCTYPE svg PUBLIC "-//W3C//DTD SVG 1.1//EN" "http://www.w3.org/Graphics/SVG/1.1/DTD/svg11.dtd">
<svg xmlns="http://www.w3.org/2000/svg" xmlns:xlink="http://www.w3.org/1999/xlink" version="1.1" id="Capa_1" x="0px" y="0px" viewBox="0 0 458.962 458.962" style="enable-background:new 0 0 458.962 458.962;" xml:space="preserve" width="512px" height="512px">
<g id="XMLID_8_">
	<circle id="XMLID_9_" cx="193.207" cy="40.565" r="40.565" fill="#FFFFFF"/>
	<path id="XMLID_2024_" d="M358.713,111.109l-17.278-17.258l5.577-7.672c6.356-8.744,4.421-20.984-4.322-27.341   c-8.743-6.356-20.984-4.421-27.341,4.322l-1.951,2.684l-10.647-10.635c2.417-7.562,0.64-16.174-5.363-22.171   c-8.555-8.546-22.419-8.538-30.965,0.017c-8.546,8.555-8.538,22.419,0.017,30.965c6.004,5.997,14.617,7.764,22.176,5.339   l12.876,12.862l-17.748,24.413c-41.556-8.1-50.059-9.992-59.383-11.924c-4.672-0.968-18.196-0.925-55.802-0.887   c-15.134,0-27.403,12.269-27.403,27.403c0,168.347,0.759,122.179-2.929,210.31l-39.134,94.985   c-4.941,11.994,0.775,25.722,12.769,30.664c11.988,4.941,25.721-0.772,30.663-12.769l40.712-98.813   c1.043-2.533,1.636-5.229,1.75-7.965c3.362-80.338,3.147-74.872,3.148-75.814h7.929l24.388,66.493l-21.662,102.287   c-2.687,12.69,5.421,25.157,18.112,27.844c12.689,2.687,25.157-5.424,27.844-18.112l23.062-108.897   c0.915-4.319,0.593-8.809-0.927-12.954l-22.051-60.121v-29.939l-16.038,1.325c-16.486,1.36-31.07-8.613-35.526-18.119   l-33.965-72.46l50.979,64.486c0.003,0.004,0.007,0.008,0.01,0.012c4.042,5.103,10.426,7.893,16.951,7.357c0.002,0,0.004,0,0.006,0   l77.933-6.44c11.452-0.945,19.741-11.563,17.636-23.056c-1.802-9.843-10.877-16.782-20.859-15.957l-67.475,5.575l-46.166-58.396   l51.764,39.08l4.75-0.392v-12.918l43.319,9.017c4.266,0.964,8.683,0.92,11.349-0.286c3.928-1.233,5.951-3.9,8.471-7.367   l21.559-29.656l15.048,15.032c1.953,1.95,4.51,2.925,7.067,2.925c2.561,0,5.122-0.978,7.075-2.933   C362.623,121.344,362.62,115.012,358.713,111.109z" fill="#FFFFFF"/>
</g>
<g>
</g>
<g>
</g>
<g>
</g>
<g>
</g>
<g>
</g>
<g>
</g>
<g>
</g>
<g>
</g>
<g>
</g>
<g>
</g>
<g>
</g>
<g>
</g>
<g>
</g>
<g>
</g>
<g>
</g>
</svg>
