<?xml version="1.0" encoding="iso-8859-1"?>
<!-- Generator: Adobe Illustrator 16.0.0, SVG Export Plug-In . SVG Version: 6.00 Build 0)  -->
<!DOCTYPE svg PUBLIC "-//W3C//DTD SVG 1.1//EN" "http://www.w3.org/Graphics/SVG/1.1/DTD/svg11.dtd">
<svg xmlns="http://www.w3.org/2000/svg" xmlns:xlink="http://www.w3.org/1999/xlink" version="1.1" id="Capa_1" x="0px" y="0px" width="512px" height="512px" viewBox="0 0 511.796 511.796" style="enable-background:new 0 0 511.796 511.796;" xml:space="preserve">
<g>
	<g>
		<path d="M145.861,130.635c4.111,5.317,7.593,11.045,10.48,17.05c-0.277,0.909-0.163,1.855,0.172,2.754    c-5.871,7.765-7.573,18.341-3.337,27.865l26.669,60.072c3.586,8.099,10.825,13.961,19.47,15.816    c1.932,0.42,3.873,0.611,5.805,0.611c6.731,0,13.32-2.448,18.437-7.028l48.042-42.917l19.077,70.456l-10.452,93.062l-86.33,89.896    c-12.116,12.585-11.714,32.599,0.898,44.695c6.13,5.891,14.019,8.826,21.898,8.826c8.3,0,16.591-3.251,22.797-9.725l93.761-97.614    c4.829-5.001,7.841-11.456,8.616-18.369l9.313-82.917l53.531,51.695v107.319c0,17.452,14.161,31.623,31.623,31.623    c17.451,0,31.613-14.171,31.613-31.623V341.469c0-8.577-3.48-16.782-9.648-22.739l-75.792-73.21    c-0.612-0.593-1.339-1.023-1.989-1.568l-31.164-91.417c0.392-0.258,0.793-0.45,1.166-0.736l70.304-52.785    c12.212-9.18,14.679-26.526,5.499-38.747c-9.151-12.211-26.488-14.679-38.729-5.508l-67.674,50.825l-64.395,39.904l0.048,0.182    c-1.396,0.861-2.744,1.788-4.016,2.917l-36.548,32.656l-11.274-25.37c-5.489-12.383-18.943-18.685-31.661-15.644l-0.153-0.201    c-0.832-1.09-2.113-1.597-3.376-1.597c-2.964-2.572-8.759-7.994-14.487-15.386c-3.279-4.284-6.101-8.625-8.348-12.947    c-0.517-1.358-5.087-13.531-9.553-38.69c-1.979-11.131-3.931-19.689-6.302-26.938c0.191-0.622,0.124-1.348-0.315-1.913    c-0.134-0.163-0.297-0.277-0.459-0.392c-3.271-9.247-7.363-16.38-13.359-24.165C108.232,8.292,97.283,1.675,86.421,0.289    c-9.773-1.243-19.106,1.53-27.684,8.195c-8.195,6.264-13.234,14.86-14.554,24.834c-1.463,11.188,1.97,23.801,8.999,32.895    C64.207,80.509,74.63,87.996,99.626,99.538v0.01c0.01,0.009,0.048,0.028,0.048,0.028c24.519,11.332,34.961,19.068,34.989,19.087    C134.711,118.692,139.847,122.842,145.861,130.635z" fill="#FFFFFF"/>
		<circle cx="262.084" cy="62.78" r="54.334" fill="#FFFFFF"/>
	</g>
</g>
<g>
</g>
<g>
</g>
<g>
</g>
<g>
</g>
<g>
</g>
<g>
</g>
<g>
</g>
<g>
</g>
<g>
</g>
<g>
</g>
<g>
</g>
<g>
</g>
<g>
</g>
<g>
</g>
<g>
</g>
</svg>
