<?xml version="1.0" encoding="iso-8859-1"?>
<!-- Generator: Adobe Illustrator 18.1.1, SVG Export Plug-In . SVG Version: 6.00 Build 0)  -->
<svg xmlns="http://www.w3.org/2000/svg" xmlns:xlink="http://www.w3.org/1999/xlink" version="1.1" id="Capa_1" x="0px" y="0px" viewBox="0 0 483 483" style="enable-background:new 0 0 483 483;" xml:space="preserve" width="512px" height="512px">
<g>
	<g id="Layer_1_58_">
		<g>
			<path d="M219.43,126.206c24.089,10.762,52.331-0.043,63.093-24.131c10.761-24.086-0.045-52.328-24.132-63.09     c-24.084-10.758-52.331,0.043-63.093,24.133C184.54,87.202,195.347,115.448,219.43,126.206z" fill="#FFFFFF"/>
			<circle cx="69.602" cy="215.493" r="10.5" fill="#FFFFFF"/>
			<path d="M471.5,264.052v-26.059c0-5.521-4.478-10-10-10c-4.1,0-7.618,2.471-9.162,6H311.691l-6.563-40.994l64.306,25.832     c7.51,3.025,16.303,0.164,20.496-7.041c4.603-7.908,1.922-18.051-5.986-22.654c0,0-91.975-51.807-101.039-55.809     c-16.786-7.411-52.369-2.411-73.703,10.678L162.8,172.734l-48.774-5.342c-4.219-0.467-8.319,0.729-11.577,3.111l-8.826-2.754     c-1.309-13.141-11.379-24.863-25.701-29.328c-18.728-5.842-38.178,2.918-43.359,19.527c-5.18,16.609,5.842,34.873,24.567,40.717     c14.322,4.465,29.271,0.551,37.817-9.52l11.267,3.515c2.231,3.549,5.798,6.261,10.199,7.302l56.3,13.314     c3.761,0.887,7.87,0.484,11.566-1.441l2.278-1.189l25.958-13.529l5.904,36.877H30.662c-1.544-3.529-5.063-6-9.162-6     c-5.522,0-10,4.479-10,10v26.059C5.055,264.629,0,270.039,0,276.635c0,6.982,5.66,12.641,12.641,12.641h186.777l-18.391,15.289     l-2.118,1.758c-3.191,2.646-5.634,6.262-6.823,10.561l-29.38,106.146c-2.68,9.797,2.495,20.277,12.196,23.893     c10.271,3.83,21.703-1.393,25.532-11.664l35.218-94.477l38.874-24.563l-0.622,24.035l-0.076,2.938     c-0.129,5.402,1.707,10.863,5.578,15.223l73.811,83.115c6.679,7.469,18.117,8.92,26.436,2.939     c8.905-6.4,10.934-18.809,4.533-27.713l-58.091-80.813l6.897-46.668h157.367c6.98,0,12.641-5.658,12.641-12.641     C483,270.038,477.945,264.628,471.5,264.052z M31.5,241.993h180.199l3.521,22H31.5V241.993z M451.5,263.993H315.943     c-0.03-2.42-0.229-4.867-0.622-7.328l-2.349-14.672H451.5V263.993z" fill="#FFFFFF"/>
		</g>
	</g>
</g>
<g>
</g>
<g>
</g>
<g>
</g>
<g>
</g>
<g>
</g>
<g>
</g>
<g>
</g>
<g>
</g>
<g>
</g>
<g>
</g>
<g>
</g>
<g>
</g>
<g>
</g>
<g>
</g>
<g>
</g>
</svg>
