<?xml version="1.0" encoding="iso-8859-1"?>
<!-- Generator: Adobe Illustrator 16.0.0, SVG Export Plug-In . SVG Version: 6.00 Build 0)  -->
<!DOCTYPE svg PUBLIC "-//W3C//DTD SVG 1.1//EN" "http://www.w3.org/Graphics/SVG/1.1/DTD/svg11.dtd">
<svg xmlns="http://www.w3.org/2000/svg" xmlns:xlink="http://www.w3.org/1999/xlink" version="1.1" id="Capa_1" x="0px" y="0px" width="512px" height="512px" viewBox="0 0 536.172 536.172" style="enable-background:new 0 0 536.172 536.172;" xml:space="preserve">
<g>
	<g>
		<path d="M447.737,351.586c1.606,9.313,9.696,15.864,18.829,15.864c1.07,0,2.171-0.096,3.279-0.277    c10.414-1.798,17.385-11.705,15.587-22.108L464.146,222.09c-0.621-3.644-2.305-7.019-4.819-9.735l-104.05-112.331    c-7.172-7.746-19.287-8.195-27.023-1.023c-7.745,7.172-8.204,19.278-1.022,27.023l56.074,60.54l-47.287,16.323l-44.953-86.569    c8.31-6.407,9.916-18.303,3.576-26.679c-4.991-6.589-13.416-8.979-20.894-6.656l-15.826-30.476    c-7.306-14.066-24.633-19.546-38.68-12.23c-14.066,7.306-19.546,24.614-12.24,38.68l19.785,38.097l-34.492,26.134l-38.403-16.199    c-2.687-1.138-5.479-1.549-8.214-1.435l-0.019-0.086l-0.44,0.115c-2.343,0.153-4.609,0.717-6.732,1.692l-69.156,17.375    c-6.502,0.506-12.594,4.246-15.701,10.519L1.992,259.432c-4.686,9.467-0.822,20.933,8.645,25.628    c2.725,1.357,5.623,1.988,8.472,1.988c7.038,0,13.818-3.901,17.146-10.633l38.776-78.289l14.822,71.776L56.125,393.584    L20.18,458.169c-7.708,13.837-2.735,31.308,11.111,39.016c4.418,2.467,9.199,3.634,13.923,3.634    c10.079,0,19.852-5.326,25.092-14.746l37.647-67.626c1.128-2.018,1.999-4.169,2.611-6.406l26.583-97.461l75.458,72.503    l2.926,65.196c0.688,15.387,13.388,27.397,28.64,27.397c0.431,0,0.87-0.01,1.31-0.029c15.835-0.707,28.085-14.124,27.377-29.949    l-3.433-76.653c-0.325-7.344-3.471-14.296-8.778-19.393l-83.165-79.914l-22.472-104.776l32.618,13.761    c2.391,1.014,4.915,1.501,7.43,1.501c4.102,0,8.167-1.319,11.551-3.882l38.078-28.85l56.734,109.242v206.215    c0,15.846,12.842,28.688,28.688,28.688c15.845,0,28.688-12.842,28.688-28.688V279.876l73.459-17.824L447.737,351.586z" fill="#FFFFFF"/>
		<circle cx="81.131" cy="80.412" r="45.059" fill="#FFFFFF"/>
		<circle cx="491.113" cy="166.685" r="45.059" fill="#FFFFFF"/>
	</g>
</g>
<g>
</g>
<g>
</g>
<g>
</g>
<g>
</g>
<g>
</g>
<g>
</g>
<g>
</g>
<g>
</g>
<g>
</g>
<g>
</g>
<g>
</g>
<g>
</g>
<g>
</g>
<g>
</g>
<g>
</g>
</svg>
