<?xml version="1.0" encoding="iso-8859-1"?>
<!-- Generator: Adobe Illustrator 17.1.0, SVG Export Plug-In . SVG Version: 6.00 Build 0)  -->
<!DOCTYPE svg PUBLIC "-//W3C//DTD SVG 1.1//EN" "http://www.w3.org/Graphics/SVG/1.1/DTD/svg11.dtd">
<svg xmlns="http://www.w3.org/2000/svg" xmlns:xlink="http://www.w3.org/1999/xlink" version="1.1" id="Capa_1" x="0px" y="0px" viewBox="0 0 512 512" style="enable-background:new 0 0 512 512;" xml:space="preserve" width="512px" height="512px">
<path d="M488.079,52H23.921C10.731,52,0,62.73,0,75.921V324v128c0,4.418,3.582,8,8,8h88c2.254,0,4.404-0.951,5.92-2.619  c1.516-1.669,2.258-3.899,2.043-6.144c-0.154-1.606-1.777-17.983-5.834-39.237h315.741c-4.057,21.255-5.68,37.631-5.834,39.237  c-0.215,2.244,0.527,4.475,2.043,6.144c1.516,1.668,3.666,2.619,5.92,2.619h88c4.418,0,8-3.582,8-8V324V75.921  C512,62.73,501.269,52,488.079,52z M496,75.921V316h-5.917c-4.221-8.493-14.151-30.1-23.99-63.401  C454.56,213.563,440.882,150.282,440.041,68h48.038C492.447,68,496,71.554,496,75.921z M95.771,259.232  C117.11,218.786,142.42,153.208,143.927,68h39.958c-0.524,19.915-3.015,39.613-7.427,58.944c-0.049,0.133-0.103,0.262-0.146,0.399  c-0.174,0.563-0.277,1.131-0.325,1.696c-3.225,13.678-7.414,27.168-12.565,40.416c-10.955,28.18-26.25,55.352-45.458,80.763  c-18.423,24.371-36.999,42.469-49.825,53.711C76.307,292.642,86.026,277.706,95.771,259.232z M41.472,311.974  c5.193-11.755,12.379-29.905,19.589-54.199C72.977,217.62,87.111,152.533,87.959,68h39.968  c-1.497,81.625-25.639,144.425-45.995,183.175C65.932,281.631,49.785,302.267,41.472,311.974z M197.651,98.509  C214.186,104.657,234.494,108,256,108c21.507,0,41.814-3.343,58.349-9.491c1.048,8.587,2.449,17.121,4.199,25.591  c-19.33,5.175-40.787,7.9-62.548,7.9c-21.762,0-43.218-2.724-62.548-7.9C195.201,115.629,196.603,107.096,197.651,98.509z   M312.756,81.933C297.544,88.353,277.157,92,256,92c-21.157,0-41.543-3.647-56.756-10.066c0.319-4.632,0.534-9.277,0.65-13.934  h112.212C312.222,72.656,312.437,77.301,312.756,81.933z M189.827,139.696C210.365,145.139,233.054,148,256,148  c22.945,0,45.635-2.862,66.173-8.305c2.075,7.985,4.475,15.904,7.18,23.751C306.088,169.124,281.438,172,256,172  c-25.436,0-50.087-2.876-73.353-8.555C185.352,155.599,187.752,147.681,189.827,139.696z M335.933,128.686  c-0.058-0.443-0.145-0.887-0.281-1.329c-0.013-0.043-0.032-0.082-0.045-0.125c-4.453-19.424-6.965-39.219-7.492-59.232h39.958  c1.507,85.208,26.817,150.786,48.155,191.232c9.746,18.474,19.465,33.41,27.632,44.696c-12.826-11.242-31.402-29.34-49.825-53.711  c-19.209-25.411-34.503-52.583-45.458-80.763C343.382,156.094,339.168,142.484,335.933,128.686z M384.073,68h39.968  c0.848,84.533,14.982,149.62,26.898,189.775c7.216,24.316,14.409,42.478,19.603,54.231c-8.234-9.599-24.195-29.974-40.162-60.24  C409.884,212.916,385.575,149.93,384.073,68z M23.921,68h48.038c-0.841,82.282-14.52,145.563-26.052,184.599  C36.069,285.9,26.138,307.507,21.917,316H16V75.921C16,71.554,19.553,68,23.921,68z M16,332h10.76c0.005,0,0.01,0.001,0.016,0.001  c0.005,0,0.01-0.001,0.015-0.001h2.214c11.704,28.738,16.906,89.681,18.469,112H16V332z M63.524,444  c-1.398-20.751-6.152-78.486-17.491-112h6.284c13.321,16.592,22.159,45.871,27.711,71.446C80.015,403.629,80,403.813,80,404  c0,1.363,0.343,2.645,0.944,3.768c3.06,14.818,4.999,28.021,6.062,36.232H63.524z M94.775,396  c-5.666-24.71-14.401-52.298-27.396-70.559c11.834-9.328,37.309-31.237,62.995-65.107c19.52-25.739,35.197-53.25,46.654-81.807  C202.074,184.808,228.621,188,256,188c27.381,0,53.928-3.192,78.972-9.473c11.457,28.557,27.134,56.067,46.654,81.807  c25.686,33.87,51.161,55.78,62.995,65.107c-12.995,18.26-21.73,45.849-27.396,70.559H94.775z M431.057,407.766  c0.6-1.123,0.943-2.404,0.943-3.766c0-0.181-0.015-0.358-0.027-0.536c0.084-0.387,0.166-0.771,0.252-1.159  c7.217-32.631,16.675-56.811,27.464-70.305h6.279c-11.339,33.514-16.094,91.249-17.491,112h-23.487  C426.049,435.783,427.988,422.567,431.057,407.766z M464.526,444c1.562-22.316,6.759-83.25,18.47-112H496v112H464.526z" fill="#FFFFFF"/>
<g>
</g>
<g>
</g>
<g>
</g>
<g>
</g>
<g>
</g>
<g>
</g>
<g>
</g>
<g>
</g>
<g>
</g>
<g>
</g>
<g>
</g>
<g>
</g>
<g>
</g>
<g>
</g>
<g>
</g>
</svg>
