<?xml version="1.0" encoding="iso-8859-1"?>
<!-- Generator: Adobe Illustrator 18.1.1, SVG Export Plug-In . SVG Version: 6.00 Build 0)  -->
<svg xmlns="http://www.w3.org/2000/svg" xmlns:xlink="http://www.w3.org/1999/xlink" version="1.1" id="Capa_1" x="0px" y="0px" viewBox="0 0 59.347 59.347" style="enable-background:new 0 0 59.347 59.347;" xml:space="preserve" width="512px" height="512px">
<g>
	<g>
		<path d="M49.07,20.602c-4.547-2.273-9.098-4.547-13.645-6.821c-0.252-0.578-0.621-1.132-1.141-1.642    c-1.896-1.875-5.75-2.252-7.555,0.04c-4.055,5.142-7.641,10.551-10.802,16.288c-0.471,0.855-0.683,1.694-0.701,2.491    c-0.096,0.34-0.146,0.715-0.134,1.129c0.242,8.635-4.121,14.764-12.109,17.941c-4.216,1.676-2.379,8.568,1.894,6.869    c8.763-3.486,14.865-9.646,16.741-18.178c3.811,5.393,6.453,11.461,7.852,18.062c0.953,4.494,7.821,2.588,6.87-1.894    c-1.74-8.219-5.338-15.797-10.444-22.353c2.516-4.466,5.258-8.815,8.436-12.842c0.02-0.025,0.035-0.051,0.055-0.076    c3.936,1.967,7.871,3.936,11.807,5.903C49.471,27.163,52.358,22.246,49.07,20.602z" fill="#FFFFFF"/>
		<circle cx="38.131" cy="5.953" r="5.953" fill="#FFFFFF"/>
		<circle cx="54.281" cy="15.274" r="4.468" fill="#FFFFFF"/>
	</g>
</g>
<g>
</g>
<g>
</g>
<g>
</g>
<g>
</g>
<g>
</g>
<g>
</g>
<g>
</g>
<g>
</g>
<g>
</g>
<g>
</g>
<g>
</g>
<g>
</g>
<g>
</g>
<g>
</g>
<g>
</g>
</svg>
