<?xml version="1.0" encoding="utf-8"?>
<!-- Generator: Adobe Illustrator 21.0.0, SVG Export Plug-In . SVG Version: 6.00 Build 0)  -->
<svg version="1.1" id="Layer_1" xmlns="http://www.w3.org/2000/svg" xmlns:xlink="http://www.w3.org/1999/xlink" x="0px" y="0px"
	 viewBox="0 0 206.1 204.7" style="enable-background:new 0 0 206.1 204.7;" xml:space="preserve">
<style type="text/css">
	.st0{fill:#29C8E2;}
	.st1{fill:none;stroke:#22B573;stroke-width:7;stroke-miterlimit:10;}
	.st2{fill:#FFFFFF;}
	.st3{fill:none;stroke:#C1272D;stroke-width:7;stroke-miterlimit:10;}
	.st4{fill:none;stroke:#29ABE2;stroke-width:7;stroke-miterlimit:10;}
	.st5{fill:#C1272D;}
	.st6{fill:#29ABE2;}
	.st7{fill:none;stroke:#22B573;stroke-linecap:round;stroke-miterlimit:10;}
	.st8{fill:#22B573;}
</style>
<polygon id="XMLID_8_" class="st0" points="85.8,88.1 89.2,84.4 84.5,85 84.5,81.2 83.1,81 83.7,78.7 81,78.5 81,76.8 78.9,76 
	79.8,73 75.6,72.4 73.6,27.2 58.8,22.3 43.9,27.2 41.9,72.4 37.8,73 38.7,76 36.5,76.8 36.5,78.5 33.9,78.7 34.5,81 33,81.2 33,85 
	28.3,84.4 31.7,88.1 26.3,89 33.7,91.6 38.6,95.7 43.9,91.8 46.9,94.6 49.2,93.2 51.6,93 58.8,95.5 66,93 68.3,93.2 70.6,94.6 
	73.6,91.8 79,95.7 83.8,91.6 91.2,89 "/>
<circle id="XMLID_6_" class="st1" cx="103" cy="143" r="54.5"/>
<path id="XMLID_13_" class="st2" d="M66.3,63.6c-0.8-0.1-1.4-3.5-1.4-3.5l0,0c0,0,0.1-1.1,0.2-1.8c0-0.1,0.1-0.3,0.1-0.4
	c0.7-1.6,1.2-3.4,1.2-5.2l0-0.8c0,0,0-0.1-0.1,0L64,54l0.4-2.3l-2.1,2c0,0-0.1,0-0.1,0L62,50.7l-1.8,3.6c0,0-0.1,0-0.1,0l-1-3.9
	l-1,3.9c0,0-0.1,0-0.1,0l-1.8-3.6L56,53.8c0,0,0,0-0.1,0l-2.1-2l0.4,2.3l-2.3-2.2c0,0-0.1,0-0.1,0l0,0.9c0,1.7,0.5,3.4,1.2,5
	c0.1,0.2,0.1,0.4,0.2,0.5c0.1,0.7,0.2,1.8,0.2,1.8l0,0c0,0-0.2,3.3-1.4,3.5c-0.4,0.1-2.4,1.5-2.8,2.9c-0.1,0.5-0.4,1.1-0.7,1.7
	c-1,1.8-1.3,3.9-0.8,5.9c0.1,0.4,0.2,0.8,0.4,1.2l0.1,0.4l10.9-2.3c0,0,0,0,0,0l10.9,2.3l0.1-0.4c0.2-0.4,0.3-0.9,0.4-1.3
	c0.5-1.9,0.2-3.9-0.7-5.6c-0.4-0.7-0.7-1.3-0.8-1.8C68.7,65.1,66.7,63.7,66.3,63.6z"/>
<circle id="XMLID_5_" class="st3" cx="148" cy="58" r="54.5"/>
<circle id="XMLID_1_" class="st4" cx="58" cy="58" r="54.5"/>
<path id="XMLID_7_" class="st5" d="M188.3,34.8c0,0,14.7,28.9-6.2,52.1s-15.8,12.4-16.1,7.9c-0.1-0.9-0.7-1.5-1-3.3
	c-0.3-1.6-0.3-3.6,0.5-5.2c0.3-0.6,1.6-1.3,1.8-2c0.3-1-0.5-2-0.3-3c0.3-2,0.4-2.7,0.3-3.6c-0.1-0.6-0.3-1.2-0.4-2.4
	c-0.2-1.2-0.3-2.4,0.1-2.4c0.4,0-0.3-2.7,0-5.2c0.2-1.7,0.9-3.3-0.3-4c-3.1-1.7-2-4-1.9-5.5c0.1-1.1-0.3-2,2.6-3.4
	c1.1,0.6,2.2-1.5,3.2-1.9c2-0.9,2.9-2.6,3.7-3.1c0.6-0.4,0.9,0.4,1.9-0.4c0.5-0.4,0-1.9,0.5-2.4c0.9-1,1.6-0.1,1.4-1
	c-0.3-1.2,1.5-3.2,2.2-4.8c0.7-1.5,1.2-2,1.5-2.7C182.5,36.5,183,32.9,188.3,34.8z"/>
<path id="XMLID_11_" class="st0" d="M67.3,204.7"/>
<path id="XMLID_17_" class="st6" d="M78,82.8c0-0.5-0.8-0.9-1.3-1.2c-0.2-0.1-0.4-0.3-0.6-0.4c-1.1-1-4.5-4.4-5.1-5
	c-0.7-0.7-3.7-7.3-4.4-8.2c-0.7-0.8-3.7-0.8-4.2-0.8c-0.5,0-0.6-0.9-1.1-1.3c-0.5-0.4-0.2-2-0.2-2s0.7,0,0.7-3.9
	c0-0.8-0.1-1.5-0.3-2c-0.7-2.2-4-2.2-4.7,0c-0.2,0.5-0.3,1.2-0.3,2c0,3.9,0.7,3.9,0.7,3.9s0.3,1.6-0.2,2c-0.5,0.4-0.6,1.3-1.1,1.3
	c-0.5,0-3.5,0-4.2,0.8s-3.7,7.4-4.4,8.2c-0.6,0.6-4.1,4-5.1,5c-0.2,0.2-0.4,0.3-0.6,0.4c-0.5,0.2-1.3,0.7-1.3,1.2
	c0,0.7-0.8,3.4,1.2,4.3s9.9,2.2,17.7,2.2c7.8,0,15.8-1.2,17.7-2.2C78.8,86.2,78,83.5,78,82.8z M54.3,82.6l-8.9-0.3
	c0,0,4.9-3.1,7.3-7.4L54.3,82.6z M63.7,82.4l1.4-7.7c2.3,4.3,7.3,7.4,7.3,7.4L63.7,82.4z"/>
<polygon id="XMLID_10_" class="st6" points="77.5,82.2 79.3,83.2 78.8,84.2 77.5,84.2 76.1,83.2 "/>
<path id="XMLID_12_" class="st6" d="M41.3,82.6c-0.4-0.2-0.9-0.2-1.2,0l-1.1,0.6l0.2,1l1.5,0.1c0.1,0,0.3,0,0.4,0l2.5-0.5L41.3,82.6
	z"/>
<path id="XMLID_20_" class="st5" d="M161.3,34.9c-1.2,0.1-2.6,0-2.6,0s-1.1,2.4-2.4,2.9c-1.3,0.4-2.7,2.1-3.3,3.4
	c-0.5,1.3-1.3,5.1-2.5,5.9s-3.8,3.5-5.2,4.4c-1.4,0.9-4.3,2.7-6.4,6.4l-5.9,0.2c0,0-3.3-4.7-2.9-7.6c0.4-2.9-1.6,0.2-1.5,1.7
	c0.1,1.5,1.5,7.5,1.5,7.5s-0.8,0.4-1.5,1.8c-0.8,1.3-0.7,2.7-0.7,2.7l0,0.3c-0.7-0.3-1.7-0.6-2.8-0.6c-2.3,0-4.2,0.9-4.2,2.1
	c0,1.2,1.9,2.1,4.2,2.1c1.1,0,2.1-0.2,2.8-0.6c0,0-0.1,0.3,0,0.3c1.6,1.8,7.3,1,9.5-1.8c0.5-0.7,1.9-1.7,2.6-2.1
	c1.3-0.8,2.4-1.3,4.6-4.2s4.5-4.4,6.2-7.3s3-3.5,3.6-4.6c0.7-1.1,3.3-7.1,4.3-7.9c1-0.8,2.4-3.2,3.5-3.1c1.1,0.1,2.2,0,2.2,0
	S162.5,34.8,161.3,34.9z"/>
<path id="XMLID_14_" class="st5" d="M129.4,62.5c-0.6-1.2,0.4,0.9-1.6-3.1c-0.4-0.8-2.6-0.1-1.9,0s0.6,3.3,2.9,4.6"/>
<path id="XMLID_19_" class="st7" d="M68,138.1c1.6,0.6,3.2,1.1,4.9,1.6c4.4,1.2,9,1.2,13.4,0c0,0,0,0,0,0c1.3-0.4,4.7-1.4,7.4-1
	c1.5,0.2,4.2-0.5,5.6,0.1c1.4,0.6,9.8,1.4,11.2,1.4s3.9-0.2,5.2-0.5c2.1-0.4,6.1-1.8,8.3-2.1s3.6-1.3,7.1-1c3.1,0.3,6-0.2,6.4-1.3"
	/>
<path id="XMLID_9_" class="st8" d="M127.6,115.3c0.1-1.5-1.3-1.7-1.3-1.7s-0.2,0.7-2.3,3.6c-1.3,1.8-6.3,5.2-10,7.7l-0.7-0.9
	l-5.4,4.4c-0.6,0.2-1.3,0.3-1.5,0.1l-1.3-0.3c0.5-0.2,0.9-0.6,1.2-1c0.5-0.7,0.9-1.7,0.9-2.8c0-2.3-1.5-4.1-3.4-4.1
	c-1.9,0-3.4,1.9-3.4,4.1c0,1.1,0.4,2.1,0.9,2.9l0,0l-0.6,0.2c-0.7,0.2-1.4,0.1-1.9-0.4l-3.1-3.1c-0.3-0.3-0.7-0.3-1-0.1l-0.2,0.1
	c-0.3,0.2-0.7,0.2-1-0.1c-1.7-1.8-8-8.3-8.4-8.6c-0.5-0.4-0.9-1.5-1.3-2.7c-0.3-0.7-1-0.7-1.8-0.5c-0.7,0.2-1.2,0.7-1.3,1.3
	l-0.2,0.9c-0.1,0.4,0.1,0.7,0.5,0.9c0.6,0.2,1.6,0.6,2,1.1c0.6,0.8,8.3,10.4,8.3,10.4l-0.3,0.7l4.3,4.9c0.1,0.2,0.2,0.5,0.4,0.7
	c0.5,1.9,2.7,10.5,0.1,14.6c-2.4,3.8-2.8,9.5-2.8,11.6c0,0.4,0.3,0.7,0.7,0.7c0.4,0,0.8,0.4,0.7,0.8c-0.3,3,0.5,8.1,0.8,8.7
	c0.3,0.6,2.1,0.6,2.7,0.6s1,0.4,1.1,1.2c0,0.4,0-0.3,0.9,3.2c0.2,0.7,1.6,1.4,2.4,1.2c1-0.2,0.3-5.8,0-8.2c-0.1-0.4-0.4-0.7-0.9-0.6
	c-0.6,0.1-1.4,0.2-2-0.4c-1-1,0-5.2,0-5.2h0.9l1.3-4.1l0.6,5.6c0,0.3,0.2,0.5,0.5,0.6l0.4,0.1c0.3,0.1,0.5,0.4,0.5,0.7v14.6
	c0,0.5-0.6,0.5-0.9,1.1c-0.3,0.8-0.2,1.8-0.2,1.9v3.3c0,0.1,0,0.2,0,0.3l0.3,1.8c0.2,1.1,1.3,1.8,2.4,1.4c0.3-0.1,0.7-0.4,1.1-0.7
	c1.6-1.6,1.6-6.6,0.8-7.9s0.3-8.9,0-9.7c-0.2-0.7,0.6-6.9,0.8-9c0-0.4,0.4-0.6,0.7-0.6h0.5c0.4,0,0.8-0.4,0.7-0.8
	c-0.4-2.2-1.3-8.2-1.8-13.3c-0.6-6.3,2.3-9.2,2.2-11.1c-0.1-1.8,1.2-2,2.9-4.1c0,0,0.1-0.1,0.1-0.1l3.2-2.6l-0.3-0.4
	c3.3-3,8.1-6.7,8.3-6.9C124.8,120.9,127.5,116.8,127.6,115.3z"/>
</svg>
