<svg id="Layer_1" data-name="Layer 1" xmlns="http://www.w3.org/2000/svg" viewBox="0 0 384.04 206.2"><defs><style>.cls-1{fill:#274140;}.cls-2{fill:#99bc44;}.cls-3{fill:#fff;}</style></defs><title>reg</title><path class="cls-1" d="M25.48,62.65,96.35,21.73a12.82,12.82,0,0,1,12.82,0L176.6,60.67A12.82,12.82,0,0,1,183,71.77v77.87a12.82,12.82,0,0,1-6.41,11.1l-67.43,38.93a12.82,12.82,0,0,1-12.82,0L25.48,158.75A12.82,12.82,0,0,0,19.07,157H-162.85a12.82,12.82,0,0,1-12.82-12.82v-67a12.82,12.82,0,0,1,12.82-12.82H19.07A12.82,12.82,0,0,0,25.48,62.65Z" transform="translate(188.43 -7.57)"/><path class="cls-2" d="M31.79,73.44,69,52,93.31,37.92l7.45-4.3a18.24,18.24,0,0,1,1.61-.93c.32-.14.43-.21.71-.09,2.78,1.22,7.8,4.56,11.13,6.49L139.6,53.74l23.9,13.8c2,1.17,4.12,2.27,6.1,3.52.23.14.47.26.7.4-.79-.48,1.25,1.37,0-.36,1.48,2.1.2,1,.19.77,1,15.29,0,31,0,46.27v25.72c0,1.84.11,3.72,0,5.56,0,.07,0,.14,0,.21,0-1.14-.75,1.38.39-.28-1,1.42-.14.26-1.12.88-13.75,8.83-28.45,16.43-42.6,24.6L106.3,186.89a27.92,27.92,0,0,1-3.44,2c1-.4-1-.35-.29-.05a12.37,12.37,0,0,1-1.51-.87c-14.7-8.77-29.66-17.13-44.49-25.69L35.48,150.09c-5.33-3.08-10.52-5.4-16.92-5.55-29.61-.7-59.32,0-88.94,0-30.53,0-61.07-.27-91.6,0-.26,0-.52,0-.77,0s-.16.13.28.09c1-.08-.58-.1-.86-.22q1.29.6.16,0t.1.07c.7-.69-.24,3.92-.25-.42,0,.12.49,1.65.13.07-.44-2,.06.74,0,0s0-1.27,0-1.9V79.4c0-.65,0-1.32,0-2,0-.08,0-.16,0-.24-.09,1.71-.08,0,.13-.49-.83,1.92,1.45-1.22,0,.26-.61.61.25-.1.35-.12,2-.44-.6.05-.1,0,.25,0,.51,0,.76,0,1.34,0,2.68,0,4,0H14.78c6,0,11.35-.63,17-3.42,6.05-3,7.72-11.57,4.48-17.1-3.61-6.17-11-7.48-17.1-4.48-1.44.71-5,0-6.6,0H-64.9c-32.3,0-64.63-.41-96.93,0-13.83.18-25.28,9.89-26.27,24-.39,5.56-.07,11.24-.07,16.81,0,17-.59,34.2,0,51.23.5,14.48,11.22,25.13,25.67,25.62,3.4.12,6.82,0,10.22,0H10.42c2.59,0,6.06-.63,8.59,0,3.14.78,6.71,3.79,9.51,5.41l51.25,29.59c5,2.87,10.41,6.86,16,8.38,10.16,2.75,18.16-1.57,26.48-6.37l50.9-29.39c5.32-3.07,11.72-6,15.82-10.64,6.53-7.45,6.52-15.93,6.52-25V83c0-6.46.7-13.64-1.56-19.79-3.33-9.06-10.66-13.13-18.39-17.59L124.9,16.38C118.34,12.6,112,8.17,104.23,7.62c-8.4-.59-14.93,3.74-21.78,7.7L31.07,45,19.17,51.86C5.24,59.9,17.82,81.51,31.79,73.44Z" transform="translate(188.43 -7.57)"/><path class="cls-3" d="M161.55,117.44l-15.19-15.19a5,5,0,0,0-7.11,0l-3,3V69a5,5,0,0,0-5-5H67.53a5,5,0,0,0-5,5v80.42a5,5,0,0,0,5,5H96v8.38a5,5,0,0,0,5,5h15.19a5,5,0,0,0,3.55-1.47l41.77-41.77A5,5,0,0,0,161.55,117.44ZM72.55,74h53.61v41.36L97.48,144c-.1.1-.19.21-.29.32H72.55Zm41.59,83.77h-8.08v-8.08l36.75-36.74,8.08,8.08Z" transform="translate(188.43 -7.57)"/><path class="cls-3" d="M-138,98h5.42q4.09,0,6,1.68t1.91,5.47q0,5.19-3.33,6.28l3.82,13.5h-3.62l-3.52-12.64h-2.93V125H-138Zm5.19,11.6a5.07,5.07,0,0,0,3.47-1q1-1,1-3.49a7.48,7.48,0,0,0-.37-2.61,2.51,2.51,0,0,0-1.3-1.4,6.19,6.19,0,0,0-2.63-.45h-1.66v8.91Z" transform="translate(188.43 -7.57)"/><path class="cls-3" d="M-120.73,98h10.44v2.79H-117v8.91h5.42v2.66H-117v9.88h6.75V125h-10.51Z" transform="translate(188.43 -7.57)"/><path class="cls-3" d="M-106.06,123q-1.63-2.31-1.63-6.87v-9A17,17,0,0,1-107,102a5.75,5.75,0,0,1,2.23-3.09,7.6,7.6,0,0,1,4.34-1.08q3.72,0,5.37,1.9t1.65,6v1H-97v-.83a14.58,14.58,0,0,0-.23-3,2.52,2.52,0,0,0-1-1.58,3.81,3.81,0,0,0-2.21-.53,3.31,3.31,0,0,0-2.33.71,3.34,3.34,0,0,0-1,1.91,18.69,18.69,0,0,0-.22,3.19v10a9.68,9.68,0,0,0,.75,4.44,3,3,0,0,0,2.88,1.35,3,3,0,0,0,2.88-1.46,10.49,10.49,0,0,0,.78-4.69v-1.86h-3.43v-2.66h6.82V125h-2.36l-.37-3.09a4.74,4.74,0,0,1-4.79,3.42Q-104.43,125.29-106.06,123Z" transform="translate(188.43 -7.57)"/><path class="cls-3" d="M-89.2,98h3.69V125H-89.2Z" transform="translate(188.43 -7.57)"/><path class="cls-3" d="M-80,123.16a9.43,9.43,0,0,1-2-5.75l3.33-.9a10.37,10.37,0,0,0,1,4.19,2.93,2.93,0,0,0,2.81,1.6,2.86,2.86,0,0,0,2.21-.81,3.35,3.35,0,0,0,.75-2.34,5.05,5.05,0,0,0-.7-2.76A11.86,11.86,0,0,0-74.77,114l-4.52-4a7.55,7.55,0,0,1-2-2.58,8.26,8.26,0,0,1-.62-3.37,6.07,6.07,0,0,1,1.7-4.59,6.39,6.39,0,0,1,4.62-1.63,6.39,6.39,0,0,1,4.82,1.7,8.56,8.56,0,0,1,2,5.25l-3.19.86a8.51,8.51,0,0,0-.91-3.64,2.84,2.84,0,0,0-2.68-1.28,3,3,0,0,0-2.19.75,3,3,0,0,0-.76,2.21,4.55,4.55,0,0,0,.4,2,5.38,5.38,0,0,0,1.36,1.65l4.56,4a13.56,13.56,0,0,1,2.81,3.39,8.22,8.22,0,0,1,1,4.16,6.2,6.2,0,0,1-1.8,4.69,6.43,6.43,0,0,1-4.66,1.73A6.4,6.4,0,0,1-80,123.16Z" transform="translate(188.43 -7.57)"/><path class="cls-3" d="M-62.47,100.82H-67V98h12.74v2.79h-4.42V125h-3.76Z" transform="translate(188.43 -7.57)"/><path class="cls-3" d="M-51.7,98h10.44v2.79h-6.68v8.91h5.42v2.66h-5.42v9.88h6.75V125H-51.7Z" transform="translate(188.43 -7.57)"/><path class="cls-3" d="M-38.16,98h5.42q4.09,0,6,1.68t1.91,5.47q0,5.19-3.33,6.28l3.82,13.5H-28l-3.52-12.64h-2.93V125h-3.76Zm5.19,11.6a5.07,5.07,0,0,0,3.47-1q1-1,1-3.49a7.48,7.48,0,0,0-.37-2.61,2.51,2.51,0,0,0-1.3-1.4,6.19,6.19,0,0,0-2.63-.45h-1.66v8.91Z" transform="translate(188.43 -7.57)"/></svg>