<svg xmlns="http://www.w3.org/2000/svg" xmlns:xlink="http://www.w3.org/1999/xlink" class="svg_anims svg1" version="1.1" id="r17eOfHtmjG" x="0px" y="0px" viewBox="0 0 595.3 841.9" style="enable-background:new 0 0 595.3 841.9;"> <style xmlns="http://www.w3.org/1999/xhtml">#r17eOfHtmjG *{-webkit-animation-duration: 3s;animation-duration: 3s;-webkit-animation-iteration-count: infinite;animation-iteration-count: infinite;-webkit-animation-timing-function: cubic-bezier(0, 0, 1, 1);animation-timing-function: cubic-bezier(0, 0, 1, 1);transform-box: fill-box;-webkit-transform-origin: 50% 50%;transform-origin: 50% 50%;}#S1EldGrtQoM{display: none;fill: #222222;}#SJBe_Grt7sz{display: none;fill: #ECF0F1;font-family: 'Montserrat-Regular';font-size: 17px;letter-spacing: 20;}#Sk8g_MHtmof{display: inline;fill: #FFFFFF;letter-spacing: 6;font-size: 12.8889px;}#SJwg_GHKmof{display: inline;fill: #FFFFFF;letter-spacing: 6;font-size: 12.8889px;}#SJ_guzBYQsG{display: inline;fill: #FFFFFF;letter-spacing: 6;font-size: 12.8889px;}#rkYx_frtmsG{display: inline;fill: #FFFFFF;letter-spacing: 6;font-size: 12.8889px;}#rkcxdfrFQsM{display: inline;fill: #FFFFFF;letter-spacing: 6;font-size: 12.8889px;}#BkildfSFQiG{display: inline;fill: #FFFFFF;letter-spacing: 6;font-size: 12.8889px;}#rk2lOfHFQiM{display: inline;fill: #FFFFFF;letter-spacing: 6;font-size: 12.8889px;}#SJTx_fBK7jz{display: inline;fill: #FFFFFF;letter-spacing: 6;font-size: 12.8889px;}#S10euzHF7sM{display: inline;fill: #FFFFFF;letter-spacing: 6;font-size: 12.8889px;}#Sy1buMBF7iG{display: inline;fill: #FFFFFF;letter-spacing: 6;font-size: 12.8889px;}#BkgZOzHKmsG{display: inline;fill: #FFFFFF;letter-spacing: 6;font-size: 12.8889px;}#B1bbufHFmoz{display: inline;fill: #FFFFFF;letter-spacing: 6;font-size: 12.8889px;}#HkGZufSF7jG{display: inline;fill: #FFFFFF;letter-spacing: 6;font-size: 12.8889px;}#Hk7WOzHKXof{display: inline;fill: #FFFFFF;letter-spacing: 6;font-size: 12.8889px;}#r1NWOzBF7oM{display: inline;fill: #FFFFFF;letter-spacing: 6;font-size: 12.8889px;}#HyrZ_zHK7sM{display: inline;fill: #FFFFFF;letter-spacing: 6;font-size: 12.8889px;}#SJUWdfHt7iG{display: inline;fill: #FFFFFF;letter-spacing: 6;font-size: 12.8889px;}#B1wW_fHt7oz{display: inline;fill: #FFFFFF;letter-spacing: 6;font-size: 12.8889px;}#rJd-OfrY7sz{display: inline;fill: #FFFFFF;letter-spacing: 6;font-size: 12.8889px;}#r1KZ_fBY7sf{display: inline;fill: #FFFFFF;letter-spacing: 6;font-size: 12.8889px;}#rk5WuMrtQoG{display: inline;fill: #FFFFFF;letter-spacing: 6;font-size: 12.8889px;}#BJsbOzBtXif{display: inline;fill: #FFFFFF;letter-spacing: 6;font-size: 12.8889px;}#SJnZuMHYmiz{display: inline;fill: #FFFFFF;letter-spacing: 6;font-size: 12.8889px;}#Bk6-OMBF7sz{display: inline;fill: #FFFFFF;letter-spacing: 6;font-size: 12.8889px;}#HyR-ufBK7iz{display: inline;fill: #FFFFFF;letter-spacing: 6;font-size: 12.8889px;}#B1kfOzHtmoz{display: inline;fill: #FFFFFF;letter-spacing: 6;font-size: 12.8889px;}#S1lfdfHFmiM{display: inline;fill: #FFFFFF;letter-spacing: 6;font-size: 12.8889px;}#HkZfuGBYXsz{display: inline;fill: #FFFFFF;letter-spacing: 6;font-size: 12.8889px;}#B1MMuzBKmjG{display: inline;fill: #FFFFFF;letter-spacing: 6;font-size: 12.8889px;}#B1mGufBF7oG{display: inline;fill: #FFFFFF;letter-spacing: 6;font-size: 12.8889px;}#rJEGdzHKmjM{display: inline;fill: #FFFFFF;letter-spacing: 6;font-size: 12.8889px;}#B1rMdGrtXjz{display: inline;fill: #FFFFFF;letter-spacing: 6;font-size: 12.8889px;}#ByIzOzBYQiG{display: inline;fill: #FFFFFF;letter-spacing: 6;font-size: 12.8889px;}#B1vMOGHFXiM{display: inline;fill: #FFFFFF;letter-spacing: 6;font-size: 12.8889px;}#BkOG_zrt7of{display: inline;fill: #FFFFFF;letter-spacing: 6;font-size: 12.8889px;}#SktGdfHtQif{display: inline;fill: #FFFFFF;letter-spacing: 6;font-size: 12.8889px;}#SJ5fuGrFXiz{display: inline;fill: #FFFFFF;letter-spacing: 6;font-size: 12.8889px;}#rJif_zHFXjf{display: inline;fill: #FFFFFF;letter-spacing: 6;font-size: 12.8889px;}#SJnfOfrKmjM{display: inline;fill: #FFFFFF;letter-spacing: 6;font-size: 12.8889px;}#SypMdfrYQof{display: inline;fill: #FFFFFF;letter-spacing: 6;font-size: 12.8889px;}#ryAfOMHY7oM{display: inline;fill: #FFFFFF;letter-spacing: 6;font-size: 12.8889px;}#By17_MrtQjf{display: inline;fill: #FFFFFF;letter-spacing: 6;font-size: 12.8889px;}#BygQ_GHtQiG{display: inline;fill: #FFFFFF;letter-spacing: 6;font-size: 12.8889px;}#rkb7OfBYXoz{display: inline;fill: #FFFFFF;letter-spacing: 6;font-size: 12.8889px;}#SJfmuzHFXiz{display: inline;fill: #FFFFFF;letter-spacing: 6;font-size: 12.8889px;}#BkmQufSt7oM{display: inline;fill: #FFFFFF;letter-spacing: 6;font-size: 12.8889px;}#SkV7_MSK7oG{display: inline;fill: #FFFFFF;letter-spacing: 6;font-size: 12.8889px;}#BJB7OzrYmiG{display: inline;fill: #FFFFFF;letter-spacing: 6;font-size: 12.8889px;}#rk8mOGrYXjM{display: inline;fill: #FFFFFF;letter-spacing: 6;font-size: 12.8889px;}#BkwQOfBtmjM{display: inline;fill: #FFFFFF;letter-spacing: 6;font-size: 12.8889px;}#H1dQ_MrF7if{display: inline;fill: #FFFFFF;letter-spacing: 6;font-size: 12.8889px;}#B1YX_fSKmsf{display: inline;fill: #FFFFFF;letter-spacing: 6;font-size: 12.8889px;}#Sy9X_GBFXsG{display: inline;fill: #FFFFFF;letter-spacing: 6;font-size: 12.8889px;}#H1omdGrYXof{display: inline;fill: #FFFFFF;letter-spacing: 6;font-size: 12.8889px;}#rk2Q_fHFXjM{display: inline;fill: #FFFFFF;letter-spacing: 6;font-size: 12.8889px;}#r1TmOGHFmoG{display: inline;fill: #FFFFFF;letter-spacing: 6;font-size: 12.8889px;}#S1CX_MSFQif{display: inline;fill: #FFFFFF;letter-spacing: 6;font-size: 12.8889px;}#ry14ufBtXiz{display: inline;fill: #FFFFFF;letter-spacing: 6;font-size: 12.8889px;}#HJxNdfrKmsz{display: inline;fill: #FFFFFF;letter-spacing: 6;font-size: 12.8889px;}#B1W4_fBKmif{display: inline;fill: #FFFFFF;letter-spacing: 6;font-size: 12.8889px;}#BJfNOMrYmjz{display: inline;fill: #FFFFFF;letter-spacing: 6;font-size: 12.8889px;}#r17NOzHK7jf{display: inline;fill: #FFFFFF;letter-spacing: 6;font-size: 12.8889px;}#BJEEOzBtQoM{display: inline;fill: #FFFFFF;letter-spacing: 6;font-size: 12.8889px;}#SJrVdfrKmjM{display: inline;fill: #FFFFFF;letter-spacing: 6;font-size: 12.8889px;}#S1UE_GrFmsz{display: inline;fill: #FFFFFF;letter-spacing: 6;font-size: 12.8889px;}#SkwN_frYXoM{display: inline;fill: #FFFFFF;letter-spacing: 6;font-size: 12.8889px;}#BJOVdGHFQjG{display: inline;fill: #FFFFFF;letter-spacing: 6;font-size: 12.8889px;}#BJY4dzrFXiz{display: inline;fill: #FFFFFF;letter-spacing: 6;font-size: 12.8889px;}#Hk5E_MHt7sM{display: inline;fill: #FFFFFF;letter-spacing: 6;font-size: 12.8889px;}#HyjN_MStmiG{display: inline;fill: #FFFFFF;letter-spacing: 6;font-size: 12.8889px;}#By3EdzrKQsM{display: inline;fill: #FFFFFF;letter-spacing: 6;font-size: 12.8889px;}#r1TN_MBFXjM{display: inline;fill: #FFFFFF;letter-spacing: 6;font-size: 12.8889px;}#B10NufSK7iG{display: inline;fill: #FFFFFF;letter-spacing: 6;font-size: 12.8889px;}#Sk1SdGrYQoG{display: inline;fill: #FFFFFF;letter-spacing: 6;font-size: 12.8889px;}#BJxHufSYmof{display: inline;fill: #FFFFFF;letter-spacing: 6;font-size: 12.8889px;}#H1brdGHKQoM{display: inline;fill: #FFFFFF;letter-spacing: 6;font-size: 12.8889px;}#HyzBOMBFQsG{display: inline;fill: #FFFFFF;letter-spacing: 6;font-size: 12.8889px;}#HJXSOfSt7sM{display: inline;fill: #FFFFFF;letter-spacing: 6;font-size: 12.8889px;}#HJVHdMrKXoM{display: inline;fill: #FFFFFF;letter-spacing: 6;font-size: 12.8889px;}#rkrS_GrYQsz{display: inline;fill: #FFFFFF;letter-spacing: 6;font-size: 12.8889px;}#HkLB_GrK7oz{display: inline;fill: #FFFFFF;letter-spacing: 6;font-size: 12.8889px;}#H1wHdzSYmiG{display: inline;fill: #FFFFFF;letter-spacing: 6;font-size: 12.8889px;}#rkOHuGSYQof{display: inline;fill: #FFFFFF;letter-spacing: 6;font-size: 12.8889px;}#H1tHuMBYXiz{display: inline;fill: #FFFFFF;letter-spacing: 6;font-size: 12.8889px;}#r19S_frKmjz{display: inline;fill: #FFFFFF;letter-spacing: 6;font-size: 12.8889px;}#rysruzHYXoM{display: inline;fill: #FFFFFF;letter-spacing: 6;font-size: 12.8889px;}#B1nBuzSFQoM{display: inline;fill: #FFFFFF;letter-spacing: 6;font-size: 12.8889px;}#BkarOfBKQif{display: inline;fill: #FFFFFF;letter-spacing: 6;font-size: 12.8889px;}#Hk0HOGSY7sz{display: inline;fill: #FFFFFF;letter-spacing: 6;font-size: 12.8889px;}#S11L_fSKXiG{display: inline;fill: #FFFFFF;letter-spacing: 6;font-size: 12.8889px;}#ryxLufSt7jz{display: inline;fill: #FFFFFF;letter-spacing: 6;font-size: 12.8889px;}#B1-UdMHKQoM{display: inline;fill: #FFFFFF;letter-spacing: 6;font-size: 12.8889px;}#ByfUdfBt7iz{display: inline;fill: #FFFFFF;letter-spacing: 6;font-size: 12.8889px;}#r1X8_MBY7sG{display: inline;fill: #FFFFFF;letter-spacing: 6;font-size: 12.8889px;}#H1NI_GHYXiG{display: inline;fill: #FFFFFF;letter-spacing: 6;font-size: 12.8889px;}#H1H8OGrtmsM{display: inline;fill: #FFFFFF;letter-spacing: 6;font-size: 12.8889px;}#r1I8_GrYQsz{display: inline;fill: #FFFFFF;letter-spacing: 6;font-size: 12.8889px;}#r1vU_frKQiG{display: inline;fill: #FFFFFF;letter-spacing: 6;font-size: 12.8889px;}#BydUufrK7of{display: inline;fill: #FFFFFF;letter-spacing: 6;font-size: 12.8889px;}#HJt8dfStQjM{display: inline;fill: #FFFFFF;letter-spacing: 6;font-size: 12.8889px;}#ryqI_Grt7iG{display: inline;fill: #FFFFFF;letter-spacing: 6;font-size: 12.8889px;}#B1iUdfSKXif{display: inline;fill: #FFFFFF;letter-spacing: 6;font-size: 12.8889px;}#HkhIOMBYQsf{display: inline;fill: #FFFFFF;letter-spacing: 6;font-size: 12.8889px;}#S1aUdGBtXjM{display: inline;fill: #FFFFFF;letter-spacing: 6;font-size: 12.8889px;}#S1AU_GSF7sG{display: inline;fill: #FFFFFF;letter-spacing: 6;font-size: 12.8889px;}#ryyDdGBKQiM{display: inline;fill: #FFFFFF;letter-spacing: 6;font-size: 12.8889px;}#BkewOGSYmoz{display: inline;fill: #FFFFFF;letter-spacing: 6;font-size: 12.8889px;}#HkWDdGHtmoM{display: inline;fill: #FFFFFF;letter-spacing: 6;font-size: 12.8889px;}#rkMPuzBYmof{display: inline;fill: #FFFFFF;letter-spacing: 6;font-size: 12.8889px;}#r1QvOfStmjM{display: inline;fill: #FFFFFF;letter-spacing: 6;font-size: 12.8889px;}#SJ4DOGStXoG{display: inline;fill: #FFFFFF;letter-spacing: 6;font-size: 12.8889px;}#SySDufHYXsz{display: inline;fill: #FFFFFF;letter-spacing: 6;font-size: 12.8889px;}#SJ8DdzStQsz{display: inline;fill: #FFFFFF;letter-spacing: 6;font-size: 12.8889px;}#SyPw_zBF7sf{display: inline;fill: #FFFFFF;letter-spacing: 6;font-size: 12.8889px;}#B1dPOGrY7of{display: inline;fill: #FFFFFF;letter-spacing: 6;font-size: 12.8889px;}#rJKvdGrYQsz{display: inline;fill: #FFFFFF;letter-spacing: 6;font-size: 12.8889px;}#BJ5D_GHtQif{display: inline;fill: #FFFFFF;letter-spacing: 6;font-size: 12.8889px;}#HJiPuzStmsM{display: inline;fill: #FFFFFF;letter-spacing: 6;font-size: 12.8889px;}#HJ2DufHK7sz{display: inline;fill: #FFFFFF;letter-spacing: 6;font-size: 12.8889px;}#HJTvOGrYXjM{display: inline;fill: #FFFFFF;letter-spacing: 6;font-size: 12.8889px;}#HkRvdGHFQjz{display: inline;fill: #FFFFFF;letter-spacing: 6;font-size: 12.8889px;}#HJ1dOMrK7iG{display: inline;fill: #FFFFFF;letter-spacing: 6;font-size: 12.8889px;}#B1eudfHFQiz{display: inline;fill: #FFFFFF;letter-spacing: 6;font-size: 12.8889px;}#HyWuuMBtmiM{display: inline;fill: #FFFFFF;letter-spacing: 6;font-size: 12.8889px;}#ryMOdfHt7if{display: inline;fill: #FFFFFF;letter-spacing: 6;font-size: 12.8889px;}#SyXddzrYmsM{display: inline;fill: #FFFFFF;letter-spacing: 6;font-size: 12.8889px;}#BJ4OuMBKXjM{display: inline;fill: #FFFFFF;letter-spacing: 6;font-size: 12.8889px;}#S1SOufHtQof{display: inline;fill: #FFFFFF;letter-spacing: 6;font-size: 12.8889px;}#r18d_zSYmjM{display: inline;fill: #FFFFFF;letter-spacing: 6;font-size: 12.8889px;}#BJDO_zSYQof{display: inline;fill: #FFFFFF;letter-spacing: 6;font-size: 12.8889px;}#Hy_ddMSY7sG{display: inline;fill: #FFFFFF;letter-spacing: 6;font-size: 12.8889px;}#rkK_OzHKXsz{display: inline;fill: #FFFFFF;letter-spacing: 6;font-size: 12.8889px;}#Hyq_ufBt7sM{display: inline;fill: #FFFFFF;letter-spacing: 6;font-size: 12.8889px;}#SyodOzHKQjG{display: inline;fill: #FFFFFF;letter-spacing: 6;font-size: 12.8889px;}#rk2__fHKmiG{display: inline;fill: #FFFFFF;letter-spacing: 6;font-size: 12.8889px;}#rkauOfSt7oz{display: inline;fill: #FFFFFF;letter-spacing: 6;font-size: 12.8889px;}#H10duzSF7oM{display: inline;fill: #FFFFFF;letter-spacing: 6;font-size: 12.8889px;}#B11FuMHK7sM{display: inline;fill: #FFFFFF;letter-spacing: 6;font-size: 12.8889px;}#rkeKufSFmoz{display: inline;fill: #FFFFFF;letter-spacing: 6;font-size: 12.8889px;}#S1bFdfHFmjz{display: inline;fill: #FFFFFF;letter-spacing: 6;font-size: 12.8889px;}#SyfYdGSK7sM{display: inline;fill: #FFFFFF;letter-spacing: 6;font-size: 12.8889px;}#Hk7t_frK7iz{display: inline;fill: #FFFFFF;letter-spacing: 6;font-size: 12.8889px;}#SkNtOGSFmsf{display: inline;fill: #FFFFFF;letter-spacing: 6;font-size: 12.8889px;}#H1SY_zBF7oG{display: inline;fill: #FFFFFF;letter-spacing: 6;font-size: 12.8889px;}#B18YOMHFQiG{display: inline;fill: #FFFFFF;letter-spacing: 6;font-size: 12.8889px;}#SJDFdMBFmiG{display: inline;fill: #FFFFFF;letter-spacing: 6;font-size: 12.8889px;}#Bk_tuGBFQoM{display: inline;fill: #FFFFFF;letter-spacing: 6;font-size: 12.8889px;}#rkKKOGSFQof{display: inline;fill: #FFFFFF;letter-spacing: 6;font-size: 12.8889px;}#BkqFuzBtXif{display: inline;fill: #FFFFFF;letter-spacing: 6;font-size: 12.8889px;}#SkjFdzBFXof{display: inline;fill: #FFFFFF;letter-spacing: 6;font-size: 12.8889px;}#Sk3tuGHF7oG{display: inline;fill: #FFFFFF;letter-spacing: 6;font-size: 12.8889px;}#ByTF_fSYmiz{display: inline;fill: #FFFFFF;letter-spacing: 6;font-size: 12.8889px;}#H1AFdGrYmoM{display: inline;fill: #FFFFFF;letter-spacing: 6;font-size: 12.8889px;}#rkkcOMSKQjf{display: inline;fill: #FFFFFF;letter-spacing: 6;font-size: 12.8889px;}#r1l5dzHKmsG{display: inline;fill: #FFFFFF;letter-spacing: 6;font-size: 12.8889px;}#r1Zq_MBKQof{display: inline;fill: #FFFFFF;letter-spacing: 6;font-size: 12.8889px;}#HJzqOfBtXiG{display: inline;fill: #FFFFFF;letter-spacing: 6;font-size: 12.8889px;}#Sym5uzBKmif{display: inline;fill: #FFFFFF;letter-spacing: 6;font-size: 12.8889px;}#rkEc_MHFmiM{display: inline;fill: #FFFFFF;letter-spacing: 6;font-size: 12.8889px;}#BkB9_zSKmjM{display: inline;fill: #FFFFFF;letter-spacing: 6;font-size: 12.8889px;}#B18qOGHKQoz{display: inline;fill: #FFFFFF;letter-spacing: 6;font-size: 12.8889px;}#S1wcOGHtQiz{display: inline;fill: #FFFFFF;letter-spacing: 6;font-size: 12.8889px;}#B1dqOMrYXsG{display: inline;fill: #FFFFFF;letter-spacing: 6;font-size: 12.8889px;}#BkF5ufHKmsz{display: inline;fill: #FFFFFF;letter-spacing: 6;font-size: 12.8889px;}#By9cOzrK7iz{display: inline;fill: #FFFFFF;letter-spacing: 6;font-size: 12.8889px;}#SkjqdGSt7sf{display: inline;fill: #FFFFFF;letter-spacing: 6;font-size: 12.8889px;}#Sk2c_MBYXjG{display: inline;fill: #FFFFFF;letter-spacing: 6;font-size: 12.8889px;}#HJTqdGSKQjf{display: inline;fill: #FFFFFF;letter-spacing: 6;font-size: 12.8889px;}#SyR9dGrtXof{display: inline;fill: #FFFFFF;letter-spacing: 6;font-size: 12.8889px;}#rkJiufBYmsM{display: inline;fill: #FFFFFF;letter-spacing: 6;font-size: 12.8889px;}#B1lo_frY7jM{display: inline;fill: #FFFFFF;letter-spacing: 6;font-size: 12.8889px;}#BJZiuGStXoG{display: inline;fill: #FFFFFF;letter-spacing: 6;font-size: 12.8889px;}#Syfj_zBYmjf{display: inline;fill: #FFFFFF;letter-spacing: 6;font-size: 12.8889px;}#B1QiufrtXoM{display: inline;fill: #FFFFFF;letter-spacing: 6;font-size: 12.8889px;}#HkEjdGBYQsM{display: inline;fill: #FFFFFF;letter-spacing: 6;font-size: 12.8889px;}#rkrouMHYXjM{display: inline;fill: #FFFFFF;letter-spacing: 6;font-size: 12.8889px;}#S1IjdMSYXoM{display: inline;fill: #FFFFFF;letter-spacing: 6;font-size: 12.8889px;}#BJDiOzHtXoM{display: inline;fill: #FFFFFF;letter-spacing: 6;font-size: 12.8889px;}#B1OsufrYQoz{display: inline;fill: #FFFFFF;letter-spacing: 6;font-size: 12.8889px;}#rJFsOGSKQiG{display: inline;fill: #FFFFFF;letter-spacing: 6;font-size: 12.8889px;}#SycidMBtQiz{display: inline;fill: #FFFFFF;letter-spacing: 6;font-size: 12.8889px;}#HksiuzHYmiG{display: inline;fill: #FFFFFF;letter-spacing: 6;font-size: 12.8889px;}#HyhjOGBYQjM{display: inline;fill: #FFFFFF;letter-spacing: 6;font-size: 12.8889px;}#S1Ts_zBKmsG{display: inline;fill: #FFFFFF;letter-spacing: 6;font-size: 12.8889px;}#Hy0ouMBFmiz{display: inline;fill: #FFFFFF;letter-spacing: 6;font-size: 12.8889px;}#r1Jh_frtXoG{display: inline;fill: #FFFFFF;letter-spacing: 6;font-size: 12.8889px;}#r1ehOfStQsM{display: inline;fill: #FFFFFF;letter-spacing: 6;font-size: 12.8889px;}#r1Wndzrtmsf{display: inline;fill: #FFFFFF;letter-spacing: 6;font-size: 12.8889px;}#HyMhuMHYmiG{display: inline;fill: #FFFFFF;letter-spacing: 6;font-size: 12.8889px;}#SJX3dGBtXoz{display: inline;fill: #FFFFFF;letter-spacing: 6;font-size: 12.8889px;}#HyV2OfrYQsf{display: inline;fill: #FFFFFF;letter-spacing: 6;font-size: 12.8889px;}#HyS3OzSY7of{display: inline;fill: #FFFFFF;letter-spacing: 6;font-size: 12.8889px;}#BJ8ndfrYQof{display: inline;fill: #FFFFFF;letter-spacing: 6;font-size: 12.8889px;}#BywndGrKmoz{display: inline;fill: #FFFFFF;letter-spacing: 6;font-size: 12.8889px;}#rkO3OzBKmsf{display: inline;fill: #FFFFFF;letter-spacing: 6;font-size: 12.8889px;}#HJth_GrFXjG{display: inline;fill: #FFFFFF;letter-spacing: 6;font-size: 12.8889px;}#H1c3dMrKmjM{display: inline;fill: #FFFFFF;letter-spacing: 6;font-size: 12.8889px;}#rJo3OMHFmsG{display: inline;fill: #FFFFFF;letter-spacing: 6;font-size: 12.8889px;}#H13nuGSYQoz{display: inline;fill: #FFFFFF;letter-spacing: 6;font-size: 12.8889px;}#SJahuzrKmoz{display: inline;fill: #FFFFFF;letter-spacing: 6;font-size: 12.8889px;}#S1RhdMBt7if{display: inline;fill: #FFFFFF;letter-spacing: 6;font-size: 12.8889px;}#rJkpOMSK7oM{display: inline;fill: #FFFFFF;letter-spacing: 6;font-size: 12.8889px;}#SJeT_MBFmiM{display: inline;fill: #FFFFFF;letter-spacing: 6;font-size: 12.8889px;}#H1-6uzHF7jf{display: inline;fill: #FFFFFF;letter-spacing: 6;font-size: 12.8889px;}#rkf6dzHtXjM{display: inline;fill: #FFFFFF;letter-spacing: 6;font-size: 12.8889px;}#S1mpdfStXjG{display: inline;fill: #FFFFFF;letter-spacing: 6;font-size: 12.8889px;}#rJ46uMHKXsz{display: inline;fill: #FFFFFF;letter-spacing: 6;font-size: 12.8889px;}#B1HpOGHY7if{display: inline;fill: #FFFFFF;letter-spacing: 6;font-size: 12.8889px;}#Bk8adGSt7oz{display: inline;fill: #FFFFFF;letter-spacing: 6;font-size: 12.8889px;}#HyvTOfBYmsz{display: inline;fill: #FFFFFF;letter-spacing: 6;font-size: 12.8889px;}#rJ_puGSYXoz{display: inline;fill: #FFFFFF;letter-spacing: 6;font-size: 12.8889px;}#BkF6dGBF7sG{display: inline;fill: #FFFFFF;letter-spacing: 6;font-size: 12.8889px;}#HJqp_fBKQjz{display: inline;fill: #FFFFFF;letter-spacing: 6;font-size: 12.8889px;}#H1s6_frtXiG{display: inline;fill: #FFFFFF;letter-spacing: 6;font-size: 12.8889px;}#Byna_MBYXiG{display: inline;fill: #FFFFFF;letter-spacing: 6;font-size: 12.8889px;}#Hypa_zStQoz{display: inline;fill: #FFFFFF;letter-spacing: 6;font-size: 12.8889px;}#Hy0adGBK7oz{display: inline;fill: #FFFFFF;letter-spacing: 6;font-size: 12.8889px;}#rJy0uzHFQsG{display: inline;fill: #FFFFFF;letter-spacing: 6;font-size: 12.8889px;}#rJl0uzrKmjG{display: inline;fill: #FFFFFF;letter-spacing: 6;font-size: 12.8889px;}#ry-0dzBY7sf{display: inline;fill: #FFFFFF;letter-spacing: 6;font-size: 12.8889px;}#ByzC_fSFmjM{display: inline;fill: #FFFFFF;letter-spacing: 6;font-size: 12.8889px;}#BJ7AdMHYXif{display: inline;fill: #FFFFFF;letter-spacing: 6;font-size: 12.8889px;}#ryN0dzHYQof{display: inline;fill: #FFFFFF;letter-spacing: 6;font-size: 12.8889px;}#rJr0_zHY7if{display: inline;fill: #FFFFFF;letter-spacing: 6;font-size: 12.8889px;}#r1UAdfHFQoz{display: inline;fill: #FFFFFF;letter-spacing: 6;font-size: 12.8889px;}#B1vAdzSK7jf{display: inline;fill: #FFFFFF;letter-spacing: 6;font-size: 12.8889px;}#BkORdMHKmiz{display: inline;fill: #FFFFFF;letter-spacing: 6;font-size: 12.8889px;}#HJF0dMSt7oz{display: inline;fill: #FFFFFF;letter-spacing: 6;font-size: 12.8889px;}#B190_fBKXjz{display: inline;fill: #FFFFFF;letter-spacing: 6;font-size: 12.8889px;}#SksAdfSYQoz{display: inline;fill: #FFFFFF;letter-spacing: 6;font-size: 12.8889px;}#rk2RufSYmjz{display: inline;fill: #FFFFFF;letter-spacing: 6;font-size: 12.8889px;}#SkTRdMSYXsz{display: inline;fill: #FFFFFF;letter-spacing: 6;font-size: 12.8889px;}#ry00uzHFXof{display: inline;fill: #FFFFFF;letter-spacing: 6;font-size: 12.8889px;}#r111xdfrYmiM{display: inline;fill: #FFFFFF;letter-spacing: 6;font-size: 12.8889px;}#rJeyeOfrtQoM{display: inline;fill: #FFFFFF;letter-spacing: 6;font-size: 12.8889px;}#BkZ1e_zHtXiG{display: inline;fill: #FFFFFF;letter-spacing: 6;font-size: 12.8889px;}#HkG1luMrtXif{display: inline;fill: #FFFFFF;letter-spacing: 6;font-size: 12.8889px;}#B1Xkl_fBYXjf{display: inline;fill: #FFFFFF;letter-spacing: 6;font-size: 12.8889px;}#H141gdGBt7oM{display: inline;fill: #FFFFFF;letter-spacing: 6;font-size: 12.8889px;}#S1Bye_GrFQof{display: inline;fill: #FFFFFF;letter-spacing: 6;font-size: 12.8889px;}#Sk81l_zSt7of{display: inline;fill: #FFFFFF;letter-spacing: 6;font-size: 12.8889px;}#rkw1xuMHt7iz{display: inline;fill: #FFFFFF;letter-spacing: 6;font-size: 12.8889px;}#H1OJl_Grtmsf{display: inline;fill: #FFFFFF;letter-spacing: 6;font-size: 12.8889px;}#S1FkguGBtmoM{display: inline;fill: #FFFFFF;letter-spacing: 6;font-size: 12.8889px;}#ry5kg_fSKmjG{display: inline;fill: #FFFFFF;letter-spacing: 6;font-size: 12.8889px;}#HJsJlufBYXiz{display: inline;fill: #FFFFFF;letter-spacing: 6;font-size: 12.8889px;}#r1hyldfStmiM{display: inline;fill: #FFFFFF;letter-spacing: 6;font-size: 12.8889px;}#Syayx_GBKXjG{display: inline;fill: #FFFFFF;letter-spacing: 6;font-size: 12.8889px;}#HyC1eOMSY7sf{display: inline;fill: #FFFFFF;letter-spacing: 6;font-size: 12.8889px;}#B1kgluMHYXof{display: inline;fill: #FFFFFF;letter-spacing: 6;font-size: 12.8889px;}#HkxlxdzBtQof{display: inline;fill: #FFFFFF;letter-spacing: 6;font-size: 12.8889px;}#SyWxgdGrYQjz{display: inline;fill: #FFFFFF;letter-spacing: 6;font-size: 12.8889px;}#SkGxldzHtXoG{display: inline;fill: #FFFFFF;letter-spacing: 6;font-size: 12.8889px;}#SkQgeuMSKmjG{display: inline;fill: #FFFFFF;letter-spacing: 6;font-size: 12.8889px;}#S1VxlOzrY7iz{display: inline;fill: #FFFFFF;letter-spacing: 6;font-size: 12.8889px;}#SkSle_MSK7jz{display: none;fill: #ECF0F1;font-family: 'Montserrat-Regular';font-size: 17px;letter-spacing: 20;}#r1Ieg_GHY7sz{-webkit-transform: matrix(1,0,0,1,0,0);transform: matrix(1,0,0,1,0,0);display: inline;-webkit-clip-path: url(#SVGID_2_);clip-path: url(#SVGID_2_);}#S1wgxdMHYmoz{overflow: visible;-webkit-transform: matrix(1.8968,0,0,1.8968,187.6256,1245.0417);transform: matrix(1.8968,0,0,1.8968,187.6256,1245.0417);}#B1OeluGHt7sf{-webkit-transform: matrix(1,0,0,1,0,0);transform: matrix(1,0,0,1,0,0);display: inline;-webkit-clip-path: url(#SVGID_2_);clip-path: url(#SVGID_2_);}#SktgedzSK7oz{overflow: visible;-webkit-transform: matrix(1.8968,0,0,1.8968,329.8856,1245.0417);transform: matrix(1.8968,0,0,1.8968,329.8856,1245.0417);}#H19xe_GrYmjf{-webkit-transform: matrix(1,0,0,1,0,0);transform: matrix(1,0,0,1,0,0);display: inline;-webkit-clip-path: url(#SVGID_2_);clip-path: url(#SVGID_2_);}#HJigeOzrKXsz{overflow: visible;-webkit-transform: matrix(1.8968,0,0,1.8968,-34.3,182.8338);transform: matrix(1.8968,0,0,1.8968,-34.3,182.8338);}#Hy2xgdzBt7of{-webkit-transform: matrix(1,0,0,1,0,0);transform: matrix(1,0,0,1,0,0);display: inline;-webkit-clip-path: url(#SVGID_2_);clip-path: url(#SVGID_2_);}#BJpxeufBKQsf{overflow: visible;-webkit-transform: matrix(1.8968,0,0,1.8968,170.5544,285.261);transform: matrix(1.8968,0,0,1.8968,170.5544,285.261);}#SkRgedGrFXsM{-webkit-transform: matrix(1,0,0,1,0,6.103516e-05);transform: matrix(1,0,0,1,0,6.103516e-05);display: inline;-webkit-clip-path: url(#SVGID_2_);clip-path: url(#SVGID_2_);}#BJyZxdMSY7sz{overflow: visible;-webkit-transform: matrix(1.8968,0,0,1.8968,168.6576,988.9738);transform: matrix(1.8968,0,0,1.8968,168.6576,988.9738);}#BkeZeOzrKQjf{-webkit-transform: matrix(1,0,0,1,0,6.103516e-05);transform: matrix(1,0,0,1,0,6.103516e-05);display: inline;-webkit-clip-path: url(#SVGID_2_);clip-path: url(#SVGID_2_);}#rJbZx_GrKmsG{overflow: visible;-webkit-transform: matrix(1.8968,0,0,1.8968,297.64,988.9738);transform: matrix(1.8968,0,0,1.8968,297.64,988.9738);}#HkMWedzBKQsM{display: none;fill: #ECF0F1;font-family: 'Montserrat-Regular';font-size: 17px;letter-spacing: 20;}#ryXWeuMSt7sM{display: inline;fill: #F9ED32;}#SkVZl_MSYXjz{display: inline;fill: #F9ED32;}#BkrWluGrK7of{display: inline;fill: #F9ED32;}#BJL-luMBFXsG{display: inline;fill: #F9ED32;}#HJvZxOfBtXoG{display: inline;fill: #F9ED32;}#rJdWguMBtXjM{display: inline;fill: #F9ED32;}#BytWx_MBF7oz{display: inline;fill: #F9ED32;}#ByqbxdGBtXsM{display: inline;fill: #F9ED32;}#SysbxufSKQif{display: none;fill: #ECF0F1;font-family: 'Montserrat-Regular';font-size: 17px;letter-spacing: 20;}#Hyh-eufrtQsG{display: inline;fill: #00AEEF;}#rJTbldfBtmjf{display: inline;fill: #00AEEF;}#BJC-ldMSFXof{display: inline;fill: #00AEEF;}#HykGxuMSYQsf{display: inline;fill: #00AEEF;}#SkefgdfHYQsz{display: inline;fill: #00AEEF;}#HJGzx_fHFXjM{fill: #ECF0F1;}#S1XzgdfStQiM{fill: #C0392B;}#SJBGl_fBKmsz{fill: #F39C12;}#HyUGldzSFQjz{fill: #F1C40F;}#BJOGeuMrYXsz{fill: #323435;}#H1cMxOMBYmoz{fill: #323435;}#ryhfg_GSKmoM{fill: #BDC3C7;}#SkpzlOGBKXsG{fill: #29343A;}#S1Rzx_MHtQoM{fill: #1C2328;}#SJgXldfSKQoG{fill: #BDC3C7;}#S1bmedzHF7of{fill: #29343A;}#Hkfme_zBYXiz{fill: #1C2328;}#rJmXg_MHKQjz{-webkit-transform: matrix(1,0,0,1,176.194,638.1532);transform: matrix(1,0,0,1,176.194,638.1532);}#BJN7e_MHF7sM{-webkit-transform: matrix(1,0,0,1,167.0016,664.1532);transform: matrix(1,0,0,1,167.0016,664.1532);}#S1r7gdGHKXjM{-webkit-transform: matrix(1,0,0,1,394.3281,31.605);transform: matrix(1,0,0,1,394.3281,31.605);}#SJgXldfSKQoG_ByXXrFQiz{-webkit-transform-origin: 50% 50%;transform-origin: 50% 50%;-webkit-transform: scale(1, 0);transform: scale(1, 0);}#BJJml_GHYmoz_SyCPrYQiG{-webkit-animation-name: BJJml_GHYmoz_SyCPrYQiG_Animation;animation-name: BJJml_GHYmoz_SyCPrYQiG_Animation;-webkit-transform-origin: 50% 50%;transform-origin: 50% 50%;-webkit-transform: scale(1, 1);transform: scale(1, 1);}#rkjGedzSKQoz_HyEeUtQjf{-webkit-animation-name: rkjGedzSKQoz_HyEeUtQjf_Animation;animation-name: rkjGedzSKQoz_HyEeUtQjf_Animation;-webkit-transform-origin: 50% 50%;transform-origin: 50% 50%;-webkit-transform: scale(1, 1);transform: scale(1, 1);}#rkjGedzSKQoz_BkX8UYQjz{-webkit-animation-name: rkjGedzSKQoz_BkX8UYQjz_Animation;animation-name: rkjGedzSKQoz_BkX8UYQjz_Animation;-webkit-transform-origin: 50% 50%;transform-origin: 50% 50%;-webkit-transform: translate(0px, 0px);transform: translate(0px, 0px);}#BJJml_GHYmoz_ry9uvtmoG{-webkit-animation-name: BJJml_GHYmoz_ry9uvtmoG_Animation;animation-name: BJJml_GHYmoz_ry9uvtmoG_Animation;-webkit-transform-origin: 50% 50%;transform-origin: 50% 50%;-webkit-transform: translate(0px, 0px);transform: translate(0px, 0px);}#BJJml_GHYmoz{-webkit-transform-origin: 50% 50%;transform-origin: 50% 50%;opacity: 1;-webkit-animation-name: BJJml_GHYmoz_Animation;animation-name: BJJml_GHYmoz_Animation;}#rkjGedzSKQoz{-webkit-animation-name: rkjGedzSKQoz_Animation;animation-name: rkjGedzSKQoz_Animation;-webkit-transform-origin: 50% 50%;transform-origin: 50% 50%;opacity: 1;}#SJBGl_fBKmsz_Hk4X3Fmjz{-webkit-transform-origin: 50% 50%;transform-origin: 50% 50%;-webkit-transform: translate(0px, 0px);transform: translate(0px, 0px);}#HyUGldzSFQjz_HJvQCFXsz{-webkit-transform-origin: 50% 50%;transform-origin: 50% 50%;-webkit-transform: scale(1, 1);transform: scale(1, 1);}#BJOGeuMrYXsz_Bk1alcmif{-webkit-animation-name: BJOGeuMrYXsz_Bk1alcmif_Animation;animation-name: BJOGeuMrYXsz_Bk1alcmif_Animation;-webkit-transform-origin: 50% 50%;transform-origin: 50% 50%;-webkit-transform: rotate(0deg);transform: rotate(0deg);}#H1cMxOMBYmoz_r1X0f97sM{-webkit-animation-name: H1cMxOMBYmoz_r1X0f97sM_Animation;animation-name: H1cMxOMBYmoz_r1X0f97sM_Animation;-webkit-transform-origin: 50% 50%;transform-origin: 50% 50%;-webkit-transform: rotate(0deg);transform: rotate(0deg);}</style> <rect width="598.4" height="841.9" id="S1EldGrtQoM"/>     <g id="SkWfe_fHtXiG"> <path d="M458.3,470l-15.9-10.1c-1.9-1.2-4-2.1-6.3-2.5l-39.6-7.4c-2-0.4-3.9-1.3-5.4-2.8l-6.2-6   c-1.6-1.6-2.6-3.8-2.6-6v-50.7c0-2.8,2.3-5.1,5.1-5.1h2c4,0,7.2-3.2,7.2-7.2v-39.7c0-4.8-2.5-9.1-6.6-11.6l-2.8-1.7   c-2.1-1.3-3.4-3.6-3.4-6v-7.2c0-2.2,0.9-4.2,2.4-5.8l3.6-3.6c2.4-2.4,3-6.1,1.4-9.2l-10.2-19.6c-0.1-0.2-0.2-0.4-0.2-0.6l-3.8-12.2   c-0.2-0.8-0.4-1.6-0.4-2.4v0.1c0-1.1-0.9-1.9-2-1.8c-1,0.1-1.6,1-1.6,1.9v1v12.8h-7l-0.9-12.4c0-0.2-0.1-0.5-0.1-0.7l-5.4-25.9   c-0.1-0.5-0.1-0.9-0.1-1.4v-0.3c0-1-0.7-1.8-1.6-1.9c-1.1-0.1-2,0.7-2,1.8v0.5c0,0.4,0,0.8,0,1.2l-0.9,13c0,0.7-0.6,1.3-1.4,1.3   h-1.5c-0.5,0-1-0.3-1.3-0.8l-9.7-22.9c-0.2-0.4-0.4-0.9-0.7-1.3l-9.8-13.8c-0.3-0.5-0.5-1.1-0.5-1.7c0-1-0.7-1.8-1.6-1.9   c-1.1-0.1-2,0.7-2,1.8v1.1v3.3c0,0.9-0.7,1.5-1.6,1.6c-0.8,0-1.5,0.7-1.5,1.5v2.5c0,1.1-0.7,2.1-1.8,2.4c-1,0.2-2-0.2-2.5-1.1   l-10.3-17.9c-0.2-0.4-0.4-0.9-0.4-1.3v-0.3c0-1-0.7-1.8-1.6-1.9c-1.1-0.1-2,0.7-2,1.8v0.1c0,0.6-0.2,1.3-0.5,1.8l-5,8.5   c-0.6,1.1-2.2,1.1-2.8,0l-5-8.5c-0.3-0.6-0.5-1.2-0.5-1.8V193c0-1-0.8-1.8-1.8-1.8h0c-1,0-1.8,0.8-1.8,1.8v0.4   c0,0.5-0.1,0.9-0.4,1.3l-10.3,17.8c-0.3,0.6-0.9,1.1-1.6,1.2c-1.5,0.3-2.8-0.8-2.8-2.3v-2.7c0-0.8-0.7-1.5-1.5-1.5   c-0.9,0-1.6-0.7-1.6-1.6v-3.3v-1.1c0-1-0.8-1.8-1.8-1.8h-0.2c-0.9,0-1.6,0.8-1.6,1.7c0,0.8-0.3,1.7-0.8,2.3l-9.5,13.4   c-0.3,0.4-0.5,0.8-0.7,1.3l-9.7,22.9c-0.2,0.5-0.7,0.8-1.3,0.8h-1.5c-0.7,0-1.3-0.6-1.4-1.3l-0.9-13c0-0.4,0-0.8,0-1.2v-0.4   c0-1-0.7-1.8-1.6-1.9c-1.1-0.1-2,0.7-2,1.8v0.4c0,0.5,0,0.9-0.1,1.4l-5.4,25.8c-0.1,0.3-0.1,0.7-0.1,1l-0.9,12.2h-7v-12.8v-1.1   c0-1-0.8-1.8-1.8-1.8h0c-1,0-1.8,0.8-1.8,1.8v-0.1c0,0.8-0.1,1.6-0.4,2.4l-4.5,14.1c-0.1,0.4-0.3,0.7-0.4,1.1l-8.8,17.2   c-1.6,3-1,6.7,1.4,9.2l3.6,3.6c1.5,1.5,2.4,3.6,2.4,5.8v7.2c0,2.5-1.3,4.8-3.4,6l-2.8,1.7c-4.1,2.4-6.6,6.8-6.6,11.6v39.7   c0,4,3.2,7.2,7.2,7.2h1.5c2.8,0,5,2.3,5,5v50.8c0,2.3-0.9,4.5-2.6,6l-6.2,6c-1.5,1.4-3.4,2.4-5.4,2.8l-39.6,7.4   c-2.2,0.4-4.4,1.3-6.3,2.5L136.9,470c-1.9,1.2-3,3.3-3.3,5.6v1.7c0,2.1,2.3,3.3,4.1,2.1l15.9-10.8c0.6-0.4,1.3,0,1.3,0.7   c0,4.5,3.6,8.1,8.1,8.1h13.4c1.6,0,2.9,1.3,2.9,2.9v9.4c0,3,1.2,6,3.4,8.1l16.2,16.2c0.7,0.7,1.2,1.7,1.2,2.8v2.3   c0,1.1,0.8,2.2,1.9,2.4c1.5,0.3,2.7-0.9,2.7-2.3v-3.4c0-2,2.4-2.9,3.8-1.6l15.4,15.4c2,2,4.3,3.4,7,4.3l37.1,12.8   c1.5,0.5,2.5,1.9,2.5,3.5v1.2c0,1.2,0.9,2.2,2,2.3c1.2,0.1,2.3-0.9,2.3-2.1v-4.9c0-1-0.4-1.9-1-2.7l-4-4.4c-0.8-0.9-0.2-2.3,1-2.3   h1.7c1,0,2,0.4,2.7,1.1l3.1,3.1c0.8,0.8,1.2,1.8,1.2,2.8v2.2c0,1.2,0.9,2.2,2,2.3c1.2,0.1,2.3-0.9,2.3-2.1l0-4.1   c0-0.6,0.3-1.1,0.8-1.4c0.6-0.3,1.3-0.2,1.8,0.3l6,6c0.6,0.6,0.9,1.4,0.9,2.2v2.9c0,2.5,2,4.5,4.5,4.6v0c0,0,0,0,0,0c0,0,0,0,0,0v0   c2.5,0,4.5-2.1,4.5-4.6v-2.9c0-0.8,0.3-1.6,0.9-2.2l6-6c0.5-0.5,1.2-0.6,1.8-0.3c0.5,0.3,0.8,0.8,0.8,1.4v4c0,1.2,0.9,2.2,2,2.3   c1.2,0.1,2.3-0.9,2.3-2.1v-2.3c0-1.1,0.4-2.1,1.2-2.8l3.1-3.1c0.7-0.7,1.7-1.1,2.7-1.1h1.7c1.2,0,1.9,1.4,1,2.3l-4,4.4   c-0.7,0.7-1,1.7-1,2.7v4.8c0,1.2,0.9,2.2,2,2.3c1.2,0.1,2.3-0.9,2.3-2.1v-1.3c0-1.6,1-2.9,2.5-3.5l37.1-12.8c2.6-0.9,5-2.4,7-4.3   l15.4-15.4c1.4-1.4,3.8-0.4,3.8,1.6v3.3c0,1.1,0.8,2.2,1.9,2.4c1.5,0.3,2.7-0.9,2.7-2.3v-2.5c0-1,0.4-2,1.2-2.8l16.2-16.2   c2.2-2.2,3.4-5.1,3.4-8.1v-9.3c0-1.6,1.3-2.9,2.9-2.9h13.4c4.5,0,8.1-3.6,8.1-8.1c0-0.7,0.8-1.1,1.3-0.7l15.9,10.8   c1.7,1.2,4.1-0.1,4.1-2.1v-1.7C461.4,473.3,460.2,471.2,458.3,470z" id="HJGzx_fHFXjM"/> <path d="M214.5,266.6l-0.8,2.5c-0.1,0.4-0.3,0.7-0.4,1.1l-8.6,16.8h186.5l-10-19.2c-0.1-0.2-0.2-0.4-0.2-0.6l-0.2-0.6   H373H366H229.3h-7.1H214.5z" id="S1XzgdfStQiM"/> <g id="BJVGxOzSF7jG"> <path d="M323.8,414H272c-12,0-21.6-9.7-21.6-21.6v-5.3c0-12,9.7-21.6,21.6-21.6h51.8c12,0,21.6,9.7,21.6,21.6v5.3    C345.4,404.3,335.7,414,323.8,414z" id="SJBGl_fBKmsz"/> <path d="M375.3,334.2h-1.8c-2.3,0-4.2,1.9-4.2,4.2s-1.9,4.2-4.2,4.2h-37.5c-4.5,0-8.1-3.6-8.1-8.1    c0-6.8-5.5-12.4-12.4-12.4h-9.3h-9.3c-6.8,0-12.4,5.5-12.4,12.4c0,4.5-3.6,8.1-8.1,8.1h-37.5c-2.3,0-4.2-1.9-4.2-4.2    s-1.9-4.2-4.2-4.2h-1.8c-4.2,0-7.7,3.4-7.7,7.7v0.7v20.6c0,1.8,1.5,3.3,3.3,3.3s3.3,1.5,3.3,3.3c0,10,7.3,18.6,17.2,20.2l10.9,1.8    c7.1,1.2,13.5,5,17.9,10.7l20.9,27c2.8,3.6,7,5.6,11.5,5.6s8.8-2.1,11.5-5.6l20.9-27c4.4-5.7,10.8-9.5,17.9-10.7l10.9-1.8    c9.9-1.6,17.2-10.2,17.2-20.2c0-1.8,1.5-3.3,3.3-3.3c1.8,0,3.3-1.5,3.3-3.3v-20.6v-0.7C382.9,337.7,379.5,334.2,375.3,334.2z" id="HyUGldzSFQjz"/> </g> <g id="HkwzgdMSFQiM"> <g id="BJOGeuMrYXsz_Bk1alcmif" data-animator-group="true" data-animator-type="1"> <path d="M280.1,315.1h-8.9c-0.8,0-1.6-0.3-2.2-0.7l-19.9-15.1c-0.8-0.6-1.8-1-2.9-1h-9.5c-1.1,0-2.1-0.7-2.2-1.8    c-0.2-1.4,0.8-2.5,2.1-2.5H248c0.8,0,1.6,0.3,2.2,0.8l19.9,15c0.8,0.6,1.8,1,2.9,1h7c1.1,0,2.1,0.7,2.2,1.8    C282.4,313.9,281.4,315.1,280.1,315.1z" id="BJOGeuMrYXsz"/> </g> </g> <g id="S1YGgOzSKQsM"> <g id="H1cMxOMBYmoz_r1X0f97sM" data-animator-group="true" data-animator-type="1"> <path d="M315.2,315.1h8.9c0.8,0,1.6-0.3,2.2-0.7l19.9-15.1c0.8-0.6,1.8-1,2.9-1h9.5c1.1,0,2.1-0.7,2.2-1.8    c0.2-1.4-0.8-2.5-2.1-2.5h-11.4c-0.8,0-1.6,0.3-2.2,0.8l-19.9,15c-0.8,0.6-1.8,1-2.9,1h-7c-1.1,0-2.1,0.7-2.2,1.8    C312.9,313.9,313.9,315.1,315.2,315.1z" id="H1cMxOMBYmoz"/> </g> </g> <g id="rkjGedzSKQoz_BkX8UYQjz" data-animator-group="true" data-animator-type="0"> <g id="rkjGedzSKQoz_HyEeUtQjf" data-animator-group="true" data-animator-type="2"> <g id="rkjGedzSKQoz"> <path d="M264,336.9h-26.3c-2.9,0-5.6-1.7-6.8-4.4l-2.9-6.6c-1-2.4-1.2-5.1-0.3-7.6l2.8-8.2c1.3-3.9,5.4-6.2,9.5-5.2    l9.4,2.3c1.5,0.4,2.8,1,4,1.9l14.9,11c2,1.5,3.2,3.8,3.2,6.2v3.2C271.4,333.5,268.1,336.9,264,336.9z" id="ryhfg_GSKmoM"/> <path d="M268.9,335c1.1-1.4,2-3.1,2.5-4.8c0-0.2,0-0.5,0-0.7v-3.2c0-2.5-1.2-4.8-3.2-6.2l-10.3-7.6    c-7.6,0.1-13.8,6.3-13.8,13.9c0,4.2,1.9,8,4.8,10.5H264C265.9,336.9,267.6,336.2,268.9,335z" id="SkpzlOGBKXsG"/> <circle cx="258" cy="326.3" r="8.4" id="S1Rzx_MHtQoM"/> </g> </g> </g> <g id="BJJml_GHYmoz_ry9uvtmoG" data-animator-group="true" data-animator-type="0"> <g id="BJJml_GHYmoz_SyCPrYQiG" data-animator-group="true" data-animator-type="2"> <g id="BJJml_GHYmoz"> <path d="M331.7,336.9h26.3c2.9,0,5.6-1.7,6.8-4.4l2.9-6.6c1-2.4,1.2-5.1,0.3-7.6l-2.8-8.2c-1.3-3.9-5.4-6.2-9.5-5.2    l-9.4,2.3c-1.5,0.4-2.8,1-4,1.9l-14.9,11c-2,1.5-3.2,3.8-3.2,6.2v3.2C324.3,333.5,327.7,336.9,331.7,336.9z" id="SJgXldfSKQoG"/> <path d="M326.9,335c-1.1-1.4-2-3.1-2.5-4.8c0-0.2,0-0.5,0-0.7v-3.2c0-2.5,1.2-4.8,3.2-6.2l10.3-7.6    c7.6,0.1,13.8,6.3,13.8,13.9c0,4.2-1.9,8-4.8,10.5h-15.1C329.9,336.9,328.2,336.2,326.9,335z" id="S1bmedzHF7of"/> <circle cx="337.7" cy="326.3" r="8.4" id="Hkfme_zBYXiz"/> </g> </g> </g> </g> </svg>