<svg id="Layer_1" data-name="Layer 1" xmlns="http://www.w3.org/2000/svg" viewBox="0 0 384.02 206.14"><defs><style>.cls-1{fill:#2d3e50;}.cls-2{fill:rgb(0, 255, 202);}.cls-3{fill:#fff;}</style></defs><title>contact</title><path class="cls-1" d="M213.91,55.08l70.87-40.92a12.82,12.82,0,0,1,12.82,0L365,53.1a12.82,12.82,0,0,1,6.4,11.1v77.87a12.82,12.82,0,0,1-6.41,11.1L297.59,192.1a12.82,12.82,0,0,1-12.82,0l-70.86-40.92a12.82,12.82,0,0,0-6.41-1.75H25.58a12.82,12.82,0,0,1-12.82-12.82h0v-67A12.82,12.82,0,0,1,25.58,56.79H207.5A12.82,12.82,0,0,0,213.91,55.08Z" transform="translate(0 0)"/><path class="cls-2" d="M220.22,65.87l37.21-21.44,24.31-14.08,7.45-4.3a18.24,18.24,0,0,1,1.61-.93c.32-.14.43-.21.71-.09,2.78,1.22,7.8,4.56,11.13,6.49L328,46.17,351.93,60c2,1.17,4.12,2.27,6.1,3.52l.7.4c-.79-.48,1.25,1.37,0-.36,1.48,2.1.2,1,.19.77,1,15.29,0,31,0,46.27v25.72c0,1.84.11,3.72,0,5.56v.21c0-1.14-.75,1.38.39-.28-1,1.42-.14.26-1.12.88-13.75,8.83-28.45,16.43-42.6,24.6l-20.86,12.06a27.92,27.92,0,0,1-3.44,2c1-.4-1-.35-.29-.05a12.37,12.37,0,0,1-1.51-.87c-14.7-8.77-29.66-17.13-44.49-25.69l-21.09-12.19c-5.33-3.08-10.52-5.4-16.92-5.55-29.61-.7-59.32,0-88.94,0-30.53,0-61.07-.27-91.6,0h-.77c-.25,0-.16.13.28.09,1-.08-.58-.1-.86-.22q1.29.6.16,0t.1.07c.7-.69-.24,3.92-.25-.42,0,.12.49,1.65.13.07-.44-2,.06.74,0,0s0-1.27,0-1.9V69.59c-.09,1.71-.08,0,.13-.49-.83,1.92,1.45-1.22,0,.26-.61.61.25-.1.35-.12,2-.44-.6.05-.1,0H203.21c6,0,11.35-.63,17-3.42,6-3,7.72-11.57,4.48-17.1-3.61-6.17-11-7.48-17.1-4.48-1.44.71-5,0-6.6,0H123.53c-32.3,0-64.63-.41-96.93,0-13.83.18-25.28,9.89-26.27,24C-.06,73.8.26,79.48.26,85.05c0,17-.59,34.2,0,51.23.5,14.48,11.22,25.13,25.67,25.62,3.4.12,6.82,0,10.22,0h162.7c2.59,0,6.06-.63,8.59,0,3.14.78,6.71,3.79,9.51,5.41L268.2,196.9c5,2.87,10.41,6.86,16,8.38,10.16,2.75,18.16-1.57,26.48-6.37l50.9-29.39c5.32-3.07,11.72-6,15.82-10.64,6.53-7.45,6.52-15.93,6.52-25V75.43c0-6.46.7-13.64-1.56-19.79C379,46.58,371.7,42.51,364,38L313.33,8.81C306.77,5,300.43.6,292.66,0c-8.4-.59-14.93,3.74-21.78,7.7L219.5,37.43l-11.9,6.86C193.67,52.33,206.25,73.94,220.22,65.87Z" transform="translate(0 0)"/><path class="cls-3" d="M42.19,116.13a13.12,13.12,0,0,1-1.86-7.5V97.75q0-5.05,1.82-7.68t6.46-2.62q4.14,0,5.95,2.24t1.8,6.61v2.43H52.29V96.57a21.27,21.27,0,0,0-.19-3.27,3,3,0,0,0-1-1.82,3.72,3.72,0,0,0-2.49-.68,3.89,3.89,0,0,0-2.6.74,3.55,3.55,0,0,0-1.12,2.05,18.45,18.45,0,0,0-.27,3.52v12.2A14,14,0,0,0,45,113a3.24,3.24,0,0,0,1.23,1.9,4.26,4.26,0,0,0,2.38.57,3.53,3.53,0,0,0,2.43-.72,3.3,3.3,0,0,0,1-2,21.88,21.88,0,0,0,.21-3.42v-2.28h4.07v2.28q0,4.6-1.73,7t-6,2.45Q44,118.84,42.19,116.13Z" transform="translate(0 0)"/><path class="cls-3" d="M61.85,116.28q-2-2.57-2-7.43V97.18q0-4.79,2-7.26t6.46-2.47q4.48,0,6.44,2.49t2,7.24v11.7q0,4.79-2,7.37t-6.42,2.58Q63.81,118.84,61.85,116.28Zm9.71-2.22a8.54,8.54,0,0,0,.84-4.26V96.31a8.1,8.1,0,0,0-.84-4.16q-.84-1.35-3.23-1.35t-3.27,1.35a8.09,8.09,0,0,0-.84,4.16V109.8a8.52,8.52,0,0,0,.84,4.26q.83,1.41,3.27,1.41T71.56,114.05Z" transform="translate(0 0)"/><path class="cls-3" d="M80.95,87.72h2.93l8.74,20.44V87.72h3.57V118.5H93.45l-8.85-21v21H80.95Z" transform="translate(0 0)"/><path class="cls-3" d="M104.39,90.91H99.19V87.72h14.55v3.19h-5.05V118.5h-4.29Z" transform="translate(0 0)"/><path class="cls-3" d="M121.49,87.72h4.14l6.57,30.78h-4.07l-1.41-7.75h-6.27L119,118.5h-4Zm4.67,19.95L123.58,93.8,121,107.67Z" transform="translate(0 0)"/><path class="cls-3" d="M136.46,116.13a13.12,13.12,0,0,1-1.86-7.5V97.75q0-5.05,1.82-7.68t6.46-2.62q4.14,0,5.95,2.24t1.8,6.61v2.43h-4.07V96.57a21.27,21.27,0,0,0-.19-3.27,3,3,0,0,0-1-1.82,3.72,3.72,0,0,0-2.49-.68,3.89,3.89,0,0,0-2.6.74,3.55,3.55,0,0,0-1.12,2.05,18.45,18.45,0,0,0-.27,3.52v12.2a14,14,0,0,0,.38,3.69,3.24,3.24,0,0,0,1.23,1.9,4.26,4.26,0,0,0,2.38.57,3.53,3.53,0,0,0,2.43-.72,3.3,3.3,0,0,0,1-2,21.88,21.88,0,0,0,.21-3.42v-2.28h4.07v2.28q0,4.6-1.73,7t-6,2.45Q138.32,118.84,136.46,116.13Z" transform="translate(0 0)"/><path class="cls-3" d="M158.12,90.91h-5.21V87.72h14.55v3.19h-5.05V118.5h-4.29Z" transform="translate(0 0)"/><path class="cls-3" d="M182,117.55a6.57,6.57,0,0,1-2.49-3.61,20.92,20.92,0,0,1-.68-5.81V87.72H183v20.6a13.51,13.51,0,0,0,.82,5.32,3.87,3.87,0,0,0,6.57,0,13.53,13.53,0,0,0,.82-5.32V87.72h4.07v20.41a20.89,20.89,0,0,1-.68,5.81,6.61,6.61,0,0,1-2.47,3.61,8.43,8.43,0,0,1-5,1.29A8.52,8.52,0,0,1,182,117.55Z" transform="translate(0 0)"/><path class="cls-3" d="M201.12,116.45a10.78,10.78,0,0,1-2.26-6.57l3.8-1a11.85,11.85,0,0,0,1.16,4.79,3.35,3.35,0,0,0,3.21,1.82,3.26,3.26,0,0,0,2.53-.93,3.82,3.82,0,0,0,.86-2.68,5.78,5.78,0,0,0-.8-3.15,13.58,13.58,0,0,0-2.55-2.77l-5.17-4.56a8.63,8.63,0,0,1-2.26-2.94,9.45,9.45,0,0,1-.7-3.86,6.93,6.93,0,0,1,1.94-5.24,8.61,8.61,0,0,1,10.79.08q1.86,1.94,2.24,6l-3.65,1a9.71,9.71,0,0,0-1-4.16,3.24,3.24,0,0,0-3.06-1.46,3.44,3.44,0,0,0-2.51.86,3.38,3.38,0,0,0-.87,2.53,5.2,5.2,0,0,0,.46,2.3,6.15,6.15,0,0,0,1.56,1.88l5.21,4.56a15.52,15.52,0,0,1,3.21,3.88,9.39,9.39,0,0,1,1.2,4.75,7.09,7.09,0,0,1-2.05,5.36,8.33,8.33,0,0,1-11.23-.42Z" transform="translate(0 0)"/><path class="cls-3" d="M339.24,87,309.56,57.36a8.25,8.25,0,0,0-11.65,0l-46.32,46.32a8.25,8.25,0,0,0,0,11.65l7.45,7.45L250.85,131a1.88,1.88,0,1,0,2.66,2.66l8.18-8.18,3.41,3.41L246,148a1.88,1.88,0,1,0,2.66,2.66l19.13-19.13L281.26,145a8.25,8.25,0,0,0,11.65,0l46.32-46.32a8.24,8.24,0,0,0,0-11.65Zm-53.51,56.41a4.45,4.45,0,0,1-1.8-1.09l-29.68-29.68a4.48,4.48,0,0,1-1.15-4.33h32.64Zm-6.79-38.87L284.5,99a1.88,1.88,0,0,0-2.66-2.66l-8.23,8.23h-5.48l17-17a1.88,1.88,0,1,0-2.66-2.66l-19.65,19.65H256l42.81-42.81V100.1a4.49,4.49,0,0,1-4.48,4.48ZM336.58,96l-46.32,46.32a4.47,4.47,0,0,1-.77.62V108.34h4.84a8.25,8.25,0,0,0,8.24-8.24V95.26h21.55l-10.88,10.88a1.88,1.88,0,1,0,2.66,2.66l13.53-13.53h7.77A4.51,4.51,0,0,1,336.58,96Zm-34-4.53V58.86A4.48,4.48,0,0,1,306.9,60L336.58,89.7a4.46,4.46,0,0,1,1.1,1.8Z" transform="translate(0 0)"/><path class="cls-3" d="M289.73,80.33a1.88,1.88,0,1,0,.55,1.33A1.89,1.89,0,0,0,289.73,80.33Z" transform="translate(0 0)"/><path class="cls-3" d="M248.63,135.84a1.88,1.88,0,1,0,.55,1.33A1.89,1.89,0,0,0,248.63,135.84Z" transform="translate(0 0)"/><path class="cls-3" d="M269.29,139.44a1.88,1.88,0,0,0-2.66,0L258.09,148a1.88,1.88,0,1,0,2.66,2.66l8.54-8.54A1.88,1.88,0,0,0,269.29,139.44Z" transform="translate(0 0)"/></svg>
