<?xml version="1.0" encoding="iso-8859-1"?>
<!-- Generator: Adobe Illustrator 19.0.0, SVG Export Plug-In . SVG Version: 6.00 Build 0)  -->
<svg version="1.1" id="Layer_1" xmlns="http://www.w3.org/2000/svg" width="32px" height="32px" xmlns:xlink="http://www.w3.org/1999/xlink" x="0px" y="0px"
	 viewBox="0 0 511.559 511.559" style="enable-background:new 0 0 511.559 511.559;" xml:space="preserve">
	<style>
		#Layer_1{
		transform:rotate(-90deg);
		}
	</style>
<path style="fill:#C17C3E;" d="M333.683,122.438l37.076,37.076c3.531,3.531,8.828,3.531,12.359,0
	c2.648-2.648,7.945-3.531,10.593-1.766C376.055,176.286,115.641,446.41,75.035,487.9c-3.531,3.531-7.945,5.297-12.359,5.297H51.2
	c-28.248,0-51.2-22.952-51.2-51.2v-3.531c0-4.414,1.766-8.828,5.297-12.359L325.738,113.61
	C329.269,118.024,331.917,120.672,333.683,122.438L333.683,122.438z"/>
<path style="fill:#A3AAAF;" d="M218.041,46.521c49.434-41.49,128.883-36.193,174.786,9.71l40.607,41.49
	c3.531,3.531,3.531,8.828,0,12.359c-3.531,3.531-3.531,8.828,0,12.359l24.717,24.717c3.531,3.531,8.828,3.531,12.359,0
	c3.531-3.531,8.828-3.531,12.359,0l22.069,22.069c8.828,8.828,8.828,22.952,0,30.897l-30.897,30.897
	c-8.828,8.828-22.952,8.828-30.897,0l-22.069-22.069c-3.531-3.531-3.531-8.828,0-12.359c3.531-3.531,3.531-8.828,0-12.359
	l-24.717-24.717c-3.531-3.531-8.828-3.531-12.359,0l0,0c-3.531,3.531-8.828,3.531-12.359,0l-37.076-37.076
	c-8.828-8.828-36.193-33.545-47.669-38.841c-22.069-10.593-46.786-14.124-71.503-9.71l-2.648,0.883
	c-8.828,1.766-14.124-7.945-8.828-15.007C208.331,55.348,212.745,50.934,218.041,46.521"/>
<g>
	<path style="fill:#9E5A23;" d="M52.966,476.424c-2.648,0-4.414-0.883-6.179-2.648c-3.531-3.531-3.531-8.828,0-12.359
		l114.759-114.759c3.531-3.531,8.828-3.531,12.359,0c3.531,3.531,3.531,8.828,0,12.359L59.145,473.776
		C57.379,475.541,55.614,476.424,52.966,476.424"/>
	<path style="fill:#9E5A23;" d="M194.207,335.183c-2.648,0-4.414-0.883-6.179-2.648c-3.531-3.531-3.531-8.828,0-12.359
		l61.793-61.793c3.531-3.531,8.828-3.531,12.359,0s3.531,8.828,0,12.359l-61.793,61.793
		C198.621,334.3,196.855,335.183,194.207,335.183"/>
	<path style="fill:#9E5A23;" d="M282.483,246.907c-2.648,0-4.414-0.883-6.179-2.648c-3.531-3.531-3.531-8.828,0-12.359
		l26.483-26.483c3.531-3.531,8.828-3.531,12.359,0s3.531,8.828,0,12.359l-26.483,26.483
		C286.897,246.024,285.131,246.907,282.483,246.907"/>
	<path style="fill:#9E5A23;" d="M44.138,441.114c-2.648,0-4.414-0.883-6.179-2.648c-3.531-3.531-3.531-8.828,0-12.359l61.793-61.793
		c3.531-3.531,8.828-3.531,12.359,0c3.531,3.531,3.531,8.828,0,12.359l-61.793,61.793C48.552,440.231,46.786,441.114,44.138,441.114
		"/>
	<path style="fill:#9E5A23;" d="M132.414,352.838c-2.648,0-4.414-0.883-6.179-2.648c-3.531-3.531-3.531-8.828,0-12.359
		l61.793-61.793c3.531-3.531,8.828-3.531,12.359,0c3.531,3.531,3.531,8.828,0,12.359l-61.793,61.793
		C136.828,351.955,135.062,352.838,132.414,352.838"/>
	<path style="fill:#9E5A23;" d="M220.69,264.562c-2.648,0-4.414-0.883-6.179-2.648c-3.531-3.531-3.531-8.828,0-12.359l79.448-79.448
		c3.531-3.531,8.828-3.531,12.359,0c3.531,3.531,3.531,8.828,0,12.359l-79.448,79.448
		C225.103,263.679,223.338,264.562,220.69,264.562"/>
</g>
<g>
</g>
<g>
</g>
<g>
</g>
<g>
</g>
<g>
</g>
<g>
</g>
<g>
</g>
<g>
</g>
<g>
</g>
<g>
</g>
<g>
</g>
<g>
</g>
<g>
</g>
<g>
</g>
<g>
</g>
</svg>
