<svg xmlns="http://www.w3.org/2000/svg" viewBox="0 0 200.22 221.18" preserveAspectRatio="none"><defs><style>.cls-1{fill:#fff;}.cls-2{fill:#ff0;}</style></defs><title>Asset 1</title><g id="Layer_2" data-name="Layer 2"><g id="Layer_1-2" data-name="Layer 1"><path class="cls-1" d="M188.05,150.56V70.76A18.9,18.9,0,0,0,178.6,54.4L109.5,14.5a18.9,18.9,0,0,0-18.9,0L21.5,54.4a18.9,18.9,0,0,0-9.45,16.36v79.79a18.9,18.9,0,0,0,9.45,16.36l69.1,39.9a18.9,18.9,0,0,0,18.9,0l69.1-39.9A18.9,18.9,0,0,0,188.05,150.56Z"/><path class="cls-2" d="M200.05,150.56v-60c0-7,.42-14.22-.05-21.24A31.87,31.87,0,0,0,184.53,44c-2.13-1.32-4.35-2.51-6.52-3.76l-58.9-34a50.74,50.74,0,0,0-10.24-4.92C100.31-1.41,91.35.34,83.67,4.65,75.8,9.06,68,13.67,60.22,18.18L27.56,37c-8.17,4.72-17.29,8.85-22.6,17C-.86,63.06.05,73.46.05,83.61v37.9c0,9.26-.08,18.51,0,27.77.11,13,6.6,22.93,17.65,29.31L75.92,212.2c11.08,6.39,22,12.17,35.28,7,7.28-2.86,14-7.56,20.75-11.45,17.52-10.12,35.44-19.75,52.65-30.4a32,32,0,0,0,15.45-26.76c.25-6.48-5.69-12-12-12a12.19,12.19,0,0,0-12,12c-.11,3-1.34,4.72-4.61,6.64-2.79,1.64-5.62,3.24-8.42,4.86l-30.19,17.43-26,15c-1.54.89-3.49,2.35-5.12,2.76-2.93.74-5.22-.94-7.62-2.33L38.68,163l-9.19-5.31c-.61-.35-1.25-.68-1.84-1.06A7.34,7.34,0,0,1,24.47,153c-.53-1.39-.42-3.87-.42-6.29V134.15c0-20.7-.17-41.41,0-62.11,0-.42,0-.86,0-1.28a7.08,7.08,0,0,1,3.5-6c1.49-1,3.11-1.8,4.65-2.68L59.09,46.55,88.33,29.67c4.76-2.75,10-7.33,15.33-4.68,6.59,3.27,12.87,7.43,19.24,11.11l31.72,18.31c5.91,3.41,12.16,6.54,17.86,10.31,2.74,1.81,3.52,3.59,3.56,6.82,0,2.94,0,5.89,0,8.83v70.18C176.05,166,200.05,166,200.05,150.56Z"/></g></g></svg>