<svg id="Layer_1" data-name="Layer 1" xmlns="http://www.w3.org/2000/svg" viewBox="0 0 384.02 206.14"><defs><style>.cls-1{fill:#2d3e50;}.cls-2{fill:rgb(0, 255, 202);}.cls-3{fill:#fff;}</style></defs><title>events</title><path class="cls-1" d="M170.11,151.06,99.24,192a12.82,12.82,0,0,1-12.82,0L19,153a12.82,12.82,0,0,1-6.4-11.1V64.07A12.82,12.82,0,0,1,19,53L86.43,14a12.82,12.82,0,0,1,12.82,0L170.11,55a12.82,12.82,0,0,0,6.41,1.75H358.44a12.82,12.82,0,0,1,12.82,12.82h0v67a12.82,12.82,0,0,1-12.82,12.82H176.52A12.82,12.82,0,0,0,170.11,151.06Z"/><path class="cls-2" d="M163.8,140.27l-37.21,21.44-24.31,14.08-7.45,4.3a18.24,18.24,0,0,1-1.61.93c-.32.14-.43.21-.71.09-2.78-1.22-7.8-4.56-11.13-6.49L56,160l-23.9-13.8c-2-1.17-4.12-2.27-6.1-3.52l-.7-.4c.79.48-1.25-1.37,0,.36-1.48-2.1-.2-1-.19-.77-1-15.29,0-31,0-46.27V69.85c0-1.84-.11-3.72,0-5.56v-.21c0,1.14.75-1.38-.39.28,1-1.42.14-.26,1.12-.88C39.58,54.65,54.28,47,68.43,38.88L89.29,26.82a27.92,27.92,0,0,1,3.44-2c-1,.4,1,.35.29.05a12.37,12.37,0,0,1,1.51.87c14.7,8.77,29.66,17.13,44.49,25.69l21.09,12.19c5.33,3.08,10.52,5.4,16.92,5.55,29.61.7,59.32,0,88.94,0,30.53,0,61.07.27,91.6,0h.77c.25,0,.16-.13-.28-.09-1,.08.58.1.86.22q-1.29-.6-.16,0t-.1-.07c-.7.69.24-3.92.25.42,0-.12-.49-1.65-.13-.07.44,2-.06-.74,0,0s0,1.27,0,1.9v65.07c.09-1.71.08,0-.13.49.83-1.92-1.45,1.22,0-.26.61-.61-.25.1-.35.12-2,.44.6-.05.1,0H180.81c-6,0-11.35.63-17,3.42-6,3-7.72,11.57-4.48,17.1,3.61,6.17,11,7.48,17.1,4.48,1.44-.71,5,0,6.6,0h77.46c32.3,0,64.63.41,96.93,0,13.83-.18,25.28-9.89,26.27-24,.39-5.56.07-11.24.07-16.81,0-17,.59-34.2,0-51.23-.5-14.48-11.22-25.13-25.67-25.62-3.4-.12-6.82,0-10.22,0H185.17c-2.59,0-6.06.63-8.59,0-3.14-.78-6.71-3.79-9.51-5.41L115.82,9.24c-5-2.87-10.41-6.86-16-8.38C89.66-1.89,81.66,2.43,73.34,7.23L22.44,36.62c-5.32,3.07-11.72,6-15.82,10.64C.09,54.71.1,63.19.1,72.26v58.45c0,6.46-.7,13.64,1.56,19.79,3.33,9.06,10.66,13.13,18.39,17.59l50.64,29.24c6.56,3.78,12.9,8.21,20.67,8.76,8.4.59,14.93-3.74,21.78-7.7l51.38-29.68,11.9-6.86C190.35,153.81,177.77,132.2,163.8,140.27Z"/><path class="cls-3" d="M130.57,63.21a6.75,6.75,0,0,0-5.16-2.4h-6.53V58.75a4.61,4.61,0,0,0-4.59-4.61H70a4.61,4.61,0,0,0-4.59,4.61v2.06H58.85a6.77,6.77,0,0,0-6.68,7.84A35.22,35.22,0,0,0,70,93.8a46.56,46.56,0,0,0,2.92,5.9c3.47,5.87,7.79,9.93,12.54,11.9a9.94,9.94,0,0,1-7.63,10.64h0a2.17,2.17,0,0,0-1.66,2.12v10h-4a6.52,6.52,0,0,0-6.49,6.53V146a2.17,2.17,0,0,0,2.16,2.18h48.95a2.17,2.17,0,0,0,2.16-2.18v-5.16a6.52,6.52,0,0,0-6.49-6.53h-4v-10a2.17,2.17,0,0,0-1.67-2.12h0A9.93,9.93,0,0,1,99,111.5c4.67-2,8.91-6,12.33-11.81a46.58,46.58,0,0,0,2.92-5.9,35.22,35.22,0,0,0,17.79-25.15A6.75,6.75,0,0,0,130.57,63.21ZM56.45,68A2.36,2.36,0,0,1,57,66a2.44,2.44,0,0,1,1.87-.87h6.53v4A68.79,68.79,0,0,0,67.7,87.1,30.87,30.87,0,0,1,56.45,68Zm55.93,70.75a2.17,2.17,0,0,1,2.16,2.18v3H69.92v-3a2.17,2.17,0,0,1,2.16-2.18ZM104,126.53v7.81H80.43v-7.81Zm-17.92-4.35a14.4,14.4,0,0,0,1.46-1.92,14.22,14.22,0,0,0,2.23-7.47,16.87,16.87,0,0,0,4.86,0,14.38,14.38,0,0,0,3.72,9.42H86.11Zm28.43-53c0,10.73-2.45,20.78-6.89,28.3-4.24,7.17-9.75,11.12-15.52,11.12s-11.28-3.95-15.52-11.12c-4.45-7.53-6.89-17.58-6.89-28.3V58.75a.26.26,0,0,1,.26-.26h44.31a.26.26,0,0,1,.26.26ZM127.81,68A30.87,30.87,0,0,1,116.57,87.1a68.8,68.8,0,0,0,2.31-17.93v-4h6.53a2.44,2.44,0,0,1,1.87.87A2.36,2.36,0,0,1,127.81,68Z"/><path class="cls-3" d="M105.27,76.49A2.17,2.17,0,0,0,103.52,75l-6.53-1-2.92-6a2.16,2.16,0,0,0-3.88,0l-2.92,6-6.53,1a2.18,2.18,0,0,0-1.2,3.71l4.73,4.63L83.15,89.9A2.18,2.18,0,0,0,84,92a2.15,2.15,0,0,0,2.28.17l5.84-3.09L98,92.2a2.15,2.15,0,0,0,2.28-.17,2.18,2.18,0,0,0,.86-2.13L100,83.36l4.73-4.63A2.19,2.19,0,0,0,105.27,76.49ZM96.16,81A2.18,2.18,0,0,0,95.54,83l.57,3.32-3-1.57a2.15,2.15,0,0,0-2,0l-3,1.57L88.72,83A2.18,2.18,0,0,0,88.1,81l-2.4-2.35L89,78.2A2.17,2.17,0,0,0,90.65,77l1.48-3,1.48,3a2.17,2.17,0,0,0,1.63,1.19l3.32.49Z"/><path class="cls-3" d="M210.54,86.74H223.1V90.1h-8v10.72h6.52V104h-6.52V115.9h8.12v3.24H210.54Z"/><path class="cls-3" d="M225.22,86.74h4.24l5.12,23.88,4.88-23.88h4.12l-7.16,32.4h-4Z"/><path class="cls-3" d="M247,86.74h12.56V90.1h-8v10.72h6.52V104h-6.52V115.9h8.12v3.24H247Z"/><path class="cls-3" d="M263.3,86.74h3.08l9.2,21.52V86.74h3.76v32.4h-2.88L267.14,97v22.12H263.3Z"/><path class="cls-3" d="M288,90.1H282.5V86.74h15.32V90.1H292.5v29H288Z"/><path class="cls-3" d="M302.36,117a11.36,11.36,0,0,1-2.38-6.92l4-1.08a12.48,12.48,0,0,0,1.22,5,3.53,3.53,0,0,0,3.38,1.92,3.43,3.43,0,0,0,2.66-1,4,4,0,0,0,.9-2.82,6.08,6.08,0,0,0-.84-3.32,14.25,14.25,0,0,0-2.68-2.92l-5.44-4.8A9.08,9.08,0,0,1,300.8,98a10,10,0,0,1-.74-4.06,7.3,7.3,0,0,1,2-5.52,9.07,9.07,0,0,1,11.36.08q2,2,2.36,6.32l-3.84,1a10.23,10.23,0,0,0-1.1-4.38,3.41,3.41,0,0,0-3.22-1.54,3.62,3.62,0,0,0-2.64.9,3.56,3.56,0,0,0-.92,2.66,5.47,5.47,0,0,0,.48,2.42,6.47,6.47,0,0,0,1.64,2l5.48,4.8a16.3,16.3,0,0,1,3.38,4.08,9.88,9.88,0,0,1,1.26,5,7.46,7.46,0,0,1-2.16,5.64,8.76,8.76,0,0,1-11.82-.44Z"/></svg>
