<?xml version="1.0" encoding="utf-8"?>
<!-- Generator: Adobe Illustrator 21.0.0, SVG Export Plug-In . SVG Version: 6.00 Build 0)  -->
<svg version="1.1" id="Layer_1" xmlns="http://www.w3.org/2000/svg" xmlns:xlink="http://www.w3.org/1999/xlink" x="0px" y="0px"
	 viewBox="0 0 324.5 324.5" style="enable-background:new 0 0 324.5 324.5;" xml:space="preserve">
<style type="text/css">
	.st0{fill:#05DA3E;}
</style>
<path class="st0" d="M149.6,188.5c-2.1,8-4.3,15.9-6.1,24c-0.9,4,2.1,6.6,5.3,8.2c5,2.6,6.7,6.5,6.2,11.8
	c-0.7,6.8,0.5,13.6-0.8,20.4c-0.8,3.8-2.2,6.5-6.9,6.1c-4.5-0.3-6.9-3-7.1-6.9c-0.2-5.5-1.6-11.3,2-16.4c0.6-0.9,0.7-1.8-0.1-2.7
	c-1-1.1-2.2-1.3-3.6-1.1c-7.7,1.2-8.5,0.4-10.1-7.1c-1.5-7.2-0.9-14.4-1.4-21.7c-0.1-1.9-0.9-2.6-2.3-3.3c-3.4-1.9-4.2-5-3.6-8.5
	c2.2-13.3,3.5-26.6,9.3-39.1c4.2-9,3.7-19.2,3.2-29c-0.1-3-1.4-4.1-4.5-3.5c-6.6,1.2-12-0.8-16.6-5.8c-5-5.5-11-6-17.7-3.4
	c-7.1,2.8-13.6,6.9-20.8,9.6c-12.1,4.6-24.5,4.9-36.9,2.8c-12.5-2.1-24.7-2.4-37.2,2c1.2-3.4,3.7-4.3,6.4-4.6
	c10.1-0.9,20.1-1.8,30.3,0.4c18.9,4.1,35.8-2.1,51.9-11c3.2-1.8,6.2-3.7,10-4.2c4.7-0.6,8.9-0.5,12.7,3.4c3.7,3.8,8.1,7,13.4,8.5
	c2.1,0.6,4.3,1.2,6-0.9c1.7-2.1,0-3.7-0.8-5.4c-1.8-3.4-2.9-7-2.9-10.9c-0.1-7-4.5-11.6-9.6-15.6c-2-1.5-3.2-2.9-3.2-5.7
	c0-4.6-2.8-8.2-5.9-11.2c-4.7-4.4-8.4-9.4-11.5-15c-4.5-8-9.9-15.3-18-20.4c-2.5-1.6-3.8-4.1-2.8-7.2c0.6-2.1,1.3-4.4,3.8-4.8
	c3.2-0.5,5.4,1.6,6.8,4.1c5,9.2,11.5,17,20.4,22.8c4.7,3.1,8.1,7.9,10.7,13c1.1,2.2,2.4,4,5.1,4.3c4.8,0.5,8.1,3.4,11.1,7
	c1.5,1.8,3,3.6,4.6,5.2c1.5,1.5,3.3,2.4,5.3,0.7c2-1.7,2.6-3.5,1.4-6.2c-4-8.6,2.8-20.6,12.3-22c3.1-0.5,6,0.2,8.3,2.5
	c5,5,6.3,16.4,2.6,22.3c-1.1,1.9-3.4,3.6-0.3,5.9c2.8,2,5.3,4.5,8.8,1.5c3.5-3.1,7-6.2,11.1-8.5c1-0.6,2.1-1.4,3.1-1.5
	c8.7-0.6,14-6.7,19.7-12.2c4-3.8,8.7-6.6,13.6-9.3c6.9-3.8,12.8-8.4,15-16.5c0.8-3.1,3.7-2.9,6.2-3c2.7-0.1,4.3,1.3,5.4,3.6
	c0.9,1.9-0.4,2.7-1.6,3.6c-1.2,0.8-2.7,1.6-2.3,3.5c0.4,2.1,2.8,0.3,3.8,1.8c-10.2,4.4-17.9,11.9-25.2,19.8c-2.6,2.8-5.4,5.4-8.2,8
	c-4.1,3.9-9.2,6.9-11.1,13c-0.8,2.8-3.6,4.8-6.1,6.5c-8.9,6-13.2,15.2-17,24.6c-1.7,4.1,1.7,4.7,4.2,4.7c3.6,0,7.4-0.2,10.8-1.3
	c13.8-4.3,27.3-2.6,40.7,1.7c23.3,7.4,47.1,9.8,71.4,7.3c3.6-0.4,7.3-0.2,11-0.2c1.5,0,3.3,0.1,3.3,2.1c0,1.8-1.9,1.7-3.1,1.8
	c-10.9,1.1-21.9,1.8-32.9,1.6c-21.6-0.6-42.6-4.1-62.5-13.3c-3.7-1.7-7.8-1.2-11.8-0.9c-7.4,0.7-14.9,0.3-21.6,4.5
	c-2.1,1.3-5.2,1-7.8,1.5c-3.5,0.7-4.9,3-6.2,6.3c-3.7,10-5.2,20.3-3.4,30.7c1.8,10.7,3.2,21.4,4.6,32.1c0.5,3.4,0.7,6.4-3.3,7.7
	c-1.3,0.4-1.6,1.6-1.7,2.8c-0.8,10.1-3.1,20-1.8,30.3c1.2,9.2-0.8,18.3-3.9,27c-1.6,4.4-1.8,8.6-0.2,13.1c2.8,8.1,1.1,16.1-1.4,24
	c-1,3.2-3.1,5.5-7,5.1c-4.1-0.4-6.3-2.8-6.9-6.7c-1.1-7.3-1.2-15,1.7-21.7c3.7-8.4,3.3-16.7,2.7-25.3c-0.3-4.8-0.2-9.6,0.4-14.4
	c0.7-5.2,0.7-10.6-2.5-15.4c-0.4-0.6-0.6-1.6-0.5-2.4C157.1,207.7,152.4,198.3,149.6,188.5z"/>
</svg>
