<?xml version="1.0" encoding="utf-8"?>
<!-- Generator: Adobe Illustrator 21.0.0, SVG Export Plug-In . SVG Version: 6.00 Build 0)  -->
<svg version="1.1" id="Layer_1" xmlns="http://www.w3.org/2000/svg" xmlns:xlink="http://www.w3.org/1999/xlink" x="0px" y="0px"
	 viewBox="0 0 249.6 249.6" style="enable-background:new 0 0 249.6 249.6;" xml:space="preserve">
<style type="text/css">
	.st0{fill:#FE0610;}
	.st1{fill:#FE0A13;}
</style>
<path class="st0" d="M244.1,81.4c-1.3,38.3-6,70.5-24.1,99.3c-16.7,26.4-39,47.5-64,65.8c-3.6,2.6-7.4,4.8-11.9,1.7
	c-4.7-3.2-7.8-7.2-6.4-13.4c0.7-3.1,0.6-6.3-1-9.2c-0.2-0.4-0.6-0.9-0.5-1.4c1.5-12.1-2.4-24.2,0.2-36.4c1.1-5.2,1-10.6-0.4-15.8
	c-0.2-0.6-0.5-1.3-0.4-2c3.3-18.6-2.5-38,4.6-56.4c1.8-4.6,1.4-9.2-1.2-13.4c-1.2-2-1.4-4.1-0.7-6.2c1.2-3.5,3-6.7,1.8-10.9
	c-0.9-2.8,2.1-4.1,4.4-4.4c5.6-0.8,9.2-2.9,9.7-9.2c0.2-3,3.2-4.8,5.5-6.8c13.7-11.8,24.9-25.6,32.7-42.1c2.4-5.1,4.9-10.2,7.6-15.1
	c3.8-7,16.7-7.3,20.6-0.3C230.6,23.2,245.4,58.2,244.1,81.4z"/>
<path class="st1" d="M36.4,78.1c1,8.7,5.7,15.5,7.5,23.3c0.7,2.9,3.1,2.6,5.2,1.4c5.2-2.9,10.6-4.7,16.6-4.7c2.4,0,4.8-0.9,6.1-3
	c6.6-10.7,17.1-17.7,24.6-27.5c0.8-1,1.9-2.1,2.2-3.3c1.7-9.3,8.3-14.9,15.2-20.3c2.7-2.1,5.1-4.2,5.5-7.9c0.3-2.4,2-3.7,4.2-4.6
	c2.3-0.9,4.6-2,6.9-2.9c3.1-1.3,5.8-1,7.8,2.1c1.9,3,1.1,5.2-1.4,7.4c-6,5.2-11.8,10.8-17.1,16.8c-7.1,8.1-12.8,17-16.7,27
	c-4.2,11.1-11.4,19.8-21.2,26.5c-3,2.1-6,4.2-8.9,6.4c-7.3,5.8-15.5,9.1-24.9,8.7c-3.6-0.1-6.1,0.9-7.3,4.5c-0.9,2.8-3.4,3.6-6,3.4
	c-4.3-0.2-8.6-0.6-12.9-1.1c-2.6-0.3-3-2.6-2.9-4.6c0.3-5.7-2.4-8.7-8-9.3c-0.5-0.1-1.1-0.1-1.4-0.4c-1.8-1.5-5.2-2.5-3.7-5.6
	c1.5-3,4.3-1.7,6.5-0.4c6.3,3.9,13,3.3,19.8,1.9c4.1-0.8,5.4-3.3,4.4-7.3c-1.5-6-2.4-12.1-2.9-18.2C33.3,83.6,33.5,80.7,36.4,78.1z"
	/>
</svg>
