<svg id="Layer_1" data-name="Layer 1" xmlns="http://www.w3.org/2000/svg" viewBox="0 0 384.02 206.14"><defs><style>.cls-1{fill:rgb(125, 28, 0);}.cls-2{fill:rgba(255, 87, 34, 0.83);}.cls-3{fill:#fff;}</style></defs><title>reg</title><path class="cls-1" d="M213.91,55.08l70.87-40.92a12.82,12.82,0,0,1,12.82,0L365,53.1a12.82,12.82,0,0,1,6.4,11.1v77.87a12.82,12.82,0,0,1-6.41,11.1L297.59,192.1a12.82,12.82,0,0,1-12.82,0l-70.86-40.92a12.82,12.82,0,0,0-6.41-1.75H25.58a12.82,12.82,0,0,1-12.82-12.82h0v-67A12.82,12.82,0,0,1,25.58,56.79H207.5A12.82,12.82,0,0,0,213.91,55.08Z" transform="translate(0 0)"/><path class="cls-2" d="M220.22,65.87l37.21-21.44,24.31-14.08,7.45-4.3a18.24,18.24,0,0,1,1.61-.93c.32-.14.43-.21.71-.09,2.78,1.22,7.8,4.56,11.13,6.49L328,46.17,351.93,60c2,1.17,4.12,2.27,6.1,3.52l.7.4c-.79-.48,1.25,1.37,0-.36,1.48,2.1.2,1,.19.77,1,15.29,0,31,0,46.27v25.72c0,1.84.11,3.72,0,5.56v.21c0-1.14-.75,1.38.39-.28-1,1.42-.14.26-1.12.88-13.75,8.83-28.45,16.43-42.6,24.6l-20.86,12.06a27.92,27.92,0,0,1-3.44,2c1-.4-1-.35-.29-.05a12.37,12.37,0,0,1-1.51-.87c-14.7-8.77-29.66-17.13-44.49-25.69l-21.09-12.19c-5.33-3.08-10.52-5.4-16.92-5.55-29.61-.7-59.32,0-88.94,0-30.53,0-61.07-.27-91.6,0h-.77c-.25,0-.16.13.28.09,1-.08-.58-.1-.86-.22q1.29.6.16,0t.1.07c.7-.69-.24,3.92-.25-.42,0,.12.49,1.65.13.07-.44-2,.06.74,0,0s0-1.27,0-1.9V69.59c-.09,1.71-.08,0,.13-.49-.83,1.92,1.45-1.22,0,.26-.61.61.25-.1.35-.12,2-.44-.6.05-.1,0H203.21c6,0,11.35-.63,17-3.42,6-3,7.72-11.57,4.48-17.1-3.61-6.17-11-7.48-17.1-4.48-1.44.71-5,0-6.6,0H123.53c-32.3,0-64.63-.41-96.93,0-13.83.18-25.28,9.89-26.27,24C-.06,73.8.26,79.48.26,85.05c0,17-.59,34.2,0,51.23.5,14.48,11.22,25.13,25.67,25.62,3.4.12,6.82,0,10.22,0h162.7c2.59,0,6.06-.63,8.59,0,3.14.78,6.71,3.79,9.51,5.41L268.2,196.9c5,2.87,10.41,6.86,16,8.38,10.16,2.75,18.16-1.57,26.48-6.37l50.9-29.39c5.32-3.07,11.72-6,15.82-10.64,6.53-7.45,6.52-15.93,6.52-25V75.43c0-6.46.7-13.64-1.56-19.79C379,46.58,371.7,42.51,364,38L313.33,8.81C306.77,5,300.43.6,292.66,0c-8.4-.59-14.93,3.74-21.78,7.7L219.5,37.43l-11.9,6.86C193.67,52.33,206.25,73.94,220.22,65.87Z" transform="translate(0 0)"/><path class="cls-3" d="M350,109.87,334.79,94.68a5,5,0,0,0-7.07,0l0,0-3,3V61.43a5,5,0,0,0-5-5H256a5,5,0,0,0-5,5v80.42a5,5,0,0,0,5,5h28.47v8.38a5,5,0,0,0,5,5h15.19a5,5,0,0,0,3.55-1.47L349.94,117a5,5,0,0,0,.09-7.07ZM261,66.43h53.61v41.36l-28.68,28.64c-.1.1-.19.21-.29.32H261Zm41.59,83.77h-8.08v-8.08l36.75-36.74,8.08,8.08Z" transform="translate(0 0)"/><path class="cls-3" d="M50.43,90.43h5.42q4.09,0,6,1.68t1.91,5.47q0,5.19-3.33,6.28l3.82,13.5H60.63l-3.52-12.64H54.18v12.71H50.43ZM55.62,102a5.07,5.07,0,0,0,3.47-1,4.86,4.86,0,0,0,1-3.49,7.48,7.48,0,0,0-.37-2.61,2.51,2.51,0,0,0-1.3-1.4,6.19,6.19,0,0,0-2.63-.45H54.13V102Z" transform="translate(0 0)"/><path class="cls-3" d="M67.7,90.43H78.14v2.79H71.43v8.91h5.42v2.66H71.43v9.88h6.75v2.76H67.67Z" transform="translate(0 0)"/><path class="cls-3" d="M82.37,115.43q-1.63-2.31-1.63-6.87v-9a17,17,0,0,1,.69-5.13,5.75,5.75,0,0,1,2.23-3.09A7.6,7.6,0,0,1,88,90.26q3.72,0,5.37,1.9t1.65,6v1H91.43v-.83a14.58,14.58,0,0,0-.23-3,2.52,2.52,0,0,0-1-1.58A3.81,3.81,0,0,0,88,93.22a3,3,0,0,0-3.33,2.62A18.69,18.69,0,0,0,84.44,99v10a9.68,9.68,0,0,0,.75,4.44,3.66,3.66,0,0,0,5.76-.11,10.49,10.49,0,0,0,.78-4.69v-1.86H88.3v-2.66h6.82v13.28H92.76l-.37-3.09a4.74,4.74,0,0,1-4.79,3.42Q84,117.72,82.37,115.43Z" transform="translate(0 0)"/><path class="cls-3" d="M99.23,90.43h3.69v27H99.23Z" transform="translate(0 0)"/><path class="cls-3" d="M108.43,115.59a9.43,9.43,0,0,1-2-5.75l3.33-.9a10.37,10.37,0,0,0,1,4.19,2.93,2.93,0,0,0,2.81,1.6,2.86,2.86,0,0,0,2.21-.81,3.35,3.35,0,0,0,.75-2.34,5,5,0,0,0-.7-2.76,11.86,11.86,0,0,0-2.17-2.39l-4.52-4a7.55,7.55,0,0,1-2-2.58,8.26,8.26,0,0,1-.62-3.37,6.07,6.07,0,0,1,1.7-4.59,7.52,7.52,0,0,1,9.44.07,8.56,8.56,0,0,1,2,5.25l-3.19.86a8.51,8.51,0,0,0-.91-3.64,2.84,2.84,0,0,0-2.68-1.28,2.65,2.65,0,0,0-3,3,4.55,4.55,0,0,0,.4,2,5.38,5.38,0,0,0,1.36,1.65l4.56,4a13.56,13.56,0,0,1,2.81,3.39,8.22,8.22,0,0,1,1,4.16,6.2,6.2,0,0,1-1.8,4.69,7.23,7.23,0,0,1-9.83-.41Z" transform="translate(0 0)"/><path class="cls-3" d="M126,93.25h-4.53V90.43h12.74v2.79h-4.42v24.21H126Z" transform="translate(0 0)"/><path class="cls-3" d="M136.73,90.43h10.44v2.79h-6.68v8.91h5.42v2.66h-5.42v9.88h6.75v2.76H136.73Z" transform="translate(0 0)"/><path class="cls-3" d="M150.27,90.43h5.42q4.09,0,6,1.68t1.91,5.47q0,5.19-3.33,6.28l3.82,13.5h-3.66l-3.52-12.64H154v12.71h-3.76Zm5.19,11.6a5.07,5.07,0,0,0,3.47-1,4.86,4.86,0,0,0,1-3.49,7.48,7.48,0,0,0-.37-2.61,2.51,2.51,0,0,0-1.3-1.4,6.19,6.19,0,0,0-2.63-.45H154V102Z" transform="translate(0 0)"/></svg>
