<svg id="Layer_1" data-name="Layer 1" xmlns="http://www.w3.org/2000/svg" viewBox="0 0 384.02 206.14"><defs><style>.cls-1{fill:#2d3e50;}.cls-2{fill:rgb(0, 255, 202);}.cls-3{fill:#fff;}</style></defs><title>shows</title><path class="cls-1" d="M213.91,55.08l70.87-40.92a12.82,12.82,0,0,1,12.82,0L365,53.1a12.82,12.82,0,0,1,6.4,11.1v77.87a12.82,12.82,0,0,1-6.41,11.1L297.59,192.1a12.82,12.82,0,0,1-12.82,0l-70.86-40.92a12.82,12.82,0,0,0-6.41-1.75H25.58a12.82,12.82,0,0,1-12.82-12.82h0v-67A12.82,12.82,0,0,1,25.58,56.79H207.5A12.82,12.82,0,0,0,213.91,55.08Z" transform="translate(0 0)"/><path class="cls-2" d="M220.22,65.87l37.21-21.44,24.31-14.08,7.45-4.3a18.24,18.24,0,0,1,1.61-.93c.32-.14.43-.21.71-.09,2.78,1.22,7.8,4.56,11.13,6.49L328,46.17,351.93,60c2,1.17,4.12,2.27,6.1,3.52l.7.4c-.79-.48,1.25,1.37,0-.36,1.48,2.1.2,1,.19.77,1,15.29,0,31,0,46.27v25.72c0,1.84.11,3.72,0,5.56v.21c0-1.14-.75,1.38.39-.28-1,1.42-.14.26-1.12.88-13.75,8.83-28.45,16.43-42.6,24.6l-20.86,12.06a27.92,27.92,0,0,1-3.44,2c1-.4-1-.35-.29-.05a12.37,12.37,0,0,1-1.51-.87c-14.7-8.77-29.66-17.13-44.49-25.69l-21.09-12.19c-5.33-3.08-10.52-5.4-16.92-5.55-29.61-.7-59.32,0-88.94,0-30.53,0-61.07-.27-91.6,0h-.77c-.25,0-.16.13.28.09,1-.08-.58-.1-.86-.22q1.29.6.16,0t.1.07c.7-.69-.24,3.92-.25-.42,0,.12.49,1.65.13.07-.44-2,.06.74,0,0s0-1.27,0-1.9V69.59c-.09,1.71-.08,0,.13-.49-.83,1.92,1.45-1.22,0,.26-.61.61.25-.1.35-.12,2-.44-.6.05-.1,0H203.21c6,0,11.35-.63,17-3.42,6-3,7.72-11.57,4.48-17.1-3.61-6.17-11-7.48-17.1-4.48-1.44.71-5,0-6.6,0H123.53c-32.3,0-64.63-.41-96.93,0-13.83.18-25.28,9.89-26.27,24C-.06,73.8.26,79.48.26,85.05c0,17-.59,34.2,0,51.23.5,14.48,11.22,25.13,25.67,25.62,3.4.12,6.82,0,10.22,0h162.7c2.59,0,6.06-.63,8.59,0,3.14.78,6.71,3.79,9.51,5.41L268.2,196.9c5,2.87,10.41,6.86,16,8.38,10.16,2.75,18.16-1.57,26.48-6.37l50.9-29.39c5.32-3.07,11.72-6,15.82-10.64,6.53-7.45,6.52-15.93,6.52-25V75.43c0-6.46.7-13.64-1.56-19.79C379,46.58,371.7,42.51,364,38L313.33,8.81C306.77,5,300.43.6,292.66,0c-8.4-.59-14.93,3.74-21.78,7.7L219.5,37.43l-11.9,6.86C193.67,52.33,206.25,73.94,220.22,65.87Z" transform="translate(0 0)"/><path class="cls-3" d="M69.24,116.45A10.79,10.79,0,0,1,67,109.87l3.8-1a11.86,11.86,0,0,0,1.16,4.79,3.35,3.35,0,0,0,3.21,1.82,3.26,3.26,0,0,0,2.53-.93,3.83,3.83,0,0,0,.85-2.68,5.77,5.77,0,0,0-.8-3.15,13.54,13.54,0,0,0-2.55-2.77L70,101.36a8.62,8.62,0,0,1-2.26-2.94,9.44,9.44,0,0,1-.7-3.86A6.93,6.93,0,0,1,69,89.32a7.31,7.31,0,0,1,5.28-1.86,7.3,7.3,0,0,1,5.51,1.94q1.86,1.94,2.24,6l-3.65,1a9.71,9.71,0,0,0-1-4.16,3.24,3.24,0,0,0-3.06-1.46,3.44,3.44,0,0,0-2.51.86,3.38,3.38,0,0,0-.87,2.53,5.2,5.2,0,0,0,.46,2.3,6.13,6.13,0,0,0,1.56,1.88l5.21,4.56a15.52,15.52,0,0,1,3.21,3.88,9.39,9.39,0,0,1,1.2,4.75,7.09,7.09,0,0,1-2.05,5.36,7.35,7.35,0,0,1-5.32,2A7.32,7.32,0,0,1,69.24,116.45Z" transform="translate(0 0)"/><path class="cls-3" d="M85.87,87.72h4.29V101h7.9V87.72h4.29V118.5H98.07V104.1h-7.9v14.4H85.87Z" transform="translate(0 0)"/><path class="cls-3" d="M108.57,116.28q-2-2.57-2-7.43V97.18q0-4.79,2-7.26t6.46-2.47q4.48,0,6.44,2.49t2,7.24v11.7q0,4.79-2,7.37t-6.42,2.58Q110.53,118.84,108.57,116.28Zm9.71-2.22a8.54,8.54,0,0,0,.84-4.26V96.31a8.1,8.1,0,0,0-.84-4.16q-.84-1.35-3.23-1.35t-3.27,1.35a8.09,8.09,0,0,0-.84,4.16V109.8a8.52,8.52,0,0,0,.84,4.26q.83,1.41,3.27,1.41T118.28,114.05Z" transform="translate(0 0)"/><path class="cls-3" d="M126.64,87.72h3.57l3.31,22.12,4.14-22h3L144.88,110l3.23-22.23h3.5l-4.94,30.78h-3.12l-4.29-22.8-4.33,22.8h-3.27Z" transform="translate(0 0)"/><path class="cls-3" d="M156.72,116.45a10.79,10.79,0,0,1-2.26-6.57l3.8-1a11.86,11.86,0,0,0,1.16,4.79,3.35,3.35,0,0,0,3.21,1.82,3.26,3.26,0,0,0,2.53-.93,3.83,3.83,0,0,0,.85-2.68,5.77,5.77,0,0,0-.8-3.15,13.54,13.54,0,0,0-2.55-2.77l-5.17-4.56a8.62,8.62,0,0,1-2.26-2.94,9.44,9.44,0,0,1-.7-3.86,6.93,6.93,0,0,1,1.94-5.24,8.61,8.61,0,0,1,10.79.08q1.86,1.94,2.24,6l-3.65,1a9.71,9.71,0,0,0-1-4.16,3.24,3.24,0,0,0-3.06-1.46,3.44,3.44,0,0,0-2.51.86,3.38,3.38,0,0,0-.87,2.53,5.2,5.2,0,0,0,.46,2.3,6.13,6.13,0,0,0,1.56,1.88l5.21,4.56a15.52,15.52,0,0,1,3.21,3.88,9.39,9.39,0,0,1,1.2,4.75,7.09,7.09,0,0,1-2.05,5.36,8.33,8.33,0,0,1-11.23-.42Z" transform="translate(0 0)"/><path class="cls-3" d="M343,114.62l-1.17-8.87a1.91,1.91,0,0,0-2.13-1.54c-3.87.36-7.4-2.19-7.86-5.69s2.3-6.73,6.16-7.2a1.8,1.8,0,0,0,1.67-2l-1.17-8.87a5.64,5.64,0,0,0-2.39-3.86,6.84,6.84,0,0,0-4.71-1.2L263,82.81a6.55,6.55,0,0,0-4.23,2.13h-9c-3.53,0-6.39,2.59-6.39,5.78v8.94a1.86,1.86,0,0,0,1.91,1.76c3.89.06,7.06,3,7.06,6.49s-3.17,6.43-7.06,6.49a1.86,1.86,0,0,0-1.91,1.76v8.94c0,3.19,2.87,5.78,6.39,5.78h68.88c3.53,0,6.39-2.59,6.39-5.78v-2.72L337.36,121a6.54,6.54,0,0,0,4.27-2.17A5.36,5.36,0,0,0,343,114.62Zm-21.88,4.64v5.84a2.39,2.39,0,0,1-2.5,2.26H306.5v-3.3a2,2,0,0,0-3.89,0v3.3H249.7a2.39,2.39,0,0,1-2.5-2.26v-7.36a11.41,11.41,0,0,0,5.79-2.81,9.34,9.34,0,0,0,0-14,11.41,11.41,0,0,0-5.79-2.81V90.72a2.39,2.39,0,0,1,2.5-2.26h52.91V109.9a2,2,0,0,0,3.89,0V88.46h12.07a2.39,2.39,0,0,1,2.5,2.26v7.36a11.41,11.41,0,0,0-5.79,2.81,9.34,9.34,0,0,0,0,14,11.41,11.41,0,0,0,5.79,2.81v1.51Zm17.49-2.55a2.56,2.56,0,0,1-1.67.85L325,118.83v-2.67a1.86,1.86,0,0,0-1.91-1.76c-3.89-.06-7.06-3-7.06-6.49s3.17-6.43,7.06-6.49A1.86,1.86,0,0,0,325,99.65V90.72c0-3.19-2.87-5.78-6.39-5.78h-42.5l55.73-6a2.67,2.67,0,0,1,1.84.47,2.2,2.2,0,0,1,.94,1.51l1,7.3a11.08,11.08,0,0,0-5.38,3.41,9.28,9.28,0,0,0-2.24,7.32,9.76,9.76,0,0,0,4.08,6.63,11.7,11.7,0,0,0,6.12,2.17l1,7.3A2.09,2.09,0,0,1,338.57,116.7Z" transform="translate(0 0)"/><path class="cls-3" d="M306.35,116.3a1.79,1.79,0,0,0-.42-.57,1.93,1.93,0,0,0-.3-.22,2,2,0,0,0-.34-.16,2.13,2.13,0,0,0-.36-.1,2.21,2.21,0,0,0-.76,0,2.18,2.18,0,0,0-.36.1,1.92,1.92,0,0,0-.33.16,1.84,1.84,0,0,0-.3.22,1.75,1.75,0,0,0-.42.57,1.71,1.71,0,0,0-.11.33,1.61,1.61,0,0,0,0,.69,1.65,1.65,0,0,0,.11.33,1.69,1.69,0,0,0,.18.3,1.74,1.74,0,0,0,.24.27,1.84,1.84,0,0,0,.3.22,2.05,2.05,0,0,0,.33.16,2,2,0,0,0,.36.1,2.08,2.08,0,0,0,.76,0,2,2,0,0,0,.36-.1,2.15,2.15,0,0,0,.34-.16,1.93,1.93,0,0,0,.3-.22,1.73,1.73,0,0,0,.24-.27,1.69,1.69,0,0,0,.18-.3,1.65,1.65,0,0,0,.11-.33,1.53,1.53,0,0,0,0-.69A1.71,1.71,0,0,0,306.35,116.3Z" transform="translate(0 0)"/><path class="cls-3" d="M290.4,103.35l-8.55-1.12-3.83-7a2,2,0,0,0-3.49,0l-3.37,6.17-.46.84-3.24.43-5.32.7a1.91,1.91,0,0,0-1.57,1.2,1.65,1.65,0,0,0,.49,1.8l5.15,4.54,1,.91-.59,3.1-.87,4.6a1.69,1.69,0,0,0,.77,1.72,2.12,2.12,0,0,0,2.05.13l7.65-3.64,7.65,3.64a2.11,2.11,0,0,0,.91.2,2.09,2.09,0,0,0,1.14-.34,1.69,1.69,0,0,0,.77-1.72l-1.46-7.7,6.19-5.46a1.65,1.65,0,0,0,.49-1.8A1.91,1.91,0,0,0,290.4,103.35Zm-8.56,6.58a1.66,1.66,0,0,0-.56,1.56l1,5.1-5.06-2.41a2.13,2.13,0,0,0-1.81,0l-5.06,2.41,1-5.1a1.59,1.59,0,0,0,0-.78,1.73,1.73,0,0,0-.51-.78l-2.4-2.11-1.7-1.5,2-.26,3.7-.49.17,0a1.92,1.92,0,0,0,1.29-.93l2.53-4.64,2.53,4.64a1.94,1.94,0,0,0,1.47,1l5.66.74Z" transform="translate(0 0)"/></svg>
