<?xml version="1.0" encoding="iso-8859-1"?>
<!-- Generator: Adobe Illustrator 19.0.0, SVG Export Plug-In . SVG Version: 6.00 Build 0)  -->
<svg xmlns="http://www.w3.org/2000/svg" xmlns:xlink="http://www.w3.org/1999/xlink" version="1.1" id="Capa_1" x="0px" y="0px" viewBox="0 0 480 480" style="enable-background:new 0 0 480 480;" xml:space="preserve" width="512px" height="512px">
<g>
	<g>
		<path d="M319.176,300.448C317.824,297.728,315.04,296,312,296h-50.408l33.4-60.12c1.376-2.48,1.344-5.504-0.096-7.936    c-1.432-2.44-4.064-3.944-6.896-3.944h-88c-3.944,0-7.304,2.88-7.904,6.784l-16,104c-0.36,2.312,0.312,4.656,1.832,6.432    c1.52,1.768,3.736,2.784,6.072,2.784h36.696l-44.24,125.336c-1.304,3.72,0.28,7.832,3.736,9.704c1.2,0.648,2.504,0.96,3.8,0.96    c2.432,0,4.816-1.112,6.376-3.152l128-168C320.2,306.424,320.52,303.168,319.176,300.448z M208.48,426.664l31.064-88    c0.856-2.456,0.488-5.168-1.016-7.28C237.032,329.256,234.592,328,232,328h-38.672l13.536-88H274.4L241,300.12    c-1.376,2.48-1.344,5.504,0.096,7.936c1.44,2.44,4.072,3.944,6.904,3.944h47.84L208.48,426.664z" fill="#FFFFFF"/>
	</g>
</g>
<g>
	<g>
		<path d="M390.544,89.168C376.568,37.984,326.552,0,272,0c-51.464,0-95.096,35.232-110.24,88.296    c-32.424,2.584-60.464,21.344-71.352,47.656c-0.016,0-0.04,0-0.056,0L88,136c-50.168,0-88,37.832-88,88c0,52.936,39.48,96,88,96    h80v-16H88c-39.032,0-72-36.632-72-80c0-41.72,30.28-72,72-72c0.888,0,1.832-0.024,2.816-0.056    c1.504-0.04,3.072-0.112,4.432,0.016c3.624,0.488,7.288-1.976,8.408-5.608c7.504-24.44,34.024-41.848,64.488-42.352    c3.648-0.064,6.792-2.576,7.648-6.136C185.576,57.12,219.128,16,272,16c49.032,0,93.832,35.144,104.184,81.736    c0.704,3.152,3.216,5.56,6.384,6.144C431.272,112.72,464,151.352,464,200c0,55.192-43.208,101.848-96,104h-32v16l32.328-0.008    C429.904,317.496,480,263.664,480,200C480,145.976,443.48,101.104,390.544,89.168z" fill="#FFFFFF"/>
	</g>
</g>
<g>
</g>
<g>
</g>
<g>
</g>
<g>
</g>
<g>
</g>
<g>
</g>
<g>
</g>
<g>
</g>
<g>
</g>
<g>
</g>
<g>
</g>
<g>
</g>
<g>
</g>
<g>
</g>
<g>
</g>
</svg>
