<svg id="Capa_1" data-name="Capa 1" preserveAspectRatio="none" xmlns="http://www.w3.org/2000/svg" viewBox="0 0 209.22 527.01"><defs><style>.cls-1{fill:#ffb4a9;}.cls-2{fill:#ffa754;}.cls-3{fill:#ffd9d4;}.cls-4{fill:#ffcb63;}.cls-5{fill:#ff4128;}.cls-6{fill:#ff6337;}</style></defs><title>swimsuit</title><path class="cls-1" d="M104.94,85.51v80a45,45,0,0,0,42.43-60Z"/><path class="cls-2" d="M104.94,75.51l14.14,30h28.29A45,45,0,0,0,104.94,75.51Z"/><path class="cls-3" d="M62.51,105.51a45,45,0,0,0,42.43,60c8.28,0,15-20.15,15-45a128.75,128.75,0,0,0-.86-15l-14.14-20Z"/><path class="cls-4" d="M104.94,75.51a45,45,0,0,0-42.43,30h56.57C117,88,111.47,75.51,104.94,75.51Z"/><path class="cls-4" d="M120.74,40.51a17.47,17.47,0,0,0-31.59,0,17.5,17.5,0,0,0,0,35h31.59a17.5,17.5,0,0,0,0-35Z"/><path d="M52.44,120.51A52.5,52.5,0,1,0,135.71,78a25,25,0,0,0-10.51-44.6,24.95,24.95,0,0,0-40.53,0A25,25,0,0,0,74.17,78,52.45,52.45,0,0,0,52.44,120.51Zm52.5,37.5A37.51,37.51,0,0,1,68.2,113h73.49a37.51,37.51,0,0,1-36.75,45ZM75,98a37.46,37.46,0,0,1,60,0ZM89.15,68a10,10,0,0,1,0-20,7.5,7.5,0,0,0,6.77-4.28,10,10,0,0,1,18,0A7.5,7.5,0,0,0,120.74,48a10,10,0,0,1,0,20Z"/><polygon class="cls-1" points="104.94 322.51 149.94 307.51 149.94 247.51 104.94 232.51 104.94 322.51"/><polygon class="cls-3" points="119.94 322.51 59.94 307.51 59.94 247.51 119.94 232.51 119.94 322.51"/><path class="cls-5" d="M104.94,352.51a45,45,0,0,0,45-45h-30Z"/><path class="cls-5" d="M129.94,187.51h-30l20,60h30v-40A20,20,0,0,0,129.94,187.51Z"/><path class="cls-6" d="M59.94,307.51a45,45,0,0,0,45,45c8.28,0,15-20.15,15-45Z"/><path class="cls-6" d="M119.94,207.51a20,20,0,0,0-20-20h-20a20,20,0,0,0-20,20v40h60Z"/><path d="M52.93,314.56A52.36,52.36,0,0,0,67.44,344.2V504.1l-24.87,8.29a7.5,7.5,0,1,0,4.74,14.23l30-10a7.5,7.5,0,0,0,5.13-7.11V354.93a52.41,52.41,0,0,0,45,0V509.51a7.5,7.5,0,0,0,5.13,7.11l30,10a7.5,7.5,0,1,0,4.74-14.23l-24.87-8.29V344.2a52.32,52.32,0,0,0,15-36.69V214.72l-1.12-15A27.54,27.54,0,0,0,129.94,180h-50a27.55,27.55,0,0,0-26.56,20.38M67.44,255h75v45h-75Zm12.5-60h50a12.51,12.51,0,0,1,12.5,12.5V240h-75v-32.5A12.51,12.51,0,0,1,79.94,195Zm-27.5,20.68v83.65M68.2,315h73.49a37.5,37.5,0,0,1-73.49,0Z"/><path d="M157.78,215.5l35.56-33c6.28-5.82,12.88-11.3,15.07-20.07,1.78-7.13.43-13.65-2.12-20.22L167,41.15,153.62,6.61c-1.76-4.53-6-7.67-11.07-6.29-4.32,1.19-8.06,6.52-6.29,11.07l32.13,82.73,18.44,47.49c1.19,3.06,2.5,6.1,3.57,9.2,2.59,7.47-1.87,11.65-6.82,16.23L145,202.77c-8.51,7.89,4.24,20.6,12.73,12.73Z"/><path d="M64.22,203.77,29.8,171.87c-4.28-4-11.54-8.79-11.85-15.08-.17-3.53,1.84-7.34,3.1-10.59L60.22,45.32,73,12.4c1.76-4.53-1.94-9.88-6.29-11.07-5.09-1.4-9.3,1.74-11.07,6.29L22.46,93.09,4.26,140a75.76,75.76,0,0,0-3.44,9.37c-3,12.39,2.51,22.56,11.3,30.7L51.49,216.5c8.49,7.87,21.25-4.83,12.73-12.73Z"/></svg>