<?xml version="1.0" encoding="iso-8859-1"?>
<!-- Generator: Adobe Illustrator 19.0.0, SVG Export Plug-In . SVG Version: 6.00 Build 0)  -->
<svg version="1.1" id="Layer_1" preserveAspectRatio="none" xmlns="http://www.w3.org/2000/svg" xmlns:xlink="http://www.w3.org/1999/xlink" x="0px" y="0px"
	 viewBox="0 0 400.005 400.005" style="enable-background:new 0 0 400.005 400.005;" xml:space="preserve">
<g transform="translate(0 -1020.36)" shape-rendering="auto" image-rendering="auto" color-rendering="auto" color-interpolation="sRGB">
	<path style="fill:#EE746C;" d="M192.034,1084.33h15.938c4.572,0,8.031,3.457,8.031,8.031v328h-32v-328
		C184.002,1087.791,187.461,1084.33,192.034,1084.33z"/>
	<path style="fill:#FB9761;" d="M200.342,1089.328c-4.572,0-8.031,3.459-8.031,8.031v323h32v-323c0-4.574-3.46-8.031-8.031-8.031
		H200.342L200.342,1089.328z"/>
	<path style="fill:#EE746C;" d="M320.034,1084.33h15.938c4.572,0,8.031,3.457,8.031,8.031v328h-32v-328
		C312.003,1087.791,315.462,1084.33,320.034,1084.33z"/>
	<path style="fill:#FB9761;" d="M328.342,1089.328c-4.572,0-8.031,3.459-8.031,8.031v323h32v-323c0-4.574-3.46-8.031-8.031-8.031
		H328.342z"/>
	<path style="fill:#EE746C;" d="M64.034,1084.33h15.938c4.572,0,8.031,3.457,8.031,8.031v328h-32v-328
		C56.002,1087.791,59.461,1084.33,64.034,1084.33z"/>
	<path style="fill:#FB9761;" d="M72.342,1089.328c-4.572,0-8.031,3.459-8.031,8.031v323h32v-323c0-4.574-3.46-8.031-8.031-8.031
		H72.342z"/>
	<g>
		<path style="fill:#5A3392;" d="M63.971,1068.406c-13.158,0-23.969,10.811-23.969,23.969v327.99H55.94v-327.99
			c0-4.572,3.459-8.031,8.031-8.031h15.938c4.572,0,8.031,3.459,8.031,8.031v327.99h16.062v-327.99
			c0-13.158-10.936-23.969-24.093-23.969H63.971z"/>
		<path style="fill:#5A3392;" d="M319.971,1068.406c-13.158,0-23.969,10.811-23.969,23.969v327.99h15.938v-327.99
			c0-4.572,3.459-8.031,8.031-8.031h15.938c4.572,0,8.031,3.459,8.031,8.031v327.99h16.063v-327.99
			c0-13.158-10.936-23.969-24.094-23.969H319.971z"/>
		<path style="fill:#5A3392;" d="M191.971,1068.406c-13.158,0-23.968,10.811-23.968,23.969v327.99h15.938v-327.99
			c0-4.572,3.459-8.031,8.031-8.031h15.938c4.572,0,8.031,3.459,8.031,8.031v327.99h16.063v-327.99
			c0-13.158-10.936-23.969-24.094-23.969H191.971z"/>
	</g>
	<path style="fill:#29A3EC;" d="M104.041,1036.396h64.016v16.061h-64.016V1036.396z"/>
	<path style="fill:#5A3392;" d="M63.294,1036.396c-4.433,0.277-7.803,4.094-7.526,8.527c0.272,4.365,3.984,7.711,8.354,7.533h31.772
		c4.436-0.047,7.992-3.682,7.945-8.117c-0.047-4.367-3.577-7.896-7.945-7.943H64.122
		C63.846,1036.382,63.57,1036.382,63.294,1036.396z"/>
	<path style="fill:#3CDEF6;" d="M110.229,1039.576h64.016v16.063h-64.016V1039.576z"/>
	<path style="fill:#29A3EC;" d="M295.971,1036.425h-64.016v15.943h64.015L295.971,1036.425L295.971,1036.425z"/>
	<g>
		<path style="fill:#5A3392;" d="M303.294,1036.425c-4.388,0.52-7.524,4.498-7.004,8.885c0.472,3.984,3.821,7.002,7.832,7.059
			h31.772c4.403,0.371,8.273-2.898,8.644-7.301s-2.898-8.271-7.302-8.643c-0.447-0.037-0.896-0.037-1.342,0h-31.772
			C303.846,1036.412,303.57,1036.412,303.294,1036.425z"/>
		<path style="fill:#5A3392;" d="M183.294,1036.425c-4.388,0.52-7.524,4.498-7.004,8.885c0.472,3.984,3.821,7.002,7.832,7.059
			h31.772c4.403,0.371,8.273-2.898,8.644-7.301s-2.898-8.271-7.302-8.643c-0.447-0.037-0.896-0.037-1.342,0h-31.772
			C183.846,1036.412,183.57,1036.412,183.294,1036.425L183.294,1036.425z"/>
	</g>
	<path style="fill:#3CDEF6;" d="M302.158,1039.607h-64.015v15.943h64.015V1039.607z"/>
	<g>
		<path style="fill:#5A3392;" d="M95.186,1020.453c-4.075,0.4-7.19,3.812-7.219,7.906v32c-0.017,4.418,3.551,8.014,7.969,8.031
			c0.021,0,0.041,0,0.062,0h79.969c4.419,0.018,8.014-3.551,8.031-7.969c0-0.021,0-0.041,0-0.063v-32
			c-0.051-4.394-3.637-7.924-8.031-7.907H95.998C95.728,1020.438,95.456,1020.438,95.186,1020.453L95.186,1020.453z M104.03,1036.39
			h64.031v16.063H104.03V1036.39z"/>
		<path style="fill:#5A3392;" d="M224.03,1020.36c-4.419-0.017-8.014,3.552-8.031,7.97c0,0.02,0,0.041,0,0.061v32
			c-0.017,4.418,3.551,8.014,7.969,8.031c0.021,0,0.041,0,0.062,0h79.969c4.419,0.018,8.014-3.551,8.031-7.969
			c0-0.021,0-0.041,0-0.063v-32c0.017-4.418-3.552-8.014-7.97-8.03c-0.02,0-0.041,0-0.061,0H224.03z M231.967,1036.422h64v15.938
			h-64V1036.422z"/>
	</g>
</g>
<g>
</g>
<g>
</g>
<g>
</g>
<g>
</g>
<g>
</g>
<g>
</g>
<g>
</g>
<g>
</g>
<g>
</g>
<g>
</g>
<g>
</g>
<g>
</g>
<g>
</g>
<g>
</g>
<g>
</g>
</svg>
