<?xml version="1.0" encoding="iso-8859-1"?>
<!-- Generator: Adobe Illustrator 19.0.0, SVG Export Plug-In . SVG Version: 6.00 Build 0)  -->
<svg xmlns="http://www.w3.org/2000/svg" xmlns:xlink="http://www.w3.org/1999/xlink" version="1.1" id="Capa_1" x="0px" y="0px" viewBox="0 0 64 64" style="enable-background:new 0 0 64 64;" preserveAspectRatio="none" xml:space="preserve" width="512px" height="512px">
<g id="Badminton_1_">
	<path id="Badminton" d="M63.372,29.341c-0.067-0.027-6.818-2.751-9.073-5.006c-2.25-2.25-4.897-8.921-4.924-8.988   c-0.101-0.255-0.301-0.457-0.555-0.56c-0.068-0.028-6.875-2.806-9.155-5.086c-2.277-2.278-4.979-9.004-5.006-9.072   c-0.146-0.365-0.492-0.611-0.885-0.628c-0.392-0.015-0.759,0.197-0.937,0.548L12.404,40.98l-1.934-1.934   c-0.252-0.253-0.618-0.352-0.966-0.259c-2.172,0.581-4.16,1.729-5.749,3.319C1.333,44.527,0,47.748,0,51.176   c0,3.428,1.333,6.649,3.755,9.07C6.176,62.666,9.396,64,12.824,64c3.429,0,6.649-1.333,9.07-3.754   c1.59-1.59,2.737-3.579,3.318-5.75c0.093-0.345-0.006-0.713-0.259-0.965l-1.862-1.862L63.453,31.16   c0.35-0.178,0.564-0.544,0.546-0.936C63.981,29.832,63.736,29.487,63.372,29.341z M33.655,3.366   c1.037,2.311,2.861,6.014,4.596,7.749c1.873,1.873,6.078,3.888,8.332,4.889l-3.444,3.444L31.44,7.749L33.655,3.366z M49.313,28.449   l5.074,5.074L21.607,50.18l-0.968-0.967C20.639,49.213,49.253,28.659,49.313,28.449z M19.205,47.779l-0.883-0.884   c0.159-0.045,0.312-0.115,0.438-0.24l24.38-24.38l4.952,4.952C47.985,27.258,19.205,47.779,19.205,47.779z M17.345,45.241   c-0.125,0.126-0.196,0.278-0.24,0.438l-0.884-0.883c0,0,20.521-28.781,20.551-28.887l4.953,4.953L17.345,45.241z M30.491,9.628   l5.06,5.06c-0.21,0.06-20.764,28.675-20.764,28.675l-0.894-0.894L30.491,9.628z M20.48,58.831c-4.221,4.223-11.091,4.22-15.311,0   C3.125,56.788,2,54.069,2,51.176c0-2.894,1.125-5.612,3.169-7.656c1.207-1.208,2.688-2.113,4.307-2.64L23.12,54.524   C22.594,56.144,21.688,57.623,20.48,58.831z M56.263,32.571l-11.71-11.709l3.475-3.475c0.008-0.008,0.01-0.018,0.018-0.026   c0.93,2.163,2.93,6.481,4.839,8.389c1.721,1.72,5.442,3.554,7.758,4.596L56.263,32.571z" fill="#FFFFFF"/>
</g>
<g>
</g>
<g>
</g>
<g>
</g>
<g>
</g>
<g>
</g>
<g>
</g>
<g>
</g>
<g>
</g>
<g>
</g>
<g>
</g>
<g>
</g>
<g>
</g>
<g>
</g>
<g>
</g>
<g>
</g>
</svg>
