<?xml version="1.0" encoding="iso-8859-1"?>
<!-- Generator: Adobe Illustrator 19.0.0, SVG Export Plug-In . SVG Version: 6.00 Build 0)  -->
<svg xmlns="http://www.w3.org/2000/svg" preserveAspectRatio="none" xmlns:xlink="http://www.w3.org/1999/xlink" version="1.1" id="Capa_1" x="0px" y="0px" viewBox="0 0 64.001 64.001" style="enable-background:new 0 0 64.001 64.001;" xml:space="preserve" width="512px" height="512px">
<g id="Boxing-gloves">
	<path d="M64.001,24.29c0-9.193-0.92-17.454-12.033-17.564l-1.341-0.014C42.3,6.614,38.859,6.579,35.654,11.605   c-1.883,2.955-3.488,7.489-1.813,10.542c1.144,2.086,3.524,3.143,7.074,3.143h10.979c0.574,0.069,3.92,0.375,5.517-1.71   c1.107-1.444,1.067-3.568-0.117-6.313c-0.219-0.507-0.81-0.74-1.314-0.521c-0.507,0.219-0.74,0.807-0.521,1.314   c0.602,1.393,1.153,3.27,0.368,4.3c-0.829,1.086-2.972,1.047-3.723,0.94c-0.048-0.007-0.097-0.01-0.145-0.01H40.915   c-2.765,0-4.555-0.708-5.321-2.105c-1.173-2.14,0.032-5.813,1.747-8.505c2.608-4.088,5.085-4.058,13.264-3.969l1.344,0.015   C58.615,8.792,62,11.217,62,24.29c0,8.644-4.093,18.61-5.171,21.085H41.413c-2.511-3.392-7.435-11.631-4.208-14.857   c1.204-1.206,2.401-1.694,3.382-1.369c0.844,0.28,1.319,1.074,1.416,1.738c0.051,0.348,0.047,0.995-0.557,1.417   c-1.686,1.18-1.633,2.525-1.532,3.048c0.183,0.948,0.932,1.708,1.908,1.937c1.152,0.273,2.353-0.235,3.201-1.352   c0.334-0.439,0.249-1.067-0.19-1.401c-0.442-0.333-1.068-0.248-1.401,0.191c-0.363,0.478-0.784,0.699-1.154,0.615   c-0.209-0.049-0.365-0.193-0.4-0.368c-0.056-0.289,0.219-0.684,0.715-1.031c1.067-0.747,1.587-1.997,1.39-3.345   c-0.228-1.551-1.313-2.865-2.767-3.347c-1.003-0.333-3.037-0.533-5.425,1.853c-4.906,4.906,2.716,15.705,4.124,17.605v9.605   c0,0.552,0.447,1,1,1h16.564c0.553,0,1-0.448,1-1v-9.72C59.233,44.931,64.001,34.033,64.001,24.29z M56.479,47.375v2.969h-14.46   c-0.037,0-0.068,0.017-0.104,0.021v-2.99H56.479z M41.915,55.314v-2.99c0.036,0.004,0.067,0.021,0.104,0.021h14.46v2.969H41.915z" fill="#FFFFFF"/>
	<path d="M13.374,6.711l-1.341,0.014C0.92,6.836,0,15.097,0,24.29c0,9.743,4.767,20.641,5.522,22.304v9.72c0,0.552,0.448,1,1,1   h16.565c0.553,0,1-0.448,1-1v-9.605c1.408-1.9,9.029-12.699,4.124-17.605c-2.386-2.385-4.422-2.186-5.426-1.853   c-1.453,0.482-2.539,1.795-2.766,3.347c-0.197,1.348,0.322,2.599,1.39,3.345c0.496,0.347,0.769,0.743,0.714,1.031   c-0.034,0.174-0.191,0.319-0.399,0.368c-0.369,0.085-0.792-0.138-1.154-0.615c-0.334-0.439-0.962-0.525-1.401-0.19   c-0.439,0.334-0.524,0.961-0.191,1.401c0.85,1.118,2.044,1.625,3.202,1.352c0.976-0.228,1.725-0.988,1.907-1.936   c0.101-0.523,0.154-1.869-1.531-3.049c-0.604-0.422-0.608-1.069-0.557-1.418c0.097-0.663,0.572-1.458,1.416-1.737   c0.969-0.325,2.175,0.162,3.382,1.369c3.221,3.222-1.699,11.463-4.208,14.857H7.17C6.092,42.902,2,32.943,2,24.29   C2,14.034,3.555,8.81,12.053,8.725l1.344-0.015c8.189-0.09,10.656-0.12,13.263,3.969c1.716,2.691,2.921,6.365,1.748,8.505   c-0.767,1.396-2.557,2.105-5.321,2.105H12.043c-0.047,0-0.096,0.003-0.142,0.01c-0.756,0.105-2.898,0.145-3.725-0.94   c-0.786-1.03-0.233-2.907,0.368-4.3c0.219-0.507-0.015-1.096-0.521-1.314c-0.51-0.22-1.096,0.014-1.314,0.521   c-1.185,2.744-1.224,4.868-0.117,6.313c1.597,2.084,4.943,1.779,5.516,1.71h10.979c3.55,0,5.931-1.058,7.074-3.143   c1.675-3.052,0.069-7.586-1.814-10.542C25.142,6.578,21.696,6.611,13.374,6.711z M7.522,55.314v-2.969h14.46   c0.037,0,0.069-0.017,0.104-0.021v2.99H7.522z M22.086,47.375v2.99c-0.036-0.004-0.067-0.021-0.104-0.021H7.522v-2.969H22.086z" fill="#FFFFFF"/>
</g>
<g>
</g>
<g>
</g>
<g>
</g>
<g>
</g>
<g>
</g>
<g>
</g>
<g>
</g>
<g>
</g>
<g>
</g>
<g>
</g>
<g>
</g>
<g>
</g>
<g>
</g>
<g>
</g>
<g>
</g>
</svg>
