<?xml version="1.0" encoding="iso-8859-1"?>
<!-- Generator: Adobe Illustrator 19.0.0, SVG Export Plug-In . SVG Version: 6.00 Build 0)  -->
<svg xmlns="http://www.w3.org/2000/svg" xmlns:xlink="http://www.w3.org/1999/xlink" version="1.1" id="Capa_1" x="0px" y="0px" viewBox="0 0 64 64" style="enable-background:new 0 0 64 64;" preserveAspectRatio="none" xml:space="preserve" width="512px" height="512px">
<g id="Tennis-ball_1_">
	<path id="Tennis-ball" d="M32,0C14.356,0,0,14.355,0,32s14.356,32,32,32c17.645,0,32-14.355,32-32S49.645,0,32,0z M2,32   c0-8.395,3.47-15.991,9.047-21.442c10.491,15.281,10.493,29.313,0.005,42.889C5.473,47.996,2,40.398,2,32z M12.525,54.792   c0.013-0.015,0.033-0.021,0.045-0.037c11.03-14.219,11.042-29.517,0.033-45.466c-0.022-0.032-0.056-0.049-0.081-0.078   C17.768,4.721,24.57,2,32,2c7.656,0,14.647,2.886,19.953,7.623c-10.688,15.692-10.693,30.75-0.016,44.768   C46.633,59.119,39.648,62,32,62C24.572,62,17.77,59.28,12.525,54.792z M53.395,53.003C43.351,39.702,43.36,25.958,53.421,11.025   C58.723,16.439,62,23.842,62,32C62,40.172,58.712,47.587,53.395,53.003z" fill="#FFFFFF"/>
</g>
<g>
</g>
<g>
</g>
<g>
</g>
<g>
</g>
<g>
</g>
<g>
</g>
<g>
</g>
<g>
</g>
<g>
</g>
<g>
</g>
<g>
</g>
<g>
</g>
<g>
</g>
<g>
</g>
<g>
</g>
</svg>
