<?xml version="1.0" encoding="utf-8"?>
<!-- Generator: Adobe Illustrator 21.0.0, SVG Export Plug-In . SVG Version: 6.00 Build 0)  -->
<svg version="1.1" id="Layer_1" xmlns="http://www.w3.org/2000/svg" preserveAspectRatio="none" xmlns:xlink="http://www.w3.org/1999/xlink" x="0px" y="0px"
	 viewBox="0 0 200.2 221.2" style="enable-background:new 0 0 200.2 221.2;" xml:space="preserve">
<style type="text/css">
	.st0{fill:#274140;}
	.st1{fill:#99BC44;}
</style>
<title>Asset 1</title>
<g id="Layer_2">
	<g id="Layer_1-2">
		<path class="st0" d="M188.1,150.6V70.8c0-6.7-3.6-13-9.4-16.4l-69.1-39.9c-5.8-3.4-13.1-3.4-18.9,0L21.5,54.4
			c-5.8,3.4-9.4,9.6-9.4,16.4v79.8c0,6.7,3.6,13,9.4,16.4l69.1,39.9c5.8,3.4,13.1,3.4,18.9,0l69.1-39.9
			C184.4,163.5,188,157.3,188.1,150.6z"/>
		<path class="st1" d="M200.1,150.6v-60c0-7,0.4-14.2-0.1-21.2c-0.7-10.5-6.5-19.9-15.5-25.3c-2.1-1.3-4.4-2.5-6.5-3.8l-58.9-34
			c-3.2-2-6.7-3.7-10.2-4.9c-8.6-2.7-17.5-1-25.2,3.3c-7.9,4.4-15.7,9-23.4,13.5L27.6,37C19.4,41.7,10.3,45.8,5,54
			c-5.8,9.1-4.9,19.5-4.9,29.6v37.9c0,9.3-0.1,18.5,0,27.8c0.1,13,6.6,22.9,17.6,29.3l58.2,33.6c11.1,6.4,22,12.2,35.3,7
			c7.3-2.9,14-7.6,20.8-11.4c17.5-10.1,35.4-19.8,52.7-30.4C194,171.7,199.8,161.6,200.1,150.6c0.3-6.4-5.7-12-12-12
			c-6.6,0.1-11.9,5.4-12,12c-0.1,3-1.3,4.7-4.6,6.6c-2.8,1.6-5.6,3.2-8.4,4.9l-30.2,17.4l-26,15c-1.5,0.9-3.5,2.4-5.1,2.8
			c-2.9,0.7-5.2-0.9-7.6-2.3l-55.4-32l-9.2-5.3c-0.6-0.4-1.3-0.7-1.8-1.1c-1.4-0.8-2.6-2.1-3.2-3.6c-0.5-1.4-0.4-3.9-0.4-6.3v-12.6
			c0-20.7-0.2-41.4,0-62.1c0-0.4,0-0.9,0-1.3c0-2.5,1.4-4.7,3.5-6c1.5-1,3.1-1.8,4.7-2.7l26.9-15.5l29.2-16.9
			c4.8-2.8,10-7.3,15.3-4.7c6.6,3.3,12.9,7.4,19.2,11.1l31.7,18.3c5.9,3.4,12.2,6.5,17.9,10.3c2.7,1.8,3.5,3.6,3.6,6.8
			c0,2.9,0,5.9,0,8.8v70.2C176.1,166,200.1,166,200.1,150.6z"/>
	</g>
</g>
</svg>
