<?xml version="1.0" encoding="utf-8"?>
<!-- Generator: Adobe Illustrator 21.0.0, SVG Export Plug-In . SVG Version: 6.00 Build 0)  -->
<svg version="1.1" id="Layer_1" xmlns="http://www.w3.org/2000/svg" xmlns:xlink="http://www.w3.org/1999/xlink" x="0px" y="0px"
	 viewBox="0 0 796.3 789.9" style="enable-background:new 0 0 796.3 789.9;" xml:space="preserve">
<style type="text/css">
	.st0{fill:#02A5F6;}
	.st1{fill:#FE0711;}
	.st2{fill:#02D93C;}
	.st3{fill:#05DA3E;}
	.st4{fill:#FE0610;}
	.st5{fill:#FE0A13;}
	.st6{fill:#8FEDFE;}
	.st7{fill:#02A7F7;}
	.st8{fill:#01A6F6;}
	.st9{fill:#CBFEFE;}
</style>
<path class="st0" d="M186.8,460.1c-95-18.4-168.4-93.4-183.5-189.5c-11.6-73.8,7.7-139.4,58-194.9c38-42,85.9-66.7,142.2-72.4
	C279.6-4.5,344.3,20.3,397,76c-7.7,10.3-15.4,20.7-23,31c-0.9-0.8-1.8-1.5-2.6-2.3c-49.2-51.1-108.9-71.2-178.7-58.8
	c-83.4,14.7-149.3,87.6-155.6,172c-5,67,18.3,122.8,69.7,166.3c28.6,24.2,62.1,38.3,99.4,42.6c10.1,1.8,20.2,1.2,30.4,1.2
	c6.8,0,13.6-0.5,20.3-2c1.5-0.1,3,0,4.5-0.3c26.5-4.7,51.3-14.1,73.7-29c11.2-7.5,22.1-15.3,30.8-25.8l-0.1,0.1
	c0.3-0.3,0.6-0.5,1-0.8c3.9-3.2,7.3-6.9,10.1-11.1c9-9.6,16.3-20.5,22.1-32.4c0.6-1,1.3-1.9,1.8-2.9c11.1-21.5,18-44.2,20.4-68.3
	c4-40.2-3.5-78.1-23-113.5c6.4-12.3,14.4-23.6,23.5-34c0.5,0.9,1,1.7,1.5,2.6c32.4,53.5,41.8,111,29.4,172.1
	c-3.4,17-9.6,33.1-16.3,49.1c-5.1,9-10.2,18.1-15.2,27.1c-6.9,10-14.1,19.7-22.1,28.9c-24.2,26.9-53,47.1-86.6,60.5
	C284.9,459,256.5,464,227.2,464C213.6,463.9,200.1,462.5,186.8,460.1z"/>
<path class="st1" d="M421.6,107.8c-9.1,10.5-17.1,21.7-23.5,34c-0.8,1.3-1.6,2.5-2.3,3.8c-12,23.5-19,48.5-20.7,74.9
	c-2.3,37.6,5.3,73,23.7,106c-5.8,11.9-13,22.7-22.1,32.4c-6.6-9.1-11.5-19.2-16.6-29.2c-0.6-1.5-1.2-3.1-1.9-4.6
	c-24.6-57.5-26.2-115.8-5.5-174.7c5.4-15.3,13.1-29.4,21-43.4c7.7-10.3,15.4-20.7,23-31c8.6-7.8,16.5-16.4,25.5-23.8
	C471.4,12.6,527.3-4.7,589.9,1.1c99.4,9.1,183.9,86.2,201.9,184.3c14.3,77.8-4.9,146.7-58.6,205c-34.3,37.3-77.3,59.8-127.3,68.5
	c-1.6,0.3-3.3,0.6-4.9,0.9c-6.6-11.3-13.1-22.5-19.7-33.8c6.6-0.8,13.3-1.3,19.8-2.5C706.9,405,777.4,303.3,757.6,197.6
	c-22.1-118.5-147.7-188.1-260-144C467.8,65.4,442.2,83.2,421.6,107.8z"/>
<path class="st2" d="M581.2,426c6.6,11.3,13.1,22.5,19.7,33.8c13.7,30,21.4,61.5,21.7,94.6c0.7,61.3-19,115.1-60.2,160.5
	c-38.8,42.8-87.3,67.6-144.8,73.7c-117.1,12.5-225.1-67.5-248-183.3c-9.9-50.2-4.2-98.6,17.1-145.2c13.3,2.5,26.8,3.8,40.4,3.9
	c-0.3,0.6-0.5,1.2-0.8,1.8c-20.7,37-28.8,76.6-23.6,118.7c5.5,44.8,24.3,83.2,56.7,114.4c43.2,41.7,95.2,59.7,155,53.9
	c46.2-4.5,85.7-23.9,117.9-57.1c37.9-39.2,56.2-86.5,54.7-141.1c-0.9-33.3-10.2-64.2-27.3-92.7c-1.8-2.9-3.6-5.9-5.5-8.7
	c-8-11.2-16.3-22.3-26.8-31.4c-14.5-14.7-31.4-25.9-49.9-34.8c-13.6-6.5-27.7-11.8-42.7-14.3c-5.3-4-9-9.4-13.7-14
	c5.1-9,10.2-18.1,15.2-27.1C497.1,343.8,545.3,375.5,581.2,426z"/>
<path class="st2" d="M206.2,426.7c35.6-50.7,83.7-82.3,144.3-94.9c3.2-0.7,6.5-1.4,9.7-2c5.1,10,10,20.1,16.6,29.2
	c-2.8,4.2-6.2,7.9-10.1,11.1c-0.5,0-1.1-0.1-1,0.8l0.1-0.1c-12.2,0.5-23.7,4.1-35.1,8.1c-28.3,9.9-53.1,25.4-73.9,47
	c-6.7,1.6-13.4,2-20.3,2C226.4,427.9,216.2,428.4,206.2,426.7z"/>
<path class="st1" d="M559.7,461.9c-56.5-2-105.3-22.6-146.9-60.6c-4.8-4.4-9.2-9.1-13.8-13.7c8-9.2,15.2-18.9,22.1-28.9
	c4.7,4.5,8.4,10,13.7,14c13.2,13.6,28.7,24,45.4,32.6c14.9,7.6,30.5,13.7,47.1,16.5c10.5,9.1,18.8,20.1,26.8,31.4
	C556.1,456,557.9,459,559.7,461.9z"/>
<path class="st3" d="M387.7,626.5c-2.1,8-4.3,15.9-6.1,24c-0.9,4,2.1,6.6,5.3,8.2c5,2.6,6.7,6.5,6.2,11.8
	c-0.7,6.8,0.5,13.6-0.8,20.4c-0.8,3.8-2.2,6.5-6.9,6.1c-4.5-0.3-6.9-3-7.1-6.9c-0.2-5.5-1.6-11.3,2-16.4c0.6-0.9,0.7-1.8-0.1-2.7
	c-1-1.1-2.2-1.3-3.6-1.1c-7.7,1.2-8.5,0.4-10.1-7.1c-1.5-7.2-0.9-14.4-1.4-21.7c-0.1-1.9-0.9-2.6-2.3-3.3c-3.4-1.9-4.2-5-3.6-8.5
	c2.2-13.3,3.5-26.6,9.3-39.1c4.2-9,3.7-19.2,3.2-29c-0.1-3-1.4-4.1-4.5-3.5c-6.6,1.2-12-0.8-16.6-5.8c-5-5.5-11-6-17.7-3.4
	c-7.1,2.8-13.6,6.9-20.8,9.6c-12.1,4.6-24.5,4.9-36.9,2.8c-12.5-2.1-24.7-2.4-37.2,2c1.2-3.4,3.7-4.3,6.4-4.6
	c10.1-0.9,20.1-1.8,30.3,0.4c18.9,4.1,35.8-2.1,51.9-11c3.2-1.8,6.2-3.7,10-4.2c4.7-0.6,8.9-0.5,12.7,3.4c3.7,3.8,8.1,7,13.4,8.5
	c2.1,0.6,4.3,1.2,6-0.9c1.7-2.1,0-3.7-0.8-5.4c-1.8-3.4-2.9-7-2.9-10.9c-0.1-7-4.5-11.6-9.6-15.6c-2-1.5-3.2-2.9-3.2-5.7
	c0-4.6-2.8-8.2-5.9-11.2c-4.7-4.4-8.4-9.4-11.5-15c-4.5-8-9.9-15.3-18-20.4c-2.5-1.6-3.8-4.1-2.8-7.2c0.6-2.1,1.3-4.4,3.8-4.8
	c3.2-0.5,5.4,1.6,6.8,4.1c5,9.2,11.5,17,20.4,22.8c4.7,3.1,8.1,7.9,10.7,13c1.1,2.2,2.4,4,5.1,4.3c4.8,0.5,8.1,3.4,11.1,7
	c1.5,1.8,3,3.6,4.6,5.2c1.5,1.5,3.3,2.4,5.3,0.7s2.6-3.5,1.4-6.2c-4-8.6,2.8-20.6,12.3-22c3.1-0.5,6,0.2,8.3,2.5
	c5,5,6.3,16.4,2.6,22.3c-1.1,1.9-3.4,3.6-0.3,5.9c2.8,2,5.3,4.5,8.8,1.5c3.5-3.1,7-6.2,11.1-8.5c1-0.6,2.1-1.4,3.1-1.5
	c8.7-0.6,14-6.7,19.7-12.2c4-3.8,8.7-6.6,13.6-9.3c6.9-3.8,12.8-8.4,15-16.5c0.8-3.1,3.7-2.9,6.2-3c2.7-0.1,4.3,1.3,5.4,3.6
	c0.9,1.9-0.4,2.7-1.6,3.6c-1.2,0.8-2.7,1.6-2.3,3.5c0.4,2.1,2.8,0.3,3.8,1.8c-10.2,4.4-17.9,11.9-25.2,19.8c-2.6,2.8-5.4,5.4-8.2,8
	c-4.1,3.9-9.2,6.9-11.1,13c-0.8,2.8-3.6,4.8-6.1,6.5c-8.9,6-13.2,15.2-17,24.6c-1.7,4.1,1.7,4.7,4.2,4.7c3.6,0,7.4-0.2,10.8-1.3
	c13.8-4.3,27.3-2.6,40.7,1.7c23.3,7.4,47.1,9.8,71.4,7.3c3.6-0.4,7.3-0.2,11-0.2c1.5,0,3.3,0.1,3.3,2.1c0,1.8-1.9,1.7-3.1,1.8
	c-10.9,1.1-21.9,1.8-32.9,1.6c-21.6-0.6-42.6-4.1-62.5-13.3c-3.7-1.7-7.8-1.2-11.8-0.9c-7.4,0.7-14.9,0.3-21.6,4.5
	c-2.1,1.3-5.2,1-7.8,1.5c-3.5,0.7-4.9,3-6.2,6.3c-3.7,10-5.2,20.3-3.4,30.7c1.8,10.7,3.2,21.4,4.6,32.1c0.5,3.4,0.7,6.4-3.3,7.7
	c-1.3,0.4-1.6,1.6-1.7,2.8c-0.8,10.1-3.1,20-1.8,30.3c1.2,9.2-0.8,18.3-3.9,27c-1.6,4.4-1.8,8.6-0.2,13.1c2.8,8.1,1.1,16.1-1.4,24
	c-1,3.2-3.1,5.5-7,5.1c-4.1-0.4-6.3-2.8-6.9-6.7c-1.1-7.3-1.2-15,1.7-21.7c3.7-8.4,3.3-16.7,2.7-25.3c-0.3-4.8-0.2-9.6,0.4-14.4
	c0.7-5.2,0.7-10.6-2.5-15.4c-0.4-0.6-0.6-1.6-0.5-2.4C395.2,645.6,390.5,636.2,387.7,626.5z"/>
<path class="st4" d="M721.1,218.8c-1.3,38.3-6,70.5-24.1,99.3c-16.7,26.4-39,47.5-64,65.8c-3.6,2.6-7.4,4.8-11.9,1.7
	c-4.7-3.2-7.8-7.2-6.4-13.4c0.7-3.1,0.6-6.3-1-9.2c-0.2-0.4-0.6-0.9-0.5-1.4c1.5-12.1-2.4-24.2,0.2-36.4c1.1-5.2,1-10.6-0.4-15.8
	c-0.2-0.6-0.5-1.3-0.4-2c3.3-18.6-2.5-38,4.6-56.4c1.8-4.6,1.4-9.2-1.2-13.4c-1.2-2-1.4-4.1-0.7-6.2c1.2-3.5,3-6.7,1.8-10.9
	c-0.9-2.8,2.1-4.1,4.4-4.4c5.6-0.8,9.2-2.9,9.7-9.2c0.2-3,3.2-4.8,5.5-6.8c13.7-11.8,24.9-25.6,32.7-42.1c2.4-5.1,4.9-10.2,7.6-15.1
	c3.8-7,16.7-7.3,20.6-0.3C707.6,160.6,722.4,195.5,721.1,218.8z"/>
<path class="st5" d="M513.4,215.5c1,8.7,5.7,15.5,7.5,23.3c0.7,2.9,3.1,2.6,5.2,1.4c5.2-2.9,10.6-4.7,16.6-4.7c2.4,0,4.8-0.9,6.1-3
	c6.6-10.7,17.1-17.7,24.6-27.5c0.8-1,1.9-2.1,2.2-3.3c1.7-9.3,8.3-14.9,15.2-20.3c2.7-2.1,5.1-4.2,5.5-7.9c0.3-2.4,2-3.7,4.2-4.6
	c2.3-0.9,4.6-2,6.9-2.9c3.1-1.3,5.8-1,7.8,2.1c1.9,3,1.1,5.2-1.4,7.4c-6,5.2-11.8,10.8-17.1,16.8c-7.1,8.1-12.8,17-16.7,27
	c-4.2,11.1-11.4,19.8-21.2,26.5c-3,2.1-6,4.2-8.9,6.4c-7.3,5.8-15.5,9.1-24.9,8.7c-3.6-0.1-6.1,0.9-7.3,4.5c-0.9,2.8-3.4,3.6-6,3.4
	c-4.3-0.2-8.6-0.6-12.9-1.1c-2.6-0.3-3-2.6-2.9-4.6c0.3-5.7-2.4-8.7-8-9.3c-0.5-0.1-1.1-0.1-1.4-0.4c-1.8-1.5-5.2-2.5-3.7-5.6
	c1.5-3,4.3-1.7,6.5-0.4c6.3,3.9,13,3.3,19.8,1.9c4.1-0.8,5.4-3.3,4.4-7.3c-1.5-6-2.4-12.1-2.9-18.2
	C510.3,221,510.5,218.1,513.4,215.5z"/>
<path class="st6" d="M273.6,208.6c0.9,11.4,1.9,22.7,2.4,34.2c0.4,8.3,1.7,16.8,4.9,24.7c0.7,1.7,1.3,3.5,2.8,4.7
	c2.8,2.2,4.8,4.6,4.5,8.7c-0.2,2.4,2,4.2,4.5,2.5c3.3-2.4,3.6,0.1,4.2,2.1c0.5,1.7,0.7,3.5,1.1,5.3c0.6,2.8,1.1,5.5,5.1,2.8
	c2.1-1.4,3.2-0.1,2.8,2.1c-1.5,8.8,2.4,12.5,9.7,14.2c0.8,0.2,1.8,0,2,1c0.2,1.3-0.8,1.7-1.7,2.1c-1.2,0.5-2.6,0.6-3.8,1.2
	c-1.4,0.7-3.7,0.3-3.9,2.4c-0.1,2.6,2.4,2.6,4,2.9c3.4,0.8,6.8,1,10.3,1.5c1.8,0.2,4.1,0.3,4.3,2.5c0.3,2.5-2.2,2.2-3.9,2.8
	c-11,3.7-22.1,6.9-32.4,12.5c-3.8,2-7.1,2.8-10.7-0.7c-3.4-3.3-6.6-2.4-10.4,0.8c-7,6-7.1,7.5-13.9,1.4c-2.9-2.6-6.2-1.3-9.1,0.8
	c-1.8,1.4-3.5,3-5.5,4.2c-1.4,0.8-3.6,2-4.6,1.4c-7.3-3.9-15.6,1.8-22.8-2.4c-0.5-0.3-1.6-0.4-1.9-0.1c-5,5.2-8.7,0.2-12.6-1.8
	c-6.3-3.3-7.9-3.5-13.1,1.1c-2.2,1.9-3.6,1.5-5.5-0.3c-2.5-2.4-5.3-4.5-8.4-6.2c-3.8-2-7.3-1.3-9.6,2.2c-1.7,2.6-3.3,3.1-6.2,2.1
	c-13.2-4.9-26.5-9.5-39.7-14.2c-1.1-0.4-2.5-0.7-2.3-2.1c0.2-1.3,1.6-1.6,2.7-1.8c6.7-1.6,13.7-2,20.3-4.5c-1.5-3.7-4.9-3.8-7.7-4.9
	c-0.9-0.3-2.1-0.6-2.1-1.7c0-0.4,0.7-1.2,1.2-1.3c10-1.8,9.9-9.1,9.3-16.7c-0.1-0.8,0.1-1.6,0.2-2.3c1.7-0.8,1.7,0.8,2.4,1.3
	c1.4,0.9,2,3.4,4.4,2.4c2.3-1,3-3,3-5.3c0-1.5,0.1-3,0.1-4.5c0-2.2,0.7-3.1,3.1-2.2c4.4,1.6,6.3-0.2,5.9-4.7
	c-0.1-1.3-0.5-3.1,0.7-3.8c7.1-4.2,6.7-11.9,8-18.4c2.9-13.9,3.8-28.1,4.5-42.4c0.4-9.2-0.4-18.6,2.4-27.6c2.1,1.8,1.3,4.4,1.3,6.5
	c-0.2,5.2,1,10.2,1.3,15.4c0.1,1.8,0.7,3.8,3.2,3.6c2.2-0.2,2.5-1.9,2.5-3.6c-0.2-8.2,1.3-16.2,2.2-24.2c0.8-6.8,0.6-13.7,1.5-20.6
	c2.4,8.3,1.9,17.4,6.5,25.4c2.2-2.7,2-5.8,3.4-8.3c1.8,6.2,0.5,12.2,0.6,18.2c0.1,3.2,2,4.9,5.1,5c3,0.2,3.3-2.5,3.6-4.5
	c0.6-4.2,0.9-8.4,1.5-14.1c1.5,6.6,3.4,11.5,3.4,16.8c-2.9,0.1-3.9,3.6-6.7,3.9c-1.9-0.4-4-2.4-5.7-0.2c-1.7,2.1,0.5,3.5,1.8,4.8
	c0.4,2.5-1.4,4.4-1.9,6.6c-0.2,0.7-1.2,2.6,0.1,2.3c5.2-1.1,2,2.1,2.4,3.8c0.7,2.7-0.6,5.7,2,8.4c1.9,1.9,0.2,4.2-2.5,5
	c-5.9,1.8-11.1,4.9-15.9,8.6c-1.5,1.1-3,2.7,0.3,3.7c2.3,0.7,1.4,2.4,0.6,3.6c-3.3,4.4-1.6,10.1-3.7,14.8c-0.1,0.2,0.6,0.7,0.9,1
	c1.7-0.7,1.2-3.5,4-3.7c-0.9,3.5-1.7,6.7-2.6,9.8c-0.5,1.7-1.7,4.1,0.3,4.9c2.8,1.1,2.5-2.3,3.6-3.6c2-2.5,1.1-6.8,5.2-7.9
	c0.9,5.1-1.7,9-4.7,12.6c-4.3,5.2-9,10.3-12.7,16c-4.2,6.5-9.7,11.3-17.2,13.5c-4.1,1.2-6.1,7.4-3.2,10.1c2.3,2.1,2.1,3.2,0.2,5.1
	c-0.8,0.8-1.7,1.9-0.7,3c1.1,1.2,2.1,0.4,3-0.4c1.8-1.4,3.9-2.7,5.3-4.5c2.8-3.7,5.1-6.4,7.6,0.2c0.4,1.1,1.9,1.8,3,2.5
	c7.7,5.3,16,7.2,25.4,7c21.3-0.5,42.6,0.3,63.9-0.4c9.2-0.3,18.8-1.8,23.4-12.1c4.3,1.4,5.3,8.5,11.7,6.9c-0.7-2.5-2.6-4.3-1.5-7.2
	c2.9-8.2,1.5-10.7-7.1-13.2c-3.1-0.9-5.7-2.3-7.7-5c-3.8-5.1-7.8-9.9-11.6-14.9c-4.7-6.2-10-12-10.5-20.4c4.2,1.5,3.8,5.9,5.6,8.8
	c1.3,2,1.8,6.2,3.9,5.5c2.5-0.9,0.8-4.5,0.4-7c-0.6-4.1-3.6-7.5-3.7-11.9c2.9,0.4,2.3,3.9,6.4,4.7c-4.6-4.3-0.7-9.7-4.6-13.4
	c-1-1-2.1-2.9-1.2-4.1c2.7-3.6-0.2-4.9-2.2-7c-3.4-3.6-8-4.5-12.5-5.4c-2.9-0.6-4.2-2.9-3.2-4.5c2.8-4.3,1.2-8.9,1.6-13.2
	c1.9-1.1,2.7,1.9,4.4,1.1c0.6-0.8,0-1.3-0.2-1.9c-1.3-4.6-5.1-7.6-7-11.8c3.4,0.8,4.6-0.9,4.7-4c0.1-4.5-0.2-9,0.2-13.5
	c0.6-6.3,1-12.7,3.4-18.7c0.1,8.3,3.2,15.8,4.5,23.7c0.3,2,0.7,3.7,3.2,3.6c2.8-0.1,3.1-2,3-4.2c-0.1-1.6-0.3-3.3-0.6-4.9
	c-0.5-2.8-0.7-5.6,0.6-8.5c2.1,7.8,3.6,15.7,5,23.6C269.3,206.6,269.9,209,273.6,208.6z"/>
<path class="st7" d="M208.5,201.9c0-5.3-1.9-10.3-3.4-16.8c-0.6,5.7-0.9,9.9-1.5,14.1c-0.3,2-0.6,4.7-3.6,4.5s-5-1.8-5.1-5
	c-0.1-6,1.2-12.1-0.6-18.2c-1.3,2.6-1.1,5.6-3.4,8.3c-4.7-8-4.1-17.1-6.5-25.4c-0.9,6.9-0.7,13.8-1.5,20.6c-1,8-2.4,16.1-2.2,24.2
	c0,1.7-0.2,3.5-2.5,3.6c-2.5,0.2-3.1-1.8-3.2-3.6c-0.3-5.1-1.5-10.2-1.3-15.4c0.1-2.2,0.8-4.7-1.3-6.5c0-3.5,0-6.9,0-10.4
	c0.1-0.4,0.2-0.8,0.2-1.2c0.1-20,0.7-39.9,2.4-59.9c0.2-2.4,0.4-5.2,3.8-5.4c0.6,3.7-0.6,7.2-1.4,10.8c-0.3,1.6-0.6,3.5,1,3.9
	c2,0.6,2-1.7,2.3-3c0.4-1.8,0.6-3.7,3-6.2c0,4.8,0,8.4,0,12c1.2-1.8,1.1-3.6,1.2-5.4c0-1.1,0.5-2.2,1.5-2.3c1.3-0.2,1.1,1.2,1.5,2.1
	c1.2,3.5,0.2,7.5,2.6,11.2c2-4.5,1.1-9,2.6-13.1c0.4-1,0.4-2.7,2-2.5c1.5,0.2,1.1,1.6,1.1,2.8c-0.1,4.9,0,9.8,0,16.1
	c3.1-6.3,2.2-12.1,3.2-17.9c4.2,4,1,9.4,3.6,13.5c3.7-3.3,0-8.7,3.9-11.6c1.9,1,0.5,4.3,2.8,4.2c2.3-0.1,1.7-2.8,2.5-4.3
	c0.2-0.3,0.3-0.6,0.5-0.9c0.6-1,1.2-2.2,2.6-2c2,0.3,1.4,1.9,1.5,3.2c0.1,3.2,0,6.5,0,10.5c3.1-3.5,1.5-7.1,2.4-10.1
	c0.4-1.2,0.6-2.9,2-3.2c1.8-0.4,1.9,1.4,2.5,2.5c0.3,0.5,0.6,1.1,1,1.9c1.6-0.9,1.2-3.1,3.3-3.6c1.6,4.2-1.7,8.8,0.9,13.8
	c0.9-3.6,1.6-6.4,2.3-9.4c2.3,2.9,0.9,6.5,2.3,10.3c2.4-3.8,0.2-8.6,4.4-11.4c-0.3,10.3,0.1,20,2.5,30.5c2.2-8.1,0.9-16,3.8-23.5
	c2.2,2.5,1.3,6.1,4.1,7.8c2-4.7,0.8-9.9,2.6-15.1c2.7,4.4,1.6,9.8,5.4,13.3c1.6-2.1,1.2-4.4,1.3-6.5c0.1-0.8,0-1.8,1.1-1.9
	c0.9-0.1,1.4,0.6,2,1.2c1.4,1.7,0.6,4.4,2.5,5.9c1.6-3.2,3.2-6.4,5-10.1c2.7,5.3,2.5,10.9,4.6,15.8c0,1,0.1,2,0.1,2.9
	c-1.6,3-1.8,6-0.2,9.1c1.6,19.2,0.9,38.5,0.8,57.7c-3.7,0.4-4.3-2-4.8-4.9c-1.3-7.9-2.9-15.8-5-23.6c-1.2,2.8-1.1,5.6-0.6,8.5
	c0.3,1.6,0.5,3.3,0.6,4.9c0.2,2.2-0.2,4.1-3,4.2c-2.5,0.1-2.9-1.6-3.2-3.6c-1.3-7.9-4.4-15.5-4.5-23.7c-2.4,6.1-2.8,12.4-3.4,18.7
	c-0.4,4.5-0.1,9-0.2,13.5c-0.1,3-1.3,4.8-4.7,4c-0.1-1.2-0.2-2.5-0.2-3.7c-3.7-7.8-2.3-16.6-5.5-24.6c-0.4,6.2-0.7,12.4-1.1,18.6
	c-1.6,2-3.2,4.1-4.8,6.1c-0.5-0.3-1.1-0.7-1.6-1c0-3.6,0-7.2,0-11.4c-5.2,3.5-4.5,9.7-8.4,13.2c-1.9-2.9-0.9-6-1.6-8.9
	c0.6-7.5-1-14.8-2.5-22.1c-1.6,7.5-2.4,15.1-5.3,22.2c-0.7,2.4-1.4,4.7-2.1,7.1c-0.3,1-0.4,2.3-1.4,2.4
	C209.1,204.5,208.8,203.1,208.5,201.9z"/>
<path class="st6" d="M272.9,138.9c-2-4.9-1.9-10.6-4.6-15.8c-1.8,3.6-3.4,6.8-5,10.1c-1.9-1.5-1-4.2-2.5-5.9c-0.5-0.6-1-1.4-2-1.2
	c-1.1,0.2-1,1.1-1.1,1.9c-0.1,2.1,0.3,4.4-1.3,6.5c-3.8-3.4-2.7-8.8-5.4-13.3c-1.8,5.2-0.7,10.3-2.6,15.1c-2.9-1.7-1.9-5.2-4.1-7.8
	c-2.9,7.5-1.6,15.4-3.8,23.5c-2.4-10.5-2.8-20.2-2.5-30.5c-4.2,2.8-2,7.6-4.4,11.4c-1.3-3.8,0-7.4-2.3-10.3
	c-0.7,2.9-1.4,5.7-2.3,9.4c-2.7-5,0.7-9.6-0.9-13.8c-2.1,0.5-1.7,2.7-3.3,3.6c-0.4-0.8-0.6-1.3-1-1.9c-0.6-1.1-0.8-2.9-2.5-2.5
	c-1.4,0.3-1.6,2-2,3.2c-0.9,3.1,0.7,6.7-2.4,10.1c0-4,0-7.2,0-10.5c0-1.2,0.5-2.9-1.5-3.2c-1.4-0.2-2,1-2.6,2
	c-0.2,0.3-0.4,0.6-0.5,0.9c-0.8,1.5-0.2,4.2-2.5,4.3c-2.4,0.1-1-3.2-2.8-4.2c-3.9,2.9-0.2,8.2-3.9,11.6c-2.6-4.1,0.6-9.5-3.6-13.5
	c-1,5.8-0.1,11.6-3.2,17.9c0-6.3,0-11.2,0-16.1c0-1.2,0.4-2.6-1.1-2.8c-1.5-0.2-1.6,1.4-2,2.5c-1.5,4-0.6,8.6-2.6,13.1
	c-2.5-3.7-1.4-7.7-2.6-11.2c-0.3-0.9-0.1-2.3-1.5-2.1c-1,0.1-1.5,1.2-1.5,2.3c0,1.8,0,3.6-1.2,5.4c0-3.6,0-7.2,0-12
	c-2.4,2.4-2.5,4.3-3,6.2c-0.3,1.3-0.3,3.5-2.3,3c-1.6-0.4-1.3-2.3-1-3.9c0.7-3.6,2-7.1,1.4-10.8c9-4.8,18.9-6.9,28.3-10.6
	c8.5-3.3,16.5-2.5,25.1,0.3c10.4,3.4,21.2,5.2,31.9,7.5c5.8,1.3,6.9,3,7.9,9c1,6.4,0,13,1.5,19.3C273.9,136.3,274,137.8,272.9,138.9
	z"/>
<path class="st6" d="M272.8,150.9c-1.6-3.1-1.4-6.1,0.2-9.1C274.2,144.8,274.3,147.9,272.8,150.9z"/>
<path class="st8" d="M257.1,266.7c0.5,8.3,5.9,14.2,10.5,20.4c3.8,5,7.9,9.9,11.6,14.9c2,2.7,4.6,4.1,7.7,5c8.6,2.5,10,5.1,7.1,13.2
	c-1,2.9,0.8,4.7,1.5,7.2c-6.4,1.6-7.4-5.5-11.7-6.9c-4.5,10.3-14.2,11.8-23.4,12.1c-21.3,0.7-42.6-0.1-63.9,0.4
	c-9.4,0.2-17.7-1.8-25.4-7c-1.1-0.7-2.6-1.4-3-2.5c-2.5-6.6-4.8-3.9-7.6-0.2c-1.4,1.8-3.5,3.1-5.3,4.5c-0.9,0.7-2,1.6-3,0.4
	s-0.1-2.2,0.7-3c1.9-1.8,2-2.9-0.2-5.1c-2.9-2.8-0.9-8.9,3.2-10.1c7.6-2.3,13-7,17.2-13.5c3.7-5.7,8.3-10.8,12.7-16
	c3-3.6,5.6-7.5,4.7-12.6c0.6-5.2,4.2-8.3,8.2-11.1c1.4-1,3.2-1.5,4,0.8c0.4,1.2,0,3.1,1.8,2.9c1.7-0.1,2-2,2.3-3.5
	c0.6-2.6,0.5-5.9,4.7-2.8c2,1.5,3.1-0.2,3.2-2.1c0.1-1.1-1-2.7-0.6-3.3c3.6-5,1.9-9.6-0.8-14.2c-0.7-1.2-0.5-2.9-0.6-4.4
	c-0.2-4.5,1.3-8.8,2.2-13.2c0.9-4.2,3.8-6.5,8-7c4.4-0.5,8.1,0.9,9.6,5.3c1.9,6,3.9,11.4,0.1,18.5c-3.2,6,0.4,14,1.9,20.9
	c0.2,1,1.6,2.6,3,1c3.4-3.7,4.1-0.4,5.4,1.9c1.1,1.8,0.4,4.5,3,6.1c0.1-1.4,0.1-2.4,0.2-3.4c0.2-1.8-0.7-3.2,3.1-2.3
	C254.8,259.2,256,262.4,257.1,266.7z M269.4,307.6c-11.1-6.4-16.9-15.9-23.2-25c-0.7-1-1.1-2.9-2.7-2.4c-1.3,0.4-1.5,2-1.7,3.4
	c-1.2,7-2.2,14-1.3,21.2c0.5,4.3,2.1,5.5,5.9,5.1C253.6,309.1,260.8,308.5,269.4,307.6z M181.2,305.4c7.8,0.5,14.6,0.9,21.5,1.6
	c4.1,0.4,6-1.5,6.1-5.3c0.2-6.4,0.7-13-1.2-19.2c-0.4-1.5,0.1-3.9-1.7-4.2c-1.7-0.3-2.6,1.8-3.5,3.1
	C196.1,289.8,191,299.2,181.2,305.4z"/>
<path class="st9" d="M257.1,266.7c-1.1-4.3-2.3-7.5-7.9-8.8c-3.8-0.8-2.9,0.5-3.1,2.3c-0.1,1-0.1,2-0.2,3.4c-2.6-1.6-1.9-4.3-3-6.1
	c-1.3-2.3-2-5.6-5.4-1.9c-1.5,1.6-2.8,0-3-1c-1.4-7-5.1-14.9-1.9-20.9c3.8-7,1.8-12.5-0.1-18.5c-1.4-4.4-5.2-5.9-9.6-5.3
	c-4.2,0.5-7.1,2.8-8,7c-0.9,4.4-2.4,8.7-2.2,13.2c0.1,1.5-0.1,3.2,0.6,4.4c2.7,4.7,4.4,9.2,0.8,14.2c-0.4,0.6,0.7,2.2,0.6,3.3
	c-0.1,1.9-1.2,3.6-3.2,2.1c-4.2-3.1-4.1,0.2-4.7,2.8c-0.3,1.4-0.6,3.3-2.3,3.5c-1.8,0.1-1.4-1.8-1.8-2.9c-0.8-2.3-2.6-1.9-4-0.8
	c-3.9,2.8-7.5,5.9-8.2,11.1c-4.1,1.1-3.2,5.5-5.2,7.9c-1.1,1.4-0.9,4.8-3.6,3.6c-1.9-0.8-0.8-3.2-0.3-4.9c0.9-3.1,1.7-6.3,2.6-9.8
	c-2.8,0.2-2.3,3-4,3.7c-0.3-0.3-0.9-0.8-0.9-1c2.2-4.7,0.5-10.3,3.7-14.8c0.8-1.1,1.7-2.8-0.6-3.6c-3.3-1.1-1.8-2.6-0.3-3.7
	c4.9-3.7,10.1-6.8,15.9-8.6c2.7-0.8,4.4-3.1,2.5-5c-2.6-2.7-1.3-5.6-2-8.4c-0.4-1.7,2.8-4.9-2.4-3.8c-1.3,0.3-0.3-1.6-0.1-2.3
	c0.5-2.2,2.3-4.1,1.9-6.6c2.5-0.5,6.6,0.3,4-4.6c2.8-0.3,3.8-3.8,6.7-3.9c0.3,1.1,0.6,2.6,1.9,2.5c1,0,1.2-1.4,1.4-2.4
	c0.6-2.4,1.4-4.8,2.1-7.1c2.6,3.8,5.2,2.7,7.7,0c0.7,2.8-0.3,6,1.6,8.9c4-3.5,3.2-9.8,8.4-13.2c0,4.2,0,7.8,0,11.4
	c0.5,0.3,1.1,0.7,1.6,1c1.6-2,3.2-4.1,4.8-6.1c0.9,0.2,3.4-1.7,2.3,1.1c-1.7,4.8,0.8,5,4.3,4.8c0.1,1.2,0.2,2.5,0.2,3.7
	c1.9,4.2,5.7,7.2,7,11.8c0.2,0.6,0.8,1.1,0.2,1.9c-1.7,0.8-2.5-2.2-4.4-1.1c-0.4,4.3,1.2,8.9-1.6,13.2c-1,1.6,0.3,3.9,3.2,4.5
	c4.5,0.9,9.1,1.8,12.5,5.4c1.9,2,4.9,3.4,2.2,7c-0.9,1.2,0.2,3.1,1.2,4.1c4,3.7,0.1,9.1,4.6,13.4c-4.1-0.8-3.5-4.3-6.4-4.7
	c0.1,4.5,3.1,7.8,3.7,11.9c0.4,2.5,2,6.2-0.4,7c-2.2,0.7-2.7-3.5-3.9-5.5C260.9,272.6,261.3,268.2,257.1,266.7z"/>
<path class="st7" d="M201.8,205.8c2.6,4.9-1.5,4.1-4,4.6c-1.3-1.4-3.5-2.7-1.8-4.8C197.8,203.4,199.9,205.4,201.8,205.8z"/>
<path class="st6" d="M221.7,194.9c-2.6,2.7-5.2,3.8-7.7,0c2.9-7.1,3.7-14.7,5.3-22.2C220.7,180.1,222.3,187.4,221.7,194.9z"/>
<path class="st6" d="M244.8,202.9c-3.5,0.2-6,0-4.3-4.8c1-2.8-1.4-0.9-2.3-1.1c0.4-6.2,0.7-12.4,1.1-18.6
	C242.4,186.3,241,195.1,244.8,202.9z"/>
<path class="st6" d="M269.4,307.6c-8.6,0.8-15.8,1.5-23,2.2c-3.8,0.4-5.4-0.8-5.9-5.1c-0.9-7.2,0.1-14.2,1.3-21.2
	c0.2-1.3,0.4-3,1.7-3.4c1.7-0.5,2,1.3,2.7,2.4C252.5,291.7,258.3,301.2,269.4,307.6z"/>
<path class="st6" d="M181.2,305.4c9.8-6.2,15-15.6,21.1-24.1c0.9-1.3,1.8-3.4,3.5-3.1c1.8,0.4,1.3,2.8,1.7,4.2
	c1.9,6.3,1.4,12.8,1.2,19.2c-0.1,3.7-2,5.7-6.1,5.3C195.8,306.4,188.9,306,181.2,305.4z"/>
</svg>
