<svg id="Layer_1" data-name="Layer 1" xmlns="http://www.w3.org/2000/svg" viewBox="0 0 354.38 391.01" style=""><defs><style>.cls-1,.cls-2{fill:none;stroke:#fff;stroke-miterlimit:10;}.cls-1{stroke-width:22px;}.cls-2{stroke-width:15px;}.cls-3{fill:#fff;}</style></defs><title>Reg1</title><path class="cls-1 VRyePWdn_0" d="M165.74,175.5L200.74,216.5L346.74,75.5"></path><path class="cls-2 VRyePWdn_1" d="M39.74,263.5L255.74,263.5"></path><path class="cls-2 VRyePWdn_2" d="M39.74,319.5L255.74,319.5"></path><path class="cls-2 VRyePWdn_3" d="M157.74,83.5L255.74,83.5"></path><path class="cls-3 VRyePWdn_4" d="M537.61,430.68a16.55,16.55,0,0,1,6.64,1.92c1,.62.37,0,1.73,1.34.2.2,1.73,2,.84.83a12.36,12.36,0,0,1,2.48,4.81c.32,1.11.64,2.21.88,3.33.07.32.53,3.08.41,2.16a68.89,68.89,0,0,1,.09,10.4c0,.65-.12,1.31-.18,2-.13,1.55-.95,1.65.05-.25a5.91,5.91,0,0,0-.23,1.42L559,452H490l8.68,6.61c.72,5.34,0-1.47,0-2.83q-.07-2.73.1-5.47c.06-1,.15-2.1.28-3.14-.24,2,.18-.92.25-1.32,1.79-9.21,4.67-13.88,14.13-15.18l-8.76-2.31c10.91,10.59,31.23,12.15,41.73,0,7.54-8.73-5.14-21.51-12.73-12.73a8.86,8.86,0,0,1-6.09,3.3,12.45,12.45,0,0,1-7.4-1.45,21.18,21.18,0,0,1-2.49-1.55c1.5,1.06.32.21,0-.08-9.05-7.06-22.62,1.08-28.62,8.91-8.23,10.74-9.43,25.6-7.67,38.62.52,3.84,5.12,6.61,8.68,6.61h69c3.68,0,7.95-2.77,8.68-6.61,3.8-19.95-1.34-46.8-25.29-50.07-4.81-.66-9.66,1.16-11.07,6.29C530.17,423.81,532.76,430,537.61,430.68Z" transform="translate(-440.26 -308.5)"></path><path class="cls-3 VRyePWdn_5" d="M515,380.33c.47-13.95,21.67-14,21.67,0s-21.2,13.95-21.67,0c-.39-11.55-18.39-11.61-18,0,.53,15.66,12.77,28.83,28.83,28.83a28.83,28.83,0,1,0,0-57.67c-16.08,0-28.31,13.17-28.83,28.83C496.61,391.92,514.61,391.9,515,380.33Z" transform="translate(-440.26 -308.5)"></path><path class="cls-3 VRyePWdn_6" d="M681.51,657.51,660,679l8.49-3.51h-216l12,12V365.82c0-14.75,1.06-29.95,0-44.67,0-.21,0-.44,0-.65l-12,12h269l-12-12v314c0,15.44,24,15.47,24,0v-314a12.17,12.17,0,0,0-12-12h-269a12.17,12.17,0,0,0-12,12V642.18c0,14.86-.53,29.82,0,44.67,0,.22,0,.43,0,.65a12.17,12.17,0,0,0,12,12H662.23c5.9,0,10.59.39,15.46-4.22,7.11-6.73,13.87-13.87,20.79-20.79,10.94-10.94-6-27.91-17-17Z" transform="translate(-440.26 -308.5)"></path><style>.VRyePWdn_0{stroke-dasharray:257 259;stroke-dashoffset:258;animation:VRyePWdn_draw 2600ms ease-in-out 0ms forwards;}.VRyePWdn_1{stroke-dasharray:216 218;stroke-dashoffset:217;animation:VRyePWdn_draw 2600ms ease-in-out 0ms forwards;}.VRyePWdn_2{stroke-dasharray:216 218;stroke-dashoffset:217;animation:VRyePWdn_draw 2600ms ease-in-out 0ms forwards;}.VRyePWdn_3{stroke-dasharray:98 100;stroke-dashoffset:99;animation:VRyePWdn_draw 2600ms ease-in-out 0ms forwards;}.VRyePWdn_4{stroke-dasharray:532 534;stroke-dashoffset:533;animation:VRyePWdn_draw 2600ms ease-in-out 0ms forwards;}.VRyePWdn_5{stroke-dasharray:305 307;stroke-dashoffset:306;animation:VRyePWdn_draw 2600ms ease-in-out 0ms forwards;}.VRyePWdn_6{stroke-dasharray:2594 2596;stroke-dashoffset:2595;animation:VRyePWdn_draw 2600ms ease-in-out 0ms forwards;}@keyframes VRyePWdn_draw{100%{stroke-dashoffset:0;}}@keyframes VRyePWdn_fade{0%{stroke-opacity:1;}94.11764705882354%{stroke-opacity:1;}100%{stroke-opacity:0;}}</style></svg>