<?xml version="1.0" encoding="iso-8859-1"?>
<!-- Generator: Adobe Illustrator 19.0.0, SVG Export Plug-In . SVG Version: 6.00 Build 0)  -->
<svg xmlns="http://www.w3.org/2000/svg" xmlns:xlink="http://www.w3.org/1999/xlink" version="1.1" id="Capa_1" x="0px" y="0px" viewBox="0 0 63.992 63.992" style="enable-background:new 0 0 63.992 63.992;" preserveAspectRatio="none" xml:space="preserve" width="512px" height="512px">
<g id="Basketball-ball_1_">
	<path id="Basketball-ball" d="M54.632,9.364c-12.479-12.479-32.785-12.479-45.264,0C3.327,15.405,0,23.442,0,31.996   c0,8.553,3.327,16.591,9.369,22.632c6.239,6.24,14.435,9.359,22.632,9.359c8.196,0,16.392-3.12,22.632-9.359   C67.111,42.148,67.111,21.843,54.632,9.364z M61.785,35.459c-2.44-0.826-10.381-2.601-19.036,5.156l-8.678-8.619L54.205,12   c0.032-0.032,0.045-0.073,0.072-0.108C60.246,18.499,62.744,27.142,61.785,35.459z M37.05,61.555   c-0.696-1.984-2.622-9.719,5.67-18.15l10.075,10.006c0.037,0.037,0.085,0.054,0.127,0.084C48.41,57.887,42.849,60.572,37.05,61.555   z M52.923,10.497c-0.042,0.03-0.089,0.046-0.127,0.084L32.652,30.587l-9.448-9.383c7.699-8.536,6.103-16.396,5.26-18.984   C29.639,2.081,30.819,2.004,32,2.004C39.557,2.004,47.11,4.839,52.923,10.497z M11.766,9.843c4.251-3.887,9.357-6.327,14.684-7.322   c0.591,1.649,2.639,9.087-4.668,17.27L11.766,9.843z M10.339,11.244l10.06,9.991c-8.25,8.058-15.817,6.355-17.957,5.634   C3.444,21.011,6.158,15.604,10.339,11.244z M2,31.996c0-1.05,0.056-2.09,0.162-3.121c1,0.302,2.593,0.656,4.615,0.656   c3.902,0,9.361-1.329,15.04-6.887l9.416,9.351L10.339,52.747C4.961,47.139,2,39.799,2,31.996z M11.766,54.148l20.886-20.743   l8.65,8.591c-8.618,8.755-7.149,16.991-6.263,19.836C26.797,62.663,18.278,60.101,11.766,54.148z M54.277,52.099   c-0.027-0.035-0.04-0.076-0.072-0.108l-10.034-9.965c8.44-7.494,15.944-5.088,17.316-4.551   C60.511,42.773,58.111,47.856,54.277,52.099z" fill="#FFFFFF"/>
</g>
<g>
</g>
<g>
</g>
<g>
</g>
<g>
</g>
<g>
</g>
<g>
</g>
<g>
</g>
<g>
</g>
<g>
</g>
<g>
</g>
<g>
</g>
<g>
</g>
<g>
</g>
<g>
</g>
<g>
</g>
</svg>
