<?xml version="1.0" encoding="iso-8859-1"?>
<!-- Generator: Adobe Illustrator 19.0.0, SVG Export Plug-In . SVG Version: 6.00 Build 0)  -->
<svg xmlns="http://www.w3.org/2000/svg" preserveAspectRatio="none" xmlns:xlink="http://www.w3.org/1999/xlink" version="1.1" id="Capa_1" x="0px" y="0px" viewBox="0 0 63.997 63.997" style="enable-background:new 0 0 63.997 63.997;" xml:space="preserve" width="512px" height="512px">
<g id="Knight">
	<path d="M53.762,51.997h-5.504c13.013-24.457,2.917-36.553-0.937-41.16c-0.435-0.52-0.81-0.969-1.054-1.314   c-2.353-3.323-6.433-3.775-8.1-3.814l-2.088-5.091c-0.163-0.398-0.573-0.648-0.991-0.616c-0.429,0.03-0.79,0.331-0.897,0.747   c-0.338,1.317-1.186,3.456-1.933,3.864c-0.075,0.039-0.097,0.034-0.121,0.025c-1.667-0.555-4.544-0.525-6.592,0.62   c-1.38,0.773-2.295,1.979-2.646,3.488c-0.77,3.317-8.209,7.075-10.414,7.13c-0.876,0.022-1.633,0.355-2.189,0.961   c-1.153,1.258-1.065,3.26-1.052,3.484c0.006,0.103,0.028,0.203,0.065,0.299c0.477,1.232,2.167,5.319,3.895,6.177   c1.167,0.579,2.081,0.144,2.886-0.24c0.772-0.368,1.647-0.785,3.236-0.785c1.363,0,1.85,0.364,2.524,0.869   c0.826,0.619,1.855,1.389,4.292,1.389c2.165,0,3.69-1.815,4.671-3.131c0.008,0.28,0.013,0.612,0.013,1.004   c0,6.972-5.485,12.722-8.752,15.528c-1.661,1.417-2.373,3.611-1.858,5.728l1.177,4.837h-3.629c-0.552,0-1,0.448-1,1v10   c0,0.552,0.448,1,1,1h36c0.552,0,1-0.448,1-1v-10C54.762,52.445,54.314,51.997,53.762,51.997z M22.151,46.689   c-0.336-1.381,0.129-2.814,1.217-3.742c3.529-3.03,9.45-9.274,9.45-17.043c0-2.493-0.109-3.704-1.101-4.028   c-0.935-0.305-1.539,0.517-2.237,1.468c-0.832,1.136-1.97,2.692-3.34,2.692c-1.773,0-2.387-0.459-3.097-0.991   c-0.793-0.594-1.691-1.267-3.719-1.267c-2.04,0-3.276,0.589-4.094,0.979c-0.749,0.356-0.877,0.385-1.142,0.253   c-0.681-0.338-2.008-2.798-2.859-4.951c0.002-0.452,0.095-1.4,0.537-1.878c0.119-0.129,0.328-0.301,0.768-0.313   c2.899-0.073,11.28-4.26,12.306-8.672c0.227-0.974,0.775-1.693,1.679-2.199c1.626-0.911,3.938-0.817,4.988-0.468   c0.567,0.188,1.157,0.131,1.705-0.166c0.86-0.469,1.53-1.53,2.012-2.576l1.355,3.305c0.163,0.397,0.563,0.642,0.991,0.616   c0.048-0.005,4.765-0.287,7.07,2.967c0.291,0.411,0.689,0.888,1.152,1.441c1.006,1.202,2.348,2.807,3.586,4.912h-4.946   c-0.552,0-1,0.448-1,1c0,0.552,0.448,1,1,1h6c0.613,1.296,1.156,2.745,1.566,4.363h-5.653c-0.552,0-1,0.448-1,1   c0,0.552,0.448,1,1,1h6.045c0.008,0,0.015-0.004,0.023-0.005c0.213,1.28,0.338,2.654,0.352,4.126   c-0.116-0.047-0.242-0.076-0.374-0.076h-6.045c-0.552,0-1,0.448-1,1c0,0.552,0.448,1,1,1h6.045c0.119,0,0.23-0.03,0.336-0.068   c-0.07,1.298-0.231,2.67-0.489,4.113h-5.893c-0.552,0-1,0.448-1,1c0,0.552,0.448,1,1,1h5.481   c-0.985,4.221-2.807,9.029-5.824,14.514h-22.56L22.151,46.689z M52.762,61.997h-34v-8h34V61.997z" fill="#FFFFFF"/>
	<path d="M29.61,12.193h-2.177c-0.552,0-1,0.448-1,1c0,0.552,0.448,1,1,1h2.177c0.552,0,1-0.448,1-1   C30.61,12.64,30.162,12.193,29.61,12.193z" fill="#FFFFFF"/>
</g>
<g>
</g>
<g>
</g>
<g>
</g>
<g>
</g>
<g>
</g>
<g>
</g>
<g>
</g>
<g>
</g>
<g>
</g>
<g>
</g>
<g>
</g>
<g>
</g>
<g>
</g>
<g>
</g>
<g>
</g>
</svg>
