<?xml version="1.0" encoding="iso-8859-1"?>
<!-- Generator: Adobe Illustrator 19.0.0, SVG Export Plug-In . SVG Version: 6.00 Build 0)  -->
<svg xmlns="http://www.w3.org/2000/svg" preserveAspectRatio="none" xmlns:xlink="http://www.w3.org/1999/xlink" version="1.1" id="Capa_1" x="0px" y="0px" viewBox="0 0 64.085 64.085" style="enable-background:new 0 0 64.085 64.085;" xml:space="preserve" width="512px" height="512px">
<g id="PIng-pong">
	<path d="M44.339,2.455c-10.588-6.11-25.352-0.419-32.918,12.687C8,21.064,6.491,27.762,7.173,34.001   c0.002,0.013,0.007,0.024,0.009,0.037c0.001,0.009-0.002,0.018-0.001,0.028c0.586,5.223,2.726,9.851,6.053,13.134L6.423,58.995   c-0.289,0.5-0.118,1.141,0.383,1.43l6.096,3.52c0.165,0.095,0.345,0.14,0.523,0.14c0.361,0,0.714-0.187,0.907-0.523l6.811-11.795   c4.504,1.24,9.582,0.778,14.4-1.327c0.012-0.005,0.021-0.015,0.033-0.02c0.008-0.004,0.018-0.002,0.026-0.006   c5.743-2.526,10.79-7.18,14.21-13.106C57.379,24.201,54.924,8.566,44.339,2.455z M20.974,49.53   c-0.473-0.156-0.985,0.042-1.232,0.472l-6.701,11.606l-4.283-2.473l6.701-11.606c0.248-0.429,0.161-0.972-0.207-1.302   c-2.826-2.538-4.794-6.132-5.654-10.273l23.1,13.336C28.682,50.614,24.585,50.708,20.974,49.53z M35.237,48.279L9.203,33.249   c-0.496-5.65,0.927-11.687,4.03-17.061C20.222,4.082,33.704-1.268,43.292,4.268c9.585,5.534,11.696,19.886,4.707,31.992   C44.895,41.636,40.378,45.886,35.237,48.279z" fill="#FFFFFF"/>
	<path d="M51.811,51.732c-3.304,0-5.991,2.688-5.991,5.991s2.688,5.991,5.991,5.991s5.991-2.688,5.991-5.991   S55.115,51.732,51.811,51.732z M51.811,61.732c-2.21,0-4.009-1.798-4.009-4.009c0-2.21,1.799-4.009,4.009-4.009   s4.009,1.798,4.009,4.009C55.82,59.934,54.021,61.732,51.811,61.732z" fill="#FFFFFF"/>
</g>
<g>
</g>
<g>
</g>
<g>
</g>
<g>
</g>
<g>
</g>
<g>
</g>
<g>
</g>
<g>
</g>
<g>
</g>
<g>
</g>
<g>
</g>
<g>
</g>
<g>
</g>
<g>
</g>
<g>
</g>
</svg>
