<?xml version="1.0" encoding="iso-8859-1"?>
<!-- Generator: Adobe Illustrator 19.0.0, SVG Export Plug-In . SVG Version: 6.00 Build 0)  -->
<svg xmlns="http://www.w3.org/2000/svg" preserveAspectRatio="none" xmlns:xlink="http://www.w3.org/1999/xlink" version="1.1" id="Capa_1" x="0px" y="0px" viewBox="0 0 64 64" style="enable-background:new 0 0 64 64;" xml:space="preserve" width="512px" height="512px">
<g id="Prize">
	<path d="M63,42H46V31c0-0.552-0.447-1-1-1H19c-0.553,0-1,0.448-1,1v7H1c-0.553,0-1,0.448-1,1v18c0,0.552,0.447,1,1,1h18h26h18   c0.553,0,1-0.448,1-1V43C64,42.448,63.553,42,63,42z M2,40h16v16H2V40z M20,32h24v24H20V32z M62,56H46V44h16V56z" fill="#FFFFFF"/>
	<path d="M28.2,17.27l-1.762,5.421c-0.134,0.412,0.013,0.863,0.363,1.118c0.351,0.255,0.824,0.255,1.176,0l4.611-3.351l4.61,3.351   C37.374,23.937,37.581,24,37.787,24c0.206,0,0.412-0.063,0.588-0.191c0.351-0.254,0.497-0.706,0.363-1.118l-1.761-5.421l4.61-3.351   c0.351-0.255,0.497-0.706,0.363-1.118C41.817,12.389,41.434,12.11,41,12.11h-5.7l-1.76-5.419C33.406,6.279,33.022,6,32.589,6   c-0.434,0-0.817,0.279-0.951,0.691l-1.762,5.419h-5.7c-0.434,0-0.817,0.279-0.951,0.691s0.013,0.863,0.363,1.118L28.2,17.27z    M30.603,14.11c0.434,0,0.817-0.279,0.951-0.691l1.035-3.183l1.033,3.183c0.134,0.412,0.517,0.691,0.951,0.691h3.35l-2.709,1.969   c-0.351,0.255-0.497,0.706-0.363,1.118l1.034,3.184l-2.708-1.968c-0.175-0.127-0.382-0.191-0.588-0.191   c-0.206,0-0.412,0.064-0.588,0.191l-2.709,1.968l1.035-3.184c0.134-0.412-0.013-0.863-0.363-1.118l-2.71-1.969H30.603z" fill="#FFFFFF"/>
</g>
<g>
</g>
<g>
</g>
<g>
</g>
<g>
</g>
<g>
</g>
<g>
</g>
<g>
</g>
<g>
</g>
<g>
</g>
<g>
</g>
<g>
</g>
<g>
</g>
<g>
</g>
<g>
</g>
<g>
</g>
</svg>
