<?xml version="1.0" encoding="iso-8859-1"?>
<!-- Generator: Adobe Illustrator 19.0.0, SVG Export Plug-In . SVG Version: 6.00 Build 0)  -->
<svg xmlns="http://www.w3.org/2000/svg" preserveAspectRatio="none" xmlns:xlink="http://www.w3.org/1999/xlink" version="1.1" id="Capa_1" x="0px" y="0px" viewBox="0 0 64.001 64.001" style="enable-background:new 0 0 64.001 64.001;" xml:space="preserve" width="512px" height="512px">
<g id="Swimmer">
	<path d="M1.658,43.955c3.697-3.231,7.122-3.224,11.041-0.04c2.31,2.273,4.596,3.406,6.885,3.406c2.276,0,4.555-1.121,6.861-3.355   c3.609-3.049,7.251-3.042,11.082-0.025c4.456,4.06,9.208,4.061,13.768-0.019c3.598-3.473,7.105-3.465,11.042,0.028   c0.414,0.366,1.045,0.329,1.412-0.084c0.367-0.413,0.329-1.045-0.084-1.412c-4.68-4.153-9.438-4.143-13.73,0.003   c-3.811,3.407-7.324,3.409-11.114-0.04c-1.856-1.464-3.699-2.336-5.525-2.634l4.042-4.494c1.067,0.66,2.32,1.047,3.664,1.047   c3.86,0,7-3.14,7-7c0-3.86-3.14-7-7-7c-3.86,0-7,3.14-7,7c0,1.795,0.685,3.429,1.8,4.67l-1.406,1.563l-3.114-3.807   c-3.829-4.679-3.336-11.545,1.121-15.631l6.235-5.715c0.407-0.373,0.435-1.006,0.061-1.413c-0.373-0.406-1.005-0.435-1.413-0.062   l-6.235,5.715c-5.238,4.802-5.817,12.872-1.317,18.372l3.309,4.044l-2.025,2.251c-0.11,0.123-0.173,0.266-0.212,0.415   c-1.925,0.252-3.827,1.161-5.7,2.744c-3.94,3.814-7.128,3.818-11.073-0.057c-4.761-3.876-9.239-3.869-13.689,0.022   c-0.416,0.364-0.458,0.996-0.095,1.411C0.611,44.277,1.243,44.319,1.658,43.955z M41,24.336c2.757,0,5,2.243,5,5   c0,2.757-2.243,5-5,5c-2.757,0-5-2.243-5-5C36,26.579,38.244,24.336,41,24.336z" fill="#FFFFFF"/>
	<path d="M49.934,50.457c-3.81,3.406-7.324,3.408-11.114-0.04c-4.68-3.691-9.278-3.684-13.715,0.067   c-3.94,3.814-7.128,3.817-11.073-0.057c-4.761-3.876-9.239-3.869-13.689,0.022c-0.416,0.364-0.458,0.996-0.095,1.411   c0.364,0.416,0.996,0.458,1.411,0.095c3.697-3.231,7.122-3.224,11.041-0.04c2.31,2.273,4.596,3.406,6.885,3.406   c2.276,0,4.555-1.121,6.861-3.355c3.609-3.049,7.251-3.042,11.082-0.025c4.456,4.058,9.208,4.059,13.768-0.019   c3.598-3.474,7.105-3.465,11.042,0.028c0.414,0.366,1.045,0.328,1.412-0.084c0.367-0.413,0.329-1.045-0.084-1.412   C58.984,46.301,54.227,46.313,49.934,50.457z" fill="#FFFFFF"/>
</g>
<g>
</g>
<g>
</g>
<g>
</g>
<g>
</g>
<g>
</g>
<g>
</g>
<g>
</g>
<g>
</g>
<g>
</g>
<g>
</g>
<g>
</g>
<g>
</g>
<g>
</g>
<g>
</g>
<g>
</g>
</svg>
