<?xml version="1.0" encoding="utf-8"?>
<!-- Generator: Adobe Illustrator 21.0.0, SVG Export Plug-In . SVG Version: 6.00 Build 0)  -->
<svg version="1.1" id="Layer_1" xmlns="http://www.w3.org/2000/svg" xmlns:xlink="http://www.w3.org/1999/xlink" x="0px" y="0px"
	 viewBox="0 0 190 190" style="enable-background:new 0 0 190 190;" xml:space="preserve">
<style type="text/css">
	.st0{fill:#28A745;}
</style>
<g>
	<line class="st0" x1="94.5" y1="18" x2="94.5" y2="172"/>
	<g>
		<path class="st0" d="M76.5,18c0,44.9,0,89.9,0,134.8c0,6.4,0,12.8,0,19.2c0,9.4,8.3,18.4,18,18c9.8-0.4,18-7.9,18-18
			c0-44.9,0-89.9,0-134.8c0-6.4,0-12.8,0-19.2c0-9.4-8.3-18.4-18-18C84.8,0.5,76.5,7.9,76.5,18L76.5,18z"/>
	</g>
</g>
<g>
	<line class="st0" x1="18" y1="95" x2="172" y2="95"/>
	<g>
		<path class="st0" d="M18,113c44.9,0,89.9,0,134.8,0c6.4,0,12.8,0,19.2,0c9.4,0,18.4-8.3,18-18c-0.4-9.8-7.9-18-18-18
			c-44.9,0-89.9,0-134.8,0c-6.4,0-12.8,0-19.2,0C8.6,77-0.4,85.3,0,95C0.5,104.8,7.9,113,18,113L18,113z"/>
	</g>
</g>
</svg>
