<?xml version="1.0" encoding="iso-8859-1"?>
<!-- Generator: Adobe Illustrator 19.0.0, SVG Export Plug-In . SVG Version: 6.00 Build 0)  -->
<svg version="1.1" id="Capa_1" xmlns="http://www.w3.org/2000/svg" preserveAspectRatio="none" xmlns:xlink="http://www.w3.org/1999/xlink" x="0px" y="0px"
	 viewBox="0 0 512.065 512.065" style="enable-background:new 0 0 512.065 512.065;" xml:space="preserve">
<g transform="translate(-1 -1)">
	<path style="fill:#CC4B4C;" d="M438.087,438.102c-77.945,77.895-196.978,97.2-295.548,47.934
		c-5.561-2.737-11.034-5.65-16.419-8.916c-6.091-3.619-12.006-7.503-17.832-11.652c-4.855-3.443-9.446-6.974-14.124-10.946h-0.088
		c-3.972-3.266-7.945-6.709-11.741-10.328c-2.119-1.942-4.238-3.972-6.356-6.091c-2.118-2.119-4.148-4.237-6.091-6.356
		c-3.619-3.796-6.974-7.68-10.24-11.652c-3.884-4.679-7.503-9.357-10.946-14.212c-4.237-5.826-8.121-11.829-11.741-17.92
		c-3.246-5.35-6.222-10.859-8.916-16.508C-21.233,272.897-1.909,153.863,76.018,75.956s196.965-97.2,295.51-47.896
		c5.561,2.737,11.034,5.65,16.419,8.916c6.091,3.619,12.094,7.503,17.92,11.741c4.855,3.443,9.534,7.062,14.212,10.858
		c3.972,3.354,7.857,6.709,11.652,10.328c2.119,1.942,4.238,3.972,6.356,6.091c2.118,2.119,4.148,4.237,6.091,6.356
		c3.619,3.796,7.062,7.768,10.328,11.741c3.884,4.679,7.503,9.357,10.946,14.212c4.149,5.826,8.033,11.741,11.652,17.832
		c3.246,5.35,6.222,10.859,8.916,16.508C535.288,241.183,515.98,360.192,438.087,438.102z"/>
	<g>
		<path style="fill:#F5EFCA;" d="M465.453,108.303c-3.443-4.855-7.062-9.534-10.946-14.212c-0.425,0.337-0.81,0.722-1.148,1.148
			c-52.877,63.117-110.61,125.97-171.343,186.792C221.282,342.764,158.43,400.408,95.224,453.374
			c-0.42,0.315-0.779,0.704-1.059,1.148c4.679,3.972,9.269,7.503,14.124,10.946c63.029-52.966,125.617-110.433,186.174-170.99
			C355.108,233.92,412.576,171.244,465.453,108.303z"/>
		<path style="fill:#F5EFCA;" d="M227.196,400.496c-4.502,3.796-9.004,7.415-13.594,11.123c-2.887,2.367-3.981,6.289-2.735,9.809
			c1.246,3.519,4.563,5.88,8.297,5.904c1.996,0.016,3.934-0.671,5.473-1.942c4.679-3.708,9.269-7.503,13.859-11.299
			c3.717-3.13,4.21-8.674,1.104-12.411C236.494,397.943,230.953,397.415,227.196,400.496L227.196,400.496z"/>
		<path style="fill:#F5EFCA;" d="M267.009,366.157c-4.326,3.972-8.651,7.857-13.065,11.652c-3.64,3.203-4.013,8.743-0.836,12.406
			c3.177,3.663,8.715,4.075,12.4,0.924c4.502-3.884,8.916-7.857,13.33-11.829c1.746-1.556,2.802-3.742,2.935-6.077
			c0.132-2.335-0.669-4.627-2.228-6.37C276.268,363.226,270.672,362.911,267.009,366.157L267.009,366.157z"/>
		<path style="fill:#F5EFCA;" d="M185.972,433.159c-4.679,3.531-9.357,7.062-14.036,10.505c-1.898,1.383-3.162,3.469-3.511,5.792
			c-0.348,2.323,0.248,4.688,1.657,6.567c1.359,1.903,3.431,3.173,5.743,3.523c2.312,0.349,4.667-0.253,6.527-1.669
			c4.767-3.443,9.534-7.062,14.301-10.593c2.523-1.908,3.837-5.017,3.446-8.156c-0.391-3.139-2.427-5.831-5.341-7.062
			S188.495,431.251,185.972,433.159L185.972,433.159z"/>
		<path style="fill:#F5EFCA;" d="M143.423,464.055c-4.855,3.354-9.622,6.621-14.389,9.887c-0.452,0.191-0.847,0.495-1.148,0.883
			c-0.71,0.663-1.307,1.438-1.766,2.295c5.385,3.266,10.858,6.179,16.419,8.916c3.619-2.472,7.327-4.943,10.946-7.503
			c2.586-1.798,4.017-4.838,3.753-7.977c-0.264-3.138-2.182-5.898-5.032-7.239C149.357,461.976,146.009,462.257,143.423,464.055
			L143.423,464.055z"/>
		<path style="fill:#F5EFCA;" d="M443.649,171.95c-3.443,4.679-6.974,9.357-10.505,14.036c-2.911,3.904-2.122,9.426,1.766,12.359
			c1.516,1.168,3.383,1.79,5.297,1.766c2.774-0.018,5.383-1.323,7.062-3.531c3.531-4.679,7.15-9.446,10.593-14.212
			c1.405-1.88,2-4.245,1.652-6.566c-0.348-2.322-1.611-4.407-3.506-5.792C452.053,167.154,446.537,168.021,443.649,171.95z"/>
		<path style="fill:#F5EFCA;" d="M305.497,330.229c-4.237,4.061-8.475,8.121-12.712,12.182c-1.688,1.614-2.665,3.833-2.715,6.169
			c-0.05,2.335,0.832,4.594,2.45,6.278c1.639,1.766,3.946,2.76,6.356,2.737c2.26,0.014,4.44-0.839,6.091-2.383
			c4.326-4.061,8.563-8.21,12.8-12.359c3.486-3.388,3.565-8.961,0.177-12.447C314.556,326.92,308.983,326.841,305.497,330.229
			L305.497,330.229z"/>
		<path style="fill:#F5EFCA;" d="M411.605,213.616c-3.619,4.502-7.327,9.092-11.034,13.594c-1.521,1.777-2.257,4.094-2.04,6.422
			c0.216,2.329,1.366,4.47,3.188,5.937c1.576,1.337,3.583,2.058,5.65,2.03c2.628,0.017,5.125-1.15,6.797-3.178
			c3.796-4.59,7.503-9.181,11.211-13.772c1.477-1.825,2.167-4.163,1.919-6.498c-0.248-2.335-1.415-4.475-3.243-5.949
			C420.212,209.2,414.674,209.829,411.605,213.616L411.605,213.616z"/>
		<path style="fill:#F5EFCA;" d="M477.105,126.135c-0.777,0.428-1.49,0.963-2.119,1.589c-0.423,0.346-0.782,0.765-1.059,1.236
			c-3.266,4.855-6.532,9.622-9.887,14.389c-2.745,4.035-1.765,9.523,2.207,12.359c1.484,1.013,3.235,1.566,5.032,1.589
			c2.895,0.019,5.609-1.404,7.239-3.796c2.56-3.619,5.031-7.238,7.503-10.858C483.327,136.994,480.352,131.485,477.105,126.135
			L477.105,126.135z"/>
		<path style="fill:#F5EFCA;" d="M377.795,253.87c-3.796,4.414-7.68,8.828-11.564,13.153c-1.571,1.731-2.389,4.017-2.273,6.352
			c0.116,2.335,1.156,4.528,2.891,6.095c1.623,1.466,3.728,2.283,5.915,2.295c2.496,0.016,4.877-1.046,6.532-2.913
			c3.972-4.414,7.945-8.916,11.829-13.33c3.189-3.684,2.802-9.252-0.866-12.459C386.59,249.857,381.019,250.217,377.795,253.87z"/>
		<path style="fill:#F5EFCA;" d="M342.396,292.8c-3.972,4.237-8.033,8.474-12.094,12.623c-2.438,2.549-3.135,6.299-1.775,9.554
			c1.359,3.254,4.517,5.395,8.043,5.453c2.387-0.001,4.675-0.954,6.356-2.648c4.149-4.326,8.21-8.563,12.27-12.888
			c1.618-1.684,2.5-3.943,2.45-6.278c-0.05-2.335-1.026-4.555-2.715-6.169C351.365,289.102,345.769,289.26,342.396,292.8
			L342.396,292.8z"/>
		<path style="fill:#F5EFCA;" d="M202.479,186.339c2.279,0.022,4.472-0.868,6.091-2.472c4.237-4.06,8.474-8.121,12.712-12.182
			c3.511-3.369,3.638-8.942,0.284-12.467c-3.355-3.525-8.928-3.674-12.466-0.333c-4.326,4.061-8.563,8.21-12.8,12.359
			c-1.696,1.615-2.67,3.845-2.703,6.186c-0.033,2.342,0.877,4.598,2.527,6.261C197.805,185.385,200.092,186.338,202.479,186.339
			L202.479,186.339z"/>
		<path style="fill:#F5EFCA;" d="M241.144,150.146c2.174,0.005,4.276-0.779,5.914-2.207c4.326-3.972,8.651-7.857,13.065-11.652
			c2.393-2.063,3.5-5.247,2.904-8.349c-0.596-3.102-2.806-5.649-5.793-6.677c-2.987-1.028-6.296-0.381-8.675,1.697
			c-4.502,3.884-8.916,7.857-13.33,11.829c-2.742,2.432-3.687,6.311-2.37,9.731C234.177,147.938,237.479,150.182,241.144,150.146z"
			/>
		<path style="fill:#F5EFCA;" d="M322.799,82.703c1.907-0.018,3.76-0.635,5.297-1.766c4.679-3.531,9.357-7.062,14.036-10.505
			c2.539-1.861,3.892-4.935,3.55-8.064c-0.342-3.129-2.327-5.838-5.208-7.106c-2.881-1.268-6.219-0.903-8.758,0.957
			c-4.767,3.443-9.534,7.062-14.301,10.593c-3.007,2.311-4.21,6.28-2.993,9.871C315.639,80.277,319.007,82.696,322.799,82.703
			L322.799,82.703z"/>
		<path style="fill:#F5EFCA;" d="M365.613,51.63c1.801,0.003,3.559-0.552,5.032-1.589c4.855-3.354,9.622-6.621,14.389-9.887
			c0.452-0.191,0.847-0.495,1.148-0.883c0.71-0.663,1.307-1.438,1.766-2.295c-5.385-3.266-10.858-6.179-16.419-8.916
			c-3.619,2.472-7.327,4.943-10.946,7.503c-3.161,2.203-4.528,6.202-3.377,9.879C358.356,49.12,361.76,51.625,365.613,51.63
			L365.613,51.63z"/>
		<path style="fill:#F5EFCA;" d="M165.227,224.033c2.435,0.024,4.77-0.968,6.444-2.737c3.972-4.237,8.033-8.474,12.094-12.624
			c3.39-3.49,3.32-9.063-0.157-12.466c-3.476-3.403-9.05-3.355-12.467,0.108c-4.149,4.326-8.21,8.563-12.27,12.888
			c-1.618,1.684-2.499,3.943-2.45,6.278c0.05,2.335,1.026,4.554,2.714,6.169C160.795,223.18,162.969,224.031,165.227,224.033z"/>
		<path style="fill:#F5EFCA;" d="M281.221,115.63c2.059-0.015,4.052-0.731,5.65-2.03c4.502-3.796,9.004-7.415,13.594-11.123
			c1.828-1.454,2.997-3.58,3.246-5.902c0.249-2.323-0.443-4.648-1.922-6.456c-3.03-3.79-8.552-4.421-12.359-1.412
			c-4.679,3.708-9.269,7.503-13.859,11.299c-3.715,3.103-4.228,8.624-1.148,12.359C276.1,114.399,278.586,115.594,281.221,115.63
			L281.221,115.63z"/>
		<path style="fill:#F5EFCA;" d="M129.563,263.228c2.558-0.015,4.992-1.104,6.709-3.001c3.796-4.414,7.68-8.828,11.564-13.153
			c2.12-2.333,2.832-5.62,1.868-8.621c-0.964-3.001-3.457-5.258-6.539-5.92c-3.082-0.662-6.282,0.372-8.394,2.713
			c-3.972,4.414-7.945,8.916-11.829,13.33c-1.537,1.766-2.307,4.071-2.142,6.407c0.166,2.335,1.254,4.509,3.024,6.04
			C125.397,262.444,127.443,263.231,129.563,263.228L129.563,263.228z"/>
		<path style="fill:#F5EFCA;" d="M47.82,358.389c-4.003-2.754-9.477-1.769-12.27,2.207c-2.56,3.619-5.031,7.239-7.503,10.858
			c2.694,5.648,5.67,11.158,8.916,16.508c0.796-0.398,1.513-0.936,2.119-1.589c0.423-0.346,0.782-0.765,1.059-1.236
			c3.266-4.855,6.532-9.622,9.887-14.389C52.771,366.713,51.791,361.225,47.82,358.389L47.82,358.389z"/>
		<path style="fill:#F5EFCA;" d="M63.268,345.765c2.825,0.008,5.484-1.338,7.15-3.619c3.443-4.679,6.974-9.358,10.505-14.036
			c1.892-2.523,2.295-5.864,1.056-8.764c-1.239-2.9-3.931-4.919-7.062-5.297c-3.131-0.377-6.226,0.945-8.118,3.468
			c-3.531,4.679-7.15,9.445-10.593,14.212c-2.001,2.664-2.319,6.232-0.822,9.208C56.882,343.914,59.937,345.784,63.268,345.765
			L63.268,345.765z"/>
		<path style="fill:#F5EFCA;" d="M95.577,303.834c2.686-0.011,5.221-1.246,6.886-3.354c3.619-4.502,7.327-9.092,11.034-13.594
			c1.52-1.777,2.256-4.094,2.04-6.422s-1.366-4.47-3.188-5.937c-1.801-1.503-4.126-2.226-6.462-2.011
			c-2.336,0.215-4.489,1.352-5.985,3.158c-3.796,4.59-7.503,9.181-11.211,13.771c-1.477,1.825-2.167,4.163-1.919,6.498
			c0.248,2.335,1.415,4.475,3.243,5.949C91.615,303.115,93.564,303.796,95.577,303.834L95.577,303.834z"/>
		<path style="fill:#F5EFCA;" d="M418.932,60.811c0.449-0.344,0.837-0.762,1.148-1.236c-4.679-3.796-9.357-7.415-14.212-10.858
			c-63.029,52.877-125.617,110.433-186.174,170.99S101.58,342.852,48.703,405.881c3.443,4.855,7.062,9.534,10.946,14.212
			c0.425-0.337,0.811-0.722,1.148-1.148c52.966-63.206,110.61-126.058,171.343-186.792S355.726,113.776,418.932,60.811z"/>
		<path style="fill:#F5EFCA;" d="M438.087,75.994c-2.119-2.119-4.237-4.149-6.356-6.091L69.889,431.746
			c1.942,2.119,3.972,4.237,6.091,6.356c2.119,2.119,4.237,4.149,6.356,6.091L444.178,82.35
			C442.236,80.232,440.206,78.113,438.087,75.994z"/>
	</g>
</g>
<g>
</g>
<g>
</g>
<g>
</g>
<g>
</g>
<g>
</g>
<g>
</g>
<g>
</g>
<g>
</g>
<g>
</g>
<g>
</g>
<g>
</g>
<g>
</g>
<g>
</g>
<g>
</g>
<g>
</g>
</svg>
