<svg xmlns="http://www.w3.org/2000/svg" viewBox="0 0 294 510" id="el_bH15SMp5v"><style>@-webkit-keyframes el_JYnHAC5V2f_J3Pm8y4oy_Animation{0%{-webkit-transform: translate(0px, 0px);transform: translate(0px, 0px);}100%{-webkit-transform: translate(-60px, 10px);transform: translate(-60px, 10px);}}@keyframes el_JYnHAC5V2f_J3Pm8y4oy_Animation{0%{-webkit-transform: translate(0px, 0px);transform: translate(0px, 0px);}100%{-webkit-transform: translate(-60px, 10px);transform: translate(-60px, 10px);}}@-webkit-keyframes el_JYnHAC5V2f_rrc0GPJMV_Animation{0%{-webkit-transform: rotate(0deg);transform: rotate(0deg);}100%{-webkit-transform: rotate(-30deg);transform: rotate(-30deg);}}@keyframes el_JYnHAC5V2f_rrc0GPJMV_Animation{0%{-webkit-transform: rotate(0deg);transform: rotate(0deg);}100%{-webkit-transform: rotate(-30deg);transform: rotate(-30deg);}}@-webkit-keyframes el_eM2PcUkTiU_Q9FoSLa-V_Animation{0%{-webkit-transform: translate(0px, 0px);transform: translate(0px, 0px);}100%{-webkit-transform: translate(0px, 0px);transform: translate(0px, 0px);}}@keyframes el_eM2PcUkTiU_Q9FoSLa-V_Animation{0%{-webkit-transform: translate(0px, 0px);transform: translate(0px, 0px);}100%{-webkit-transform: translate(0px, 0px);transform: translate(0px, 0px);}}@-webkit-keyframes el_eM2PcUkTiU_u_WXLMP5b_Animation{0%{-webkit-transform: rotate(0deg);transform: rotate(0deg);}100%{-webkit-transform: rotate(-10deg);transform: rotate(-10deg);}}@keyframes el_eM2PcUkTiU_u_WXLMP5b_Animation{0%{-webkit-transform: rotate(0deg);transform: rotate(0deg);}100%{-webkit-transform: rotate(-10deg);transform: rotate(-10deg);}}#el_bH15SMp5v *{-webkit-animation-duration: 1s;animation-duration: 1.5s;-webkit-animation-timing-function: cubic-bezier(0, 0, 1, 1);animation-timing-function: cubic-bezier(0, 0, 1, 1);}#el_XzCi1_tuFu{fill: #ffd5a1;}#el_uOTrKHazhM{fill: #eaf2df;}#el_g537vrDBbv{fill: #eaf2df;-webkit-transform: translate(-92.62px, 79.35px) rotate(-21.9deg);transform: translate(-92.62px, 79.35px) rotate(-21.9deg);}#el_eM2PcUkTiU_u_WXLMP5b{-webkit-animation-name: el_eM2PcUkTiU_u_WXLMP5b_Animation;animation-name: el_eM2PcUkTiU_u_WXLMP5b_Animation;-webkit-transform-origin: 50% 50%;transform-origin: 50% 50%;transform-box: fill-box;-webkit-transform: rotate(0deg);transform: rotate(0deg);}#el_eM2PcUkTiU_Q9FoSLa-V{-webkit-animation-name: el_eM2PcUkTiU_Q9FoSLa-V_Animation;animation-name: el_eM2PcUkTiU_Q9FoSLa-V_Animation;-webkit-transform-origin: 50% 50%;transform-origin: 50% 50%;transform-box: fill-box;-webkit-transform: translate(0px, 0px);transform: translate(0px, 0px);}#el_JYnHAC5V2f_rrc0GPJMV{-webkit-animation-name: el_JYnHAC5V2f_rrc0GPJMV_Animation;animation-name: el_JYnHAC5V2f_rrc0GPJMV_Animation;-webkit-transform-origin: 50% 50%;transform-origin: 50% 50%;transform-box: fill-box;-webkit-transform: rotate(0deg);transform: rotate(0deg);}#el_JYnHAC5V2f_J3Pm8y4oy{-webkit-animation-name: el_JYnHAC5V2f_J3Pm8y4oy_Animation;animation-name: el_JYnHAC5V2f_J3Pm8y4oy_Animation;-webkit-transform-origin: 50% 50%;transform-origin: 50% 50%;transform-box: fill-box;-webkit-transform: translate(0px, 0px);transform: translate(0px, 0px);}</style><defs/><title>Asset 1</title><g id="el_0djdHkBE2N" data-name="Layer 2"><g id="el_5v2OjeFZYa" data-name="Layer 1"><g id="el_eM2PcUkTiU_Q9FoSLa-V" data-animator-group="true" data-animator-type="0"><g id="el_eM2PcUkTiU_u_WXLMP5b" data-animator-group="true" data-animator-type="1"><path d="M105.24,247l-9,77,2.64-6.36-51,47c-8.54,7.87,4.22,20.57,12.73,12.73L108,333.66c3.23-3,5.61-4.83,6.22-9.73.35-2.77.65-5.55,1-8.32l4.55-38.92L123.24,247c.57-4.84-4.54-9-9-9-5.33,0-8.43,4.15-9,9Z" id="el_eM2PcUkTiU"/></g></g><path d="M74.46,164.47A37.79,37.79,0,0,1,62.34,149.1l72.73-10.41a38.08,38.08,0,0,1-60.61,25.79Z" id="el_XzCi1_tuFu"/><path d="M120.13,103.57a37.91,37.91,0,0,1,12.12,15.32L59.51,129.3a38.05,38.05,0,0,1,60.62-25.73Z" id="el_uOTrKHazhM"/><path d="M155.65,130a58.08,58.08,0,0,0-115.71-.41L9.17,132.17a10,10,0,1,0,1.66,19.93l30.78-2.56a58.07,58.07,0,0,0,114-19.52Zm-75.94-28.7a38.16,38.16,0,0,1,53.86,20.5l-73.23,6.09a38.32,38.32,0,0,1,19.37-26.59Zm21.23,71.46A38,38,0,0,1,62,147.84l73.22-6.09A38.13,38.13,0,0,1,100.94,172.77Z" id="el_7vpPPSEvF4"/><rect x="109.24" y="200" width="99" height="158" rx="28" ry="28" id="el_g537vrDBbv"/><path d="M205.77,335.6l-36.32,14.6c-6.57,2.64-13,4.51-19.83,1.26a18.86,18.86,0,0,1-5.54-4,17.28,17.28,0,0,1-2.29-2.92c-.37-.6-2.16-4.16-1.28-2.15-.34-.78-.64-1.59-1-2.38l-32.67-81.25C102.55,248,96.38,235.8,106.66,226A17.84,17.84,0,0,1,109,224c.72-.49,3.8-2.11,3.16-1.81-1,.46.58-.23.84-.33l8.12-3.26,23-9.25c5.6-2.25,11.44-5.33,17.65-4.6a19.4,19.4,0,0,1,12.53,6.76,19,19,0,0,1,1.74,2.52c.28.48,1.85,3.69.93,1.59.1.24.19.48.29.72,4.55,10.88,8.8,21.89,13.2,32.83L209,295.28c3.83,9.54,10.7,21,5.84,31.22-2.32,4.87-6.36,7.91-11.22,10-4.46,1.92-5.47,8.48-3.23,12.31,2.7,4.61,7.83,5.16,12.31,3.23,13.19-5.69,21.89-19.3,22-33.61,0-6.25-1.84-11.76-4.11-17.4L213,257.22l-17.2-42.77c-2.6-6.46-5.36-12.66-10.59-17.54A37.44,37.44,0,0,0,146.82,189c-13,4.92-25.87,10.35-38.76,15.58C97,209.08,88.64,216.69,84.66,228.16c-3,8.53-2.18,17.76,1.12,26,11.44,28.69,23,57.31,34.56,86,1.56,3.87,3,8,4.89,11.68a37.28,37.28,0,0,0,35.11,19.38c7.48-.58,14.08-3.74,20.94-6.49l24.2-9.73,5.07-2c4.51-1.81,7.68-6,6.29-11.07C215.66,337.61,210.3,333.78,205.77,335.6Z" id="el_GjFBEJKu_O"/><path d="M152.94,330.7l-18.41,70.74c-1.58,6.08-2.42,12.37-3.54,18.55l-8.53,47.07-5.89,32.54c-.87,4.78,1.3,9.7,6.29,11.07,4.36,1.2,10.2-1.48,11.07-6.29l13.48-74.44c1.32-7.3,2.35-14.73,4-22,2.75-11.91,6.17-23.7,9.25-35.52l9.62-37c2.92-11.22-14.44-16-17.36-4.79Z" id="el_GyJfy4kT1K"/><g id="el_JYnHAC5V2f_J3Pm8y4oy" data-animator-group="true" data-animator-type="0"><g id="el_JYnHAC5V2f_rrc0GPJMV" data-animator-group="true" data-animator-type="1"><path d="M203.24,9l-9.82,92.8c-.37,3.46-1.53,7.7-1.18,11.19-.35-3.48.24-2.09-.43.26l-2.06,7.2-15.32,53.63-11.87,41.53c-3.19,11.16,14.18,15.92,17.36,4.79L205.74,130c2.26-7.91,4.31-15.18,5.17-23.33l5.62-53.13L221.24,9c.51-4.84-4.5-9-9-9-5.29,0-8.49,4.15-9,9Z" id="el_JYnHAC5V2f"/></g></g><path d="M192.24,337l6,89.39c.31,4.66.53,9.35.94,14,.47,5.32,2.86,7.11,6.51,10l39.33,31.16,33.83,26.8c3.81,3,9,3.72,12.73,0,3.13-3.13,3.83-9.69,0-12.73l-67.22-53.25-9.78-7.75,2.64,6.36-6.11-90.8-.89-13.2c-.77-11.5-18.78-11.58-18,0Z" id="el_vRrLKjXpLE"/></g></g><script>(function(){var a=document.querySelector('#el_bH15SMp5v'),b=a.querySelectorAll('style'),c=function(d){b.forEach(function(f){var g=f.textContent;g&amp;&amp;(f.textContent=g.replace(/transform-box:[^;\r\n]*/gi,'transform-box: '+d))})};c('initial'),window.requestAnimationFrame(function(){return c('fill-box')})})();</script></svg>