<svg id="rkFHOffz7" data-name="Layer 1" xmlns="http://www.w3.org/2000/svg" preserveAspectRatio="none" xmlns:xlink="http://www.w3.org/1999/xlink" viewBox="0 0 326 434"><style>@-webkit-keyframes HkYKHdfffQ_rykdKBMGX_Animation{0%{-webkit-transform:  rotate(0deg);transform:  rotate(0deg);}100%{-webkit-transform:  rotate(3deg);transform:  rotate(3deg);}}@keyframes HkYKHdfffQ_rykdKBMGX_Animation{0%{-webkit-transform:  rotate(0deg);transform:  rotate(0deg);}100%{-webkit-transform:  rotate(3deg);transform:  rotate(3deg);}}@-webkit-keyframes HyMYrdzMGm_H1gVKBMGX_Animation{0%{-webkit-transform:  translate(0px, 2px);transform:  translate(0px, 2px);}100%{-webkit-transform:  translate(0px, 2px);transform:  translate(0px, 2px);}}@keyframes HyMYrdzMGm_H1gVKBMGX_Animation{0%{-webkit-transform:  translate(0px, 2px);transform:  translate(0px, 2px);}100%{-webkit-transform:  translate(0px, 2px);transform:  translate(0px, 2px);}}@-webkit-keyframes HJWYBOMfMX_HynhdHMM7_Animation{0%{-webkit-transform:  translate(0px, 0px);transform:  translate(0px, 0px);}100%{-webkit-transform:  translate(5px, 4px);transform:  translate(5px, 4px);}}@keyframes HJWYBOMfMX_HynhdHMM7_Animation{0%{-webkit-transform:  translate(0px, 0px);transform:  translate(0px, 0px);}100%{-webkit-transform:  translate(5px, 4px);transform:  translate(5px, 4px);}}@-webkit-keyframes HJWYBOMfMX_S1Mj_HfM7_Animation{0%{-webkit-transform:  rotate(0deg);transform:  rotate(0deg);}100%{-webkit-transform:  rotate(-13deg);transform:  rotate(-13deg);}}@keyframes HJWYBOMfMX_S1Mj_HfM7_Animation{0%{-webkit-transform:  rotate(0deg);transform:  rotate(0deg);}100%{-webkit-transform:  rotate(-13deg);transform:  rotate(-13deg);}}@-webkit-keyframes HkmKrdzzMm_ryHd_SMz7_Animation{0%{-webkit-transform:  rotate(0deg);transform:  rotate(0deg);}100%{-webkit-transform:  rotate(-10deg);transform:  rotate(-10deg);}}@keyframes HkmKrdzzMm_ryHd_SMz7_Animation{0%{-webkit-transform:  rotate(0deg);transform:  rotate(0deg);}100%{-webkit-transform:  rotate(-10deg);transform:  rotate(-10deg);}}@-webkit-keyframes SJ9KS_GGfX_HJKfdBzf7_Animation{0%{-webkit-transform:  rotate(0deg);transform:  rotate(0deg);}100%{-webkit-transform:  rotate(5deg);transform:  rotate(5deg);}}@keyframes SJ9KS_GGfX_HJKfdBzf7_Animation{0%{-webkit-transform:  rotate(0deg);transform:  rotate(0deg);}100%{-webkit-transform:  rotate(5deg);transform:  rotate(5deg);}}@-webkit-keyframes SkHFHufMMX_SkIlHHzGQ_Animation{0%{-webkit-transform:  rotate(0deg);transform:  rotate(0deg);}33.33%{-webkit-transform:  rotate(-50.33deg);transform:  rotate(-50.33deg);}50%{-webkit-transform:  rotate(-65deg);transform:  rotate(-65deg);}100%{-webkit-transform:  rotate(-95deg);transform:  rotate(-95deg);}}@keyframes SkHFHufMMX_SkIlHHzGQ_Animation{0%{-webkit-transform:  rotate(0deg);transform:  rotate(0deg);}33.33%{-webkit-transform:  rotate(-50.33deg);transform:  rotate(-50.33deg);}50%{-webkit-transform:  rotate(-65deg);transform:  rotate(-65deg);}100%{-webkit-transform:  rotate(-95deg);transform:  rotate(-95deg);}}@-webkit-keyframes SkHFHufMMX_SJVgHrGGQ_Animation{0%{-webkit-transform:  translate(0px, 0px);transform:  translate(0px, 0px);}10%{-webkit-transform:  translate(31px, 30px);transform:  translate(31px, 30px);}33.33%{-webkit-transform:  translate(115px, 75px);transform:  translate(115px, 75px);}50%{-webkit-transform:  translate(155px, 70px);transform:  translate(155px, 70px);}56.67%{-webkit-transform:  translate(166px, 75px);transform:  translate(166px, 75px);}83.33%{-webkit-transform:  translate(211px, 85px);transform:  translate(211px, 85px);}100%{-webkit-transform:  translate(240px, 85px);transform:  translate(240px, 85px);}}@keyframes SkHFHufMMX_SJVgHrGGQ_Animation{0%{-webkit-transform:  translate(0px, 0px);transform:  translate(0px, 0px);}10%{-webkit-transform:  translate(31px, 30px);transform:  translate(31px, 30px);}33.33%{-webkit-transform:  translate(115px, 75px);transform:  translate(115px, 75px);}50%{-webkit-transform:  translate(155px, 70px);transform:  translate(155px, 70px);}56.67%{-webkit-transform:  translate(166px, 75px);transform:  translate(166px, 75px);}83.33%{-webkit-transform:  translate(211px, 85px);transform:  translate(211px, 85px);}100%{-webkit-transform:  translate(240px, 85px);transform:  translate(240px, 85px);}}@-webkit-keyframes rkNKr_MfGm_SyCRmHzz7_Animation{0%{-webkit-transform:  translate(0px, 0px);transform:  translate(0px, 0px);}10%{-webkit-transform:  translate(31px, 30px);transform:  translate(31px, 30px);}33.33%{-webkit-transform:  translate(115px, 75px);transform:  translate(115px, 75px);}50%{-webkit-transform:  translate(155px, 70px);transform:  translate(155px, 70px);}100%{-webkit-transform:  translate(240px, 85px);transform:  translate(240px, 85px);}}@keyframes rkNKr_MfGm_SyCRmHzz7_Animation{0%{-webkit-transform:  translate(0px, 0px);transform:  translate(0px, 0px);}10%{-webkit-transform:  translate(31px, 30px);transform:  translate(31px, 30px);}33.33%{-webkit-transform:  translate(115px, 75px);transform:  translate(115px, 75px);}50%{-webkit-transform:  translate(155px, 70px);transform:  translate(155px, 70px);}100%{-webkit-transform:  translate(240px, 85px);transform:  translate(240px, 85px);}}@-webkit-keyframes rkNKr_MfGm_rJsC7Hfz7_Animation{0%{-webkit-transform:  rotate(0deg);transform:  rotate(0deg);}33.33%{-webkit-transform:  rotate(-50.33deg);transform:  rotate(-50.33deg);}50%{-webkit-transform:  rotate(-65deg);transform:  rotate(-65deg);}100%{-webkit-transform:  rotate(-95deg);transform:  rotate(-95deg);}}@keyframes rkNKr_MfGm_rJsC7Hfz7_Animation{0%{-webkit-transform:  rotate(0deg);transform:  rotate(0deg);}33.33%{-webkit-transform:  rotate(-50.33deg);transform:  rotate(-50.33deg);}50%{-webkit-transform:  rotate(-65deg);transform:  rotate(-65deg);}100%{-webkit-transform:  rotate(-95deg);transform:  rotate(-95deg);}}@-webkit-keyframes B1DYrdGMzX_Hk9ekBzfQ_Animation{0%{-webkit-transform:  translate(20px, 10px);transform:  translate(20px, 10px);}10%{-webkit-transform:  translate(36px, 2px);transform:  translate(36px, 2px);}20%{-webkit-transform:  translate(60px, -10px);transform:  translate(60px, -10px);}33.33%{-webkit-transform:  translate(80px, -26px);transform:  translate(80px, -26px);}50%{-webkit-transform:  translate(98px, -45px);transform:  translate(98px, -45px);}100%{-webkit-transform:  translate(120px, -50px);transform:  translate(120px, -50px);}}@keyframes B1DYrdGMzX_Hk9ekBzfQ_Animation{0%{-webkit-transform:  translate(20px, 10px);transform:  translate(20px, 10px);}10%{-webkit-transform:  translate(36px, 2px);transform:  translate(36px, 2px);}20%{-webkit-transform:  translate(60px, -10px);transform:  translate(60px, -10px);}33.33%{-webkit-transform:  translate(80px, -26px);transform:  translate(80px, -26px);}50%{-webkit-transform:  translate(98px, -45px);transform:  translate(98px, -45px);}100%{-webkit-transform:  translate(120px, -50px);transform:  translate(120px, -50px);}}@-webkit-keyframes Hy2KHufGzX_B10X6MfMm_Animation{0%{-webkit-transform:  translate(40px, 10px);transform:  translate(40px, 10px);}50%{-webkit-transform:  translate(80px, 10px);transform:  translate(80px, 10px);}100%{-webkit-transform:  translate(95px, 0px);transform:  translate(95px, 0px);}}@keyframes Hy2KHufGzX_B10X6MfMm_Animation{0%{-webkit-transform:  translate(40px, 10px);transform:  translate(40px, 10px);}50%{-webkit-transform:  translate(80px, 10px);transform:  translate(80px, 10px);}100%{-webkit-transform:  translate(95px, 0px);transform:  translate(95px, 0px);}}@-webkit-keyframes ByxtSuffGQ_HyPGcfzzQ_Animation{0%{-webkit-transform:  translate(0px, 0px);transform:  translate(0px, 0px);}50%{-webkit-transform:  translate(20px, -50px);transform:  translate(20px, -50px);}100%{-webkit-transform:  translate(20px, -50px);transform:  translate(20px, -50px);}}@keyframes ByxtSuffGQ_HyPGcfzzQ_Animation{0%{-webkit-transform:  translate(0px, 0px);transform:  translate(0px, 0px);}50%{-webkit-transform:  translate(20px, -50px);transform:  translate(20px, -50px);}100%{-webkit-transform:  translate(20px, -50px);transform:  translate(20px, -50px);}}@-webkit-keyframes ByxtSuffGQ_rJCvFGffX_Animation{0%{-webkit-transform:  rotate(0deg);transform:  rotate(0deg);}50%{-webkit-transform:  rotate(-80deg);transform:  rotate(-80deg);}100%{-webkit-transform:  rotate(-100deg);transform:  rotate(-100deg);}}@keyframes ByxtSuffGQ_rJCvFGffX_Animation{0%{-webkit-transform:  rotate(0deg);transform:  rotate(0deg);}50%{-webkit-transform:  rotate(-80deg);transform:  rotate(-80deg);}100%{-webkit-transform:  rotate(-100deg);transform:  rotate(-100deg);}}@-webkit-keyframes Hy2KHufGzX_H1WBFzMGQ_Animation{0%{-webkit-transform:  rotate(0deg);transform:  rotate(0deg);}50%{-webkit-transform:  rotate(-45deg);transform:  rotate(-45deg);}100%{-webkit-transform:  rotate(-60deg);transform:  rotate(-60deg);}}@keyframes Hy2KHufGzX_H1WBFzMGQ_Animation{0%{-webkit-transform:  rotate(0deg);transform:  rotate(0deg);}50%{-webkit-transform:  rotate(-45deg);transform:  rotate(-45deg);}100%{-webkit-transform:  rotate(-60deg);transform:  rotate(-60deg);}}@-webkit-keyframes B1DYrdGMzX_S1BzKMzzX_Animation{0%{-webkit-transform:  rotate(0deg);transform:  rotate(0deg);}20%{-webkit-transform:  rotate(-28deg);transform:  rotate(-28deg);}33.33%{-webkit-transform:  rotate(-52.44deg);transform:  rotate(-52.44deg);}50%{-webkit-transform:  rotate(-65deg);transform:  rotate(-65deg);}56.67%{-webkit-transform:  rotate(-70.08deg);transform:  rotate(-70.08deg);}83.33%{-webkit-transform:  rotate(-90.41deg);transform:  rotate(-90.41deg);}100%{-webkit-transform:  rotate(-98deg);transform:  rotate(-98deg);}}@keyframes B1DYrdGMzX_S1BzKMzzX_Animation{0%{-webkit-transform:  rotate(0deg);transform:  rotate(0deg);}20%{-webkit-transform:  rotate(-28deg);transform:  rotate(-28deg);}33.33%{-webkit-transform:  rotate(-52.44deg);transform:  rotate(-52.44deg);}50%{-webkit-transform:  rotate(-65deg);transform:  rotate(-65deg);}56.67%{-webkit-transform:  rotate(-70.08deg);transform:  rotate(-70.08deg);}83.33%{-webkit-transform:  rotate(-90.41deg);transform:  rotate(-90.41deg);}100%{-webkit-transform:  rotate(-98deg);transform:  rotate(-98deg);}}#rkFHOffz7 *{-webkit-animation-duration:  1s;animation-duration:  1s;animation-play-state:paused;-webkit-animation-play-state:paused;-webkit-e;e;-webkit-animation-timing-function:  cubic-bezier(0, 0, 1, 1);animation-timing-function:  cubic-bezier(0, 0, 1, 1);}#ByxtSuffGQ{-webkit-transform:  translate(0px);transform:  translate(0px);}#HJWYBOMfMX{fill: #ffd5a1;-webkit-transform:  translate(0px);transform:  translate(0px);}#HyMYrdzMGm{fill: #eaf2df;-webkit-transform:  translate(0px);transform:  translate(0px);}#HkmKrdzzMm{-webkit-transform:  translate(0px);transform:  translate(0px);}#rkNKr_MfGm{fill: #f19c7d;-webkit-transform:  translate(-172.7px, 311.95px) rotate(-83.7deg);transform:  translate(-172.7px, 311.95px) rotate(-83.7deg);}#SkHFHufMMX{-webkit-transform:  translate(0px);transform:  translate(0px);}#H1LtBdGGGX{fill: url(#linear-gradient);}#B1DYrdGMzX{-webkit-transform:  translate(0px);transform:  translate(0px);-webkit-transform-origin:  50% 50%;transform-origin:  50% 50%;transform-box:  fill-box;}#H1_YHdMGMm{fill: #eaf2df;-webkit-transform:  translate(-62.5px, 323.15px) rotate(-73.75deg);transform:  translate(-62.5px, 323.15px) rotate(-73.75deg);}#HkYKHdfffQ{-webkit-transform:  translate(0px);transform:  translate(0px);}#SJ9KS_GGfX{-webkit-transform:  translate(0px);transform:  translate(0px);}#HkoFrufGzX{-webkit-transform:  translate(0px);transform:  translate(0px);}#Hy2KHufGzX{-webkit-transform:  translate(0px);transform:  translate(0px);}#B1DYrdGMzX_S1BzKMzzX{-webkit-animation-name:  B1DYrdGMzX_S1BzKMzzX_Animation;animation-name:  B1DYrdGMzX_S1BzKMzzX_Animation;-webkit-transform-origin:  50% 50%;transform-origin:  50% 50%;transform-box:  fill-box;-webkit-transform:  rotate(0deg);transform:  rotate(0deg);}#Hy2KHufGzX_H1WBFzMGQ{-webkit-animation-name:  Hy2KHufGzX_H1WBFzMGQ_Animation;animation-name:  Hy2KHufGzX_H1WBFzMGQ_Animation;-webkit-transform-origin:  50% 50%;transform-origin:  50% 50%;transform-box:  fill-box;-webkit-transform:  rotate(0deg);transform:  rotate(0deg);}#ByxtSuffGQ_rJCvFGffX{-webkit-animation-name:  ByxtSuffGQ_rJCvFGffX_Animation;animation-name:  ByxtSuffGQ_rJCvFGffX_Animation;-webkit-transform-origin:  50% 50%;transform-origin:  50% 50%;transform-box:  fill-box;-webkit-transform:  rotate(0deg);transform:  rotate(0deg);}#ByxtSuffGQ_HyPGcfzzQ{-webkit-transform-origin:  50% 50%;transform-origin:  50% 50%;transform-box:  fill-box;-webkit-transform:  translate(0px, 0px);transform:  translate(0px, 0px);-webkit-animation-name:  ByxtSuffGQ_HyPGcfzzQ_Animation;animation-name:  ByxtSuffGQ_HyPGcfzzQ_Animation;}#Hy2KHufGzX_B10X6MfMm{-webkit-animation-name:  Hy2KHufGzX_B10X6MfMm_Animation;animation-name:  Hy2KHufGzX_B10X6MfMm_Animation;-webkit-transform-origin:  50% 50%;transform-origin:  50% 50%;transform-box:  fill-box;-webkit-transform:  translate(40px, 10px);transform:  translate(40px, 10px);}#B1DYrdGMzX_Hk9ekBzfQ{-webkit-animation-name:  B1DYrdGMzX_Hk9ekBzfQ_Animation;animation-name:  B1DYrdGMzX_Hk9ekBzfQ_Animation;-webkit-transform-origin:  50% 50%;transform-origin:  50% 50%;transform-box:  fill-box;-webkit-transform:  translate(20px, 10px);transform:  translate(20px, 10px);}#rkNKr_MfGm_rJsC7Hfz7{-webkit-animation-name:  rkNKr_MfGm_rJsC7Hfz7_Animation;animation-name:  rkNKr_MfGm_rJsC7Hfz7_Animation;-webkit-transform-origin:  50% 50%;transform-origin:  50% 50%;transform-box:  fill-box;-webkit-transform:  rotate(0deg);transform:  rotate(0deg);}#rkNKr_MfGm_SyCRmHzz7{-webkit-animation-name:  rkNKr_MfGm_SyCRmHzz7_Animation;animation-name:  rkNKr_MfGm_SyCRmHzz7_Animation;-webkit-transform-origin:  50% 50%;transform-origin:  50% 50%;transform-box:  fill-box;-webkit-transform:  translate(0px, 0px);transform:  translate(0px, 0px);}#SkHFHufMMX_SJVgHrGGQ{-webkit-animation-name:  SkHFHufMMX_SJVgHrGGQ_Animation;animation-name:  SkHFHufMMX_SJVgHrGGQ_Animation;-webkit-transform-origin:  50% 50%;transform-origin:  50% 50%;transform-box:  fill-box;-webkit-transform:  translate(0px, 0px);transform:  translate(0px, 0px);}#SkHFHufMMX_SkIlHHzGQ{-webkit-animation-name:  SkHFHufMMX_SkIlHHzGQ_Animation;animation-name:  SkHFHufMMX_SkIlHHzGQ_Animation;-webkit-transform-origin:  50% 50%;transform-origin:  50% 50%;transform-box:  fill-box;-webkit-transform:  rotate(0deg);transform:  rotate(0deg);}#SJ9KS_GGfX_HJKfdBzf7{-webkit-animation-name:  SJ9KS_GGfX_HJKfdBzf7_Animation;animation-name:  SJ9KS_GGfX_HJKfdBzf7_Animation;-webkit-transform-origin:  50% 50%;transform-origin:  50% 50%;transform-box:  fill-box;-webkit-transform:  rotate(0deg);transform:  rotate(0deg);}#HkmKrdzzMm_ryHd_SMz7{-webkit-animation-name:  HkmKrdzzMm_ryHd_SMz7_Animation;animation-name:  HkmKrdzzMm_ryHd_SMz7_Animation;-webkit-transform-origin:  50% 50%;transform-origin:  50% 50%;transform-box:  fill-box;-webkit-transform:  rotate(0deg);transform:  rotate(0deg);}#HJWYBOMfMX_S1Mj_HfM7{-webkit-animation-name:  HJWYBOMfMX_S1Mj_HfM7_Animation;animation-name:  HJWYBOMfMX_S1Mj_HfM7_Animation;-webkit-transform-origin:  50% 50%;transform-origin:  50% 50%;transform-box:  fill-box;-webkit-transform:  rotate(0deg);transform:  rotate(0deg);}#HJWYBOMfMX_HynhdHMM7{-webkit-animation-name:  HJWYBOMfMX_HynhdHMM7_Animation;animation-name:  HJWYBOMfMX_HynhdHMM7_Animation;-webkit-transform-origin:  50% 50%;transform-origin:  50% 50%;transform-box:  fill-box;-webkit-transform:  translate(0px, 0px);transform:  translate(0px, 0px);}#HyMYrdzMGm_H1gVKBMGX{-webkit-animation-name:  HyMYrdzMGm_H1gVKBMGX_Animation;animation-name:  HyMYrdzMGm_H1gVKBMGX_Animation;-webkit-transform-origin:  50% 50%;transform-origin:  50% 50%;transform-box:  fill-box;-webkit-transform:  translate(0px, 2px);transform:  translate(0px, 2px);}#HkYKHdfffQ_rykdKBMGX{-webkit-animation-name:  HkYKHdfffQ_rykdKBMGX_Animation;animation-name:  HkYKHdfffQ_rykdKBMGX_Animation;-webkit-transform-origin:  50% 50%;transform-origin:  50% 50%;transform-box:  fill-box;-webkit-transform:  rotate(0deg);transform:  rotate(0deg);}</style><defs><linearGradient id="linear-gradient" x1="251.11" y1="713.21" x2="251.44" y2="713.21" gradientTransform="translate(942.44 94.02) rotate(96.3)" gradientUnits="userSpaceOnUse"><stop offset="0" stop-color="#fff"/><stop offset="1"/></linearGradient></defs><title>cricket</title><g id="ByxtSuffGQ_HyPGcfzzQ" data-animator-group="true" data-animator-type="0"><g id="ByxtSuffGQ_rJCvFGffX" data-animator-group="true" data-animator-type="1"><path d="M238,163.62l17,42,.91-6.94-33,58c-5.74,10.08,9.81,19.16,15.54,9.08l24.3-42.71c2.88-5.07,6.1-10.06,8.7-15.28,2.12-4.26.84-7.13-.71-11l-5.38-13.29-10-24.69c-1.82-4.5-6-7.68-11.07-6.29-4.27,1.17-8.12,6.54-6.29,11.07Z" id="ByxtSuffGQ"/></g></g><g id="HJWYBOMfMX_HynhdHMM7" data-animator-group="true" data-animator-type="0"><g id="HJWYBOMfMX_S1Mj_HfM7" data-animator-group="true" data-animator-type="1"><path d="M251.8,87.71a37.79,37.79,0,0,0,12.11-15.38L191.19,61.92A38.08,38.08,0,0,0,251.8,87.71Z" id="HJWYBOMfMX"/></g></g><g id="HyMYrdzMGm_H1gVKBMGX" data-animator-group="true" data-animator-type="0"><path d="M206.13,26.8A37.91,37.91,0,0,0,194,42.12l72.74,10.41A38.05,38.05,0,0,0,206.13,26.8Z" id="HyMYrdzMGm"/></g><g id="HkmKrdzzMm_ryHd_SMz7" data-animator-group="true" data-animator-type="1"><path d="M170.61,53.25a58.06,58.06,0,0,0,114,19.52l30.78,2.56a10,10,0,1,0,1.66-19.93l-30.77-2.56a58.08,58.08,0,0,0-115.71.41ZM257.54,33.5a37.89,37.89,0,0,1,8.38,17.64L192.69,45A38,38,0,0,1,257.54,33.5ZM191,65l73.22,6.09A38.07,38.07,0,0,1,191,65Z" id="HkmKrdzzMm"/></g><g id="rkNKr_MfGm_SyCRmHzz7" data-animator-group="true" data-animator-type="0"><g id="rkNKr_MfGm_rJsC7Hfz7" data-animator-group="true" data-animator-type="1"><rect x="65.28" y="174.37" width="45" height="156" rx="12" ry="12" id="rkNKr_MfGm"/></g></g><g id="SkHFHufMMX_SJVgHrGGQ" data-animator-group="true" data-animator-type="0"><g id="SkHFHufMMX_SkIlHHzGQ" data-animator-group="true" data-animator-type="1"><path d="M18.1,254.26l2-18.31c.09-.83.15-1.67.28-2.5-.33,2.25.7-2.18,1.07-2.7-1,1.45-2.09.08.29.71a4.29,4.29,0,0,0,.68.08c8.62.78,17.23,1.9,25.83,2.85l89.34,9.86,13.86,1.53c1.08.12,2.17.23,3.25.36.3,0,.6,0,.9.1l.2,0c-2.38-.47.24,0,.6.57,2.68,4.11.1,12.35-.42,17-.27,2.4-.35,4.93-.81,7.3.32-1.67-.21.54-1.07,1.27-1.07.89-2,.67-3.28.57-22.2-1.65-44.39-4.9-66.51-7.34L35,260.19l-14.6-1.61a14.46,14.46,0,0,1-3.31-.36c-.84-.33.6.44.61.09a.62.62,0,0,0,.38.06c.29-.59,0-3.29,0-4.1.4-4.85-4.43-9-9-9-5.21,0-8.6,4.14-9,9-1,11.74,5.27,20.56,17.1,22,3.09.37,6.19.68,9.29,1L70,282.05c26.71,2.95,53.43,6.43,80.2,8.85a21.15,21.15,0,0,0,22.49-16.45c1.46-7.07,1.7-14.55,2.49-21.71,1.4-12.66-6.67-22.94-19.36-24.49-2.16-.26-4.33-.48-6.49-.72L57.19,217.36l-33.44-3.69c-7.1-.78-13.89,1.54-17.85,7.88C1.63,228.42,1.85,238.38,1,246.25l-.88,8c-.53,4.84,4.52,9,9,9C14.41,263.26,17.56,259.11,18.1,254.26Z" id="SkHFHufMMX"/></g></g><line x1="165.31" y1="260.93" x2="246.65" y2="270.23" id="H1LtBdGGGX"/><g id="B1DYrdGMzX_Hk9ekBzfQ" data-animator-group="true" data-animator-type="0"><g id="B1DYrdGMzX_S1BzKMzzX" data-animator-group="true" data-animator-type="1"><path d="M165.31,269.93l81.34,9.3c4.84.55,9-4.53,9-9,0-5.33-4.15-8.45-9-9l-81.34-9.3c-4.84-.55-9,4.53-9,9,0,5.33,4.15,8.45,9,9Z" id="B1DYrdGMzX"/></g></g><rect x="105.15" y="153.73" width="158" height="99" rx="28" ry="28" id="H1_YHdMGMm"/><g id="HkYKHdfffQ_rykdKBMGX" data-animator-group="true" data-animator-type="1"><path d="M185.08,276.41l-37.86-11c-6.76-2-12.78-5-15.61-12-2.05-5.08-1.33-10,.14-15l24.46-83.92c3.16-10.84,5.69-23.33,19.34-25,5.66-.7,11.64,1.85,17,3.41l23.83,6.95c5.75,1.68,11.8,2.78,16.17,7.22,5.24,5.33,6.49,12.54,4.5,19.56-3.14,11.08-6.44,22.1-9.66,33.16l-14,48c-2.81,9.64-4.31,22.07-14,27.32a19.18,19.18,0,0,1-14.35,1.46c-11.21-3-16,14.39-4.79,17.36,13.89,3.68,29.27-.53,38.52-11.8,4.32-5.26,6.6-11.24,8.47-17.64l13.08-44.86,13.08-44.86c1.78-6.09,3.08-12.1,2.31-18.53a37.58,37.58,0,0,0-26.44-31.36c-13.22-4.16-26.63-7.83-39.95-11.64-21.22-6.08-41.45,5.7-47.61,26.63-8.69,29.48-17.2,59-25.81,88.53a103.52,103.52,0,0,0-3,11.07,37.62,37.62,0,0,0,16,37.73c6.08,4.15,13.69,5.73,20.67,7.76L175,292.24l5.25,1.53C191.43,297,196.19,279.65,185.08,276.41Z" id="HkYKHdfffQ"/></g><g id="SJ9KS_GGfX_HJKfdBzf7" data-animator-group="true" data-animator-type="1"><path d="M133,270.84l-19,73,2.31-4-57.75,63-8.25,9c-7.82,8.53,4.88,21.29,12.73,12.73l51.52-56.2L126,355.89c2.19-2.38,4.43-4.49,5.44-7.68,3.65-11.48,6.11-23.48,9.14-35.13l9.75-37.46c2.92-11.22-14.44-16-17.36-4.79Z" id="SJ9KS_GGfX"/></g><path d="M192.88,294.77l27,55-1.23-4.54,3,81c.43,11.55,18.43,11.6,18,0l-2.31-62.32-.53-14.4c-.12-3.17-.05-5.91-1.43-8.9-4-8.79-8.54-17.4-12.8-26.08l-14.16-28.84c-5.1-10.4-20.63-1.29-15.54,9.08Z" id="HkoFrufGzX"/><g id="Hy2KHufGzX_B10X6MfMm" data-animator-group="true" data-animator-type="0"><g id="Hy2KHufGzX_H1WBFzMGQ" data-animator-group="true" data-animator-type="1"><path d="M168.89,150l-43.6,46.86a9.21,9.21,0,0,0,0,12.73l53,58c7.83,8.57,20.53-4.19,12.73-12.73l-53-58V209.6l43.6-46.86c7.88-8.47-4.82-21.23-12.73-12.73Z" id="Hy2KHufGzX"/></g></g><script>(function(){var a=document.querySelector('#rkFHOffz7'),b=a.querySelectorAll('style'),c=function(d){b.forEach(function(f){var g=f.textContent;g&amp;&amp;(f.textContent=g.replace(/transform-box:[^;\r\n]*/gi,'transform-box: '+d))})};c('initial'),window.requestAnimationFrame(function(){return c('fill-box')})})();</script></svg>