<svg xmlns="http://www.w3.org/2000/svg" preserveAspectRatio="none" viewBox="0 0 409 437" id="HyCKtFjz7"><style>@-webkit-keyframes rJsAFKYjG7_BySMitjGQ_Animation{0%{-webkit-transform: rotate(0deg);transform: rotate(0deg);}100%{-webkit-transform: rotate(10deg);transform: rotate(10deg);}}@keyframes rJsAFKYjG7_BySMitjGQ_Animation{0%{-webkit-transform: rotate(0deg);transform: rotate(0deg);}100%{-webkit-transform: rotate(10deg);transform: rotate(10deg);}}@-webkit-keyframes rJsAFKYjG7_H1XGsYofm_Animation{0%{-webkit-transform: translate(0px, 0px);transform: translate(0px, 0px);}100%{-webkit-transform: translate(0px, 20px);transform: translate(0px, 20px);}}@keyframes rJsAFKYjG7_H1XGsYofm_Animation{0%{-webkit-transform: translate(0px, 0px);transform: translate(0px, 0px);}100%{-webkit-transform: translate(0px, 20px);transform: translate(0px, 20px);}}@-webkit-keyframes B1mAYYFsMm_Sk58qYizQ_Animation{0%{-webkit-transform: rotate(0deg);transform: rotate(0deg);}100%{-webkit-transform: rotate(-10deg);transform: rotate(-10deg);}}@keyframes B1mAYYFsMm_Sk58qYizQ_Animation{0%{-webkit-transform: rotate(0deg);transform: rotate(0deg);}100%{-webkit-transform: rotate(-10deg);transform: rotate(-10deg);}}@-webkit-keyframes B1mAYYFsMm_B1KL5YszX_Animation{0%{-webkit-transform: translate(0px, 0px);transform: translate(0px, 0px);}100%{-webkit-transform: translate(0px, 0px);transform: translate(0px, 0px);}}@keyframes B1mAYYFsMm_B1KL5YszX_Animation{0%{-webkit-transform: translate(0px, 0px);transform: translate(0px, 0px);}100%{-webkit-transform: translate(0px, 0px);transform: translate(0px, 0px);}}@-webkit-keyframes SkqAFYtoMm_HJr2YtjGQ_Animation{0%{-webkit-transform: rotate(0deg);transform: rotate(0deg);}100%{-webkit-transform: rotate(-56deg);transform: rotate(-56deg);}}@keyframes SkqAFYtoMm_HJr2YtjGQ_Animation{0%{-webkit-transform: rotate(0deg);transform: rotate(0deg);}100%{-webkit-transform: rotate(-56deg);transform: rotate(-56deg);}}@-webkit-keyframes SkqAFYtoMm_rJfntYofm_Animation{0%{-webkit-transform: translate(0px, 0px);transform: translate(0px, 0px);}18.33%{-webkit-transform: translate(12px, 5px);transform: translate(12px, 5px);}40%{-webkit-transform: translate(26px, 15px);transform: translate(26px, 15px);}100%{-webkit-transform: translate(65px, 15px);transform: translate(65px, 15px);}}@keyframes SkqAFYtoMm_rJfntYofm_Animation{0%{-webkit-transform: translate(0px, 0px);transform: translate(0px, 0px);}18.33%{-webkit-transform: translate(12px, 5px);transform: translate(12px, 5px);}40%{-webkit-transform: translate(26px, 15px);transform: translate(26px, 15px);}100%{-webkit-transform: translate(65px, 15px);transform: translate(65px, 15px);}}@-webkit-keyframes S1fCtYtsMQ_HJYoYYof7_Animation{0%{-webkit-transform: rotate(0deg);transform: rotate(0deg);}100%{-webkit-transform: rotate(0deg);transform: rotate(0deg);}}@keyframes S1fCtYtsMQ_HJYoYYof7_Animation{0%{-webkit-transform: rotate(0deg);transform: rotate(0deg);}100%{-webkit-transform: rotate(0deg);transform: rotate(0deg);}}@-webkit-keyframes S1fCtYtsMQ_HJSiKKjGX_Animation{0%{-webkit-transform: translate(0px, 0px);transform: translate(0px, 0px);}100%{-webkit-transform: translate(0px, 0px);transform: translate(0px, 0px);}}@keyframes S1fCtYtsMQ_HJSiKKjGX_Animation{0%{-webkit-transform: translate(0px, 0px);transform: translate(0px, 0px);}100%{-webkit-transform: translate(0px, 0px);transform: translate(0px, 0px);}}#HyCKtFjz7 *{-webkit-animation-duration: 2s;animation-play-state: paused;-webkit-animation-play-state: paused;animation-duration: 2s;-webkit-animation-timing-function: cubic-bezier(0, 0, 1, 1);animation-timing-function: cubic-bezier(0, 0, 1, 1);}#ryECFFtjf7{fill: #ffd5a1;}#SyH0KFYjGQ{fill: #62d7ff;stroke: #000;stroke-miterlimit: 10;stroke-width: 1.5px;}#B1DCYKFiGQ{fill: #62d7ff;-webkit-transform: translate(-73.99px, 338.66px) rotate(-80.24deg);transform: translate(-73.99px, 338.66px) rotate(-80.24deg);}#HJFRtYFoG7{fill: #47abc6;}#S1fCtYtsMQ_HJSiKKjGX{-webkit-animation-name: S1fCtYtsMQ_HJSiKKjGX_Animation;animation-name: S1fCtYtsMQ_HJSiKKjGX_Animation;-webkit-transform-origin: 50% 50%;transform-origin: 50% 50%;transform-box: fill-box;-webkit-transform: translate(0px, 0px);transform: translate(0px, 0px);}#S1fCtYtsMQ_HJYoYYof7{-webkit-animation-name: S1fCtYtsMQ_HJYoYYof7_Animation;animation-name: S1fCtYtsMQ_HJYoYYof7_Animation;-webkit-transform-origin: 50% 50%;transform-origin: 50% 50%;transform-box: fill-box;-webkit-transform: rotate(0deg);transform: rotate(0deg);}#SkqAFYtoMm_rJfntYofm{-webkit-animation-name: SkqAFYtoMm_rJfntYofm_Animation;animation-name: SkqAFYtoMm_rJfntYofm_Animation;-webkit-transform-origin: 50% 50%;transform-origin: 50% 50%;transform-box: fill-box;-webkit-transform: translate(65px, 15px);transform: translate(65px, 15px);}#SkqAFYtoMm_HJr2YtjGQ{-webkit-animation-name: SkqAFYtoMm_HJr2YtjGQ_Animation;animation-name: SkqAFYtoMm_HJr2YtjGQ_Animation;-webkit-transform-origin: 50% 50%;transform-origin: 50% 50%;transform-box: fill-box;-webkit-transform: rotate(-56deg);transform: rotate(-56deg);}#B1mAYYFsMm_B1KL5YszX{-webkit-animation-name: B1mAYYFsMm_B1KL5YszX_Animation;animation-name: B1mAYYFsMm_B1KL5YszX_Animation;-webkit-transform-origin: 50% 50%;transform-origin: 50% 50%;transform-box: fill-box;-webkit-transform: translate(0px, 0px);transform: translate(0px, 0px);}#B1mAYYFsMm_Sk58qYizQ{-webkit-animation-name: B1mAYYFsMm_Sk58qYizQ_Animation;animation-name: B1mAYYFsMm_Sk58qYizQ_Animation;-webkit-transform-origin: 50% 50%;transform-origin: 50% 50%;transform-box: fill-box;-webkit-transform: rotate(-10deg);transform: rotate(-10deg);}#rJsAFKYjG7_H1XGsYofm{-webkit-animation-name: rJsAFKYjG7_H1XGsYofm_Animation;animation-name: rJsAFKYjG7_H1XGsYofm_Animation;-webkit-transform-origin: 50% 50%;transform-origin: 50% 50%;transform-box: fill-box;-webkit-transform: translate(0px, 20px);transform: translate(0px, 20px);}#rJsAFKYjG7_BySMitjGQ{-webkit-animation-name: rJsAFKYjG7_BySMitjGQ_Animation;animation-name: rJsAFKYjG7_BySMitjGQ_Animation;-webkit-transform-origin: 50% 50%;transform-origin: 50% 50%;transform-box: fill-box;-webkit-transform: rotate(10deg);transform: rotate(10deg);}</style><defs/><title>Asset 2</title><g id="BkgAtYYizm" data-name="Layer 2"><g id="SJWAFKYsGX" data-name="Layer 1"><g id="S1fCtYtsMQ_HJSiKKjGX" data-animator-group="true" data-animator-type="0"><g id="S1fCtYtsMQ_HJYoYYof7" data-animator-group="true" data-animator-type="1"><path d="M163.27,268.66,194.9,354l4.6,12.41v-4.79l-19.74,65.23c-3.36,11.11,14,15.86,17.36,4.79l9.72-32.14c3.3-10.91,7.54-21.94,10-33.07.84-3.8-.74-6.81-2-10.25l-6.07-16.37L191.65,293.6l-11-29.73c-1.69-4.56-6.09-7.65-11.07-6.29-4.38,1.2-8,6.49-6.29,11.07Z" id="S1fCtYtsMQ"/></g></g><g id="B1mAYYFsMm_B1KL5YszX" data-animator-group="true" data-animator-type="0"><g id="B1mAYYFsMm_Sk58qYizQ" data-animator-group="true" data-animator-type="1"><path d="M136.74,150l-77.42-4,6.36,2.64-50.2-47.85c-8.39-8-21.13,4.72-12.73,12.73l46.68,44.49c3,2.89,5.37,5.59,10,6,2.78.25,5.59.29,8.37.43l39.14,2L136.74,168c11.58.6,11.54-17.4,0-18Z" id="B1mAYYFsMm"/></g></g><path d="M223.59,88.71c5.39-4,12.25-12.43,14.85-18.47L163,62.92a38.08,38.08,0,0,0,60.61,25.79Z" id="ryECFFtjf7"/><path d="M178.93,26.8c-5.39,4-10.89,12.43-13.48,18.43l74.1,7.3A38.05,38.05,0,0,0,178.93,26.8Z" id="SyH0KFYjGQ"/><path d="M259.44,63.23c0-6-.33-10.39-.33-10.39a58.08,58.08,0,0,0-115.71.41h0a58.06,58.06,0,0,0,114,19.52A26.72,26.72,0,0,0,259.44,63.23ZM230.33,33.5a37.89,37.89,0,0,1,8.38,17.64L165.48,45A38,38,0,0,1,230.33,33.5ZM163.84,65l73.22,6.09A38.07,38.07,0,0,1,163.84,65Z" id="r1IAKtYjzQ"/><rect x="84.94" y="163.73" width="158" height="99" rx="28" ry="28" id="B1DCYKFiGQ"/><path d="M174.13,286.05l-38.58-6.63c-6.86-1.18-13.11-2.88-17.24-9.06-3.1-4.65-3.64-9.89-2.72-15.23l14.87-86.47c2-11.42,3-24.49,16.66-27.83,5.33-1.3,10.92.32,16.19,1.23l24.46,4.21c5.84,1,12.49,1.42,17.36,5.1a19.56,19.56,0,0,1,7.43,18.31c-1.5,11.38-3.91,22.71-5.85,34l-8.45,49.16c-1.7,9.89-1.86,23.35-10.72,29.73a19,19,0,0,1-13.41,3.48c-4.8-.7-9.67,1.19-11.07,6.29-1.16,4.24,1.45,10.36,6.29,11.07,14.89,2.18,29.29-3.14,37.93-15.82,3.66-5.37,5.14-11.34,6.21-17.58l7.91-46,7.95-46.21c1.13-6.57,1.92-12.95.44-19.61-3.11-13.94-14.93-25.16-28.87-27.86-13.6-2.64-27.34-4.77-41-7.05-11.92-2-23.12.16-32.57,8a37.32,37.32,0,0,0-12.49,22.5c-5.32,30.38-10.45,60.79-15.68,91.18a123.86,123.86,0,0,0-2,12.86c-.9,14.1,7.24,28.47,19.9,34.82,6.68,3.35,13.92,4.14,21.17,5.39L164,302.48l5.39.93c4.78.82,9.69-1.27,11.07-6.29C181.61,292.8,179,286.88,174.13,286.05Z" id="S1OAFFFsfQ"/><path d="M188.44,146.23l-23,138c1.14.43,27.05,11,31-20,2.76-21.68,17-97,17-97C210.44,152.23,204.44,148.23,188.44,146.23Z" id="HJFRtYFoG7"/><g id="SkqAFYtoMm_rJfntYofm" data-animator-group="true" data-animator-type="0"><g id="SkqAFYtoMm_HJr2YtjGQ" data-animator-group="true" data-animator-type="1"><path d="M128.63,266l-6.19,77.21,4.46-7.77-80.49,42-11.51,6C24.63,388.82,33.72,404.36,44,399l71.23-37.16,16.22-8.46c4.61-2.41,8.36-4,9-10.21,1.26-12,1.93-24.06,2.89-36.07L146.63,266c.39-4.85-4.41-9-9-9-5.19,0-8.61,4.13-9,9Z" id="SkqAFYtoMm"/></g></g><g id="rJsAFKYjG7_H1XGsYofm" data-animator-group="true" data-animator-type="0"><g id="rJsAFKYjG7_BySMitjGQ" data-animator-group="true" data-animator-type="1"><path d="M398.46,142.71l-92.1,15c-3.44.56-7.83.56-11.1,1.81,3.26-1.25,2.08-.32-.36-.35l-7.49-.08-55.78-.62L188.44,158c-11.59-.13-11.59,17.87,0,18l94,1c8.22.09,15.78.15,23.87-1.17L359,167.29l44.23-7.22c4.8-.78,7.48-6.74,6.29-11.07-1.4-5.1-6.26-7.07-11.07-6.29Z" id="rJsAFKYjG7"/></g></g></g></g><script>(function(){var a=document.querySelector('#HyCKtFjz7'),b=a.querySelectorAll('style'),c=function(d){b.forEach(function(f){var g=f.textContent;g&amp;&amp;(f.textContent=g.replace(/transform-box:[^;\r\n]*/gi,'transform-box: '+d))})};c('initial'),window.requestAnimationFrame(function(){return c('fill-box')})})();</script></svg>