<svg id="Layer_1" data-name="Layer 1" xmlns="http://www.w3.org/2000/svg" viewBox="0 0 216.17 330"><defs><style>.cls-1{fill:#f2b77c;}.cls-2{fill:#0071bc;}.cls-3{fill:#c6464f;}.cls-4{fill:#fcc485;}.cls-5{fill:#594a42;}.cls-6{fill:#f2f2f2;}.cls-7{fill:#4d4d4d;}.cls-8{fill:#b7414c;}.cls-9{font-size:40.64px;fill:#fff;font-family:AffectionatelyYours, Affectionately Yours;}</style></defs><title>footballer</title><path class="cls-1" d="M107.56,77.87l0,.81c.23,4.41-.49,7,3,10.26,1.42,1.31,2.88,3,2.56,4.92s-2.1,3-3.86,3.35-3.62.24-5.4.58c-2.08.39-4,1.44-6.17,1.36-2.58-.1-4.77-1.85-6.6-3.67s-3.62-3.84-6-4.75c-.45-.16-1-.46-.9-.92a.9.9,0,0,1,.35-.47c4.3-3.72,5-6.08,4.73-11.52Z"/><path class="cls-1" d="M173.62,66.79h0c2.67,3.85-1.14,12.07-4.46,14.85l-30.91,25.87c-3.31,2.78-8.16,1.91-10.83-1.94h0c-2.66-3.84-2.14-9.22,1.18-12l34.2-28.72C166.11,62.07,171,62.94,173.62,66.79Z"/><path class="cls-1" d="M117.35,253.24l-13.75-2.09a2.29,2.29,0,0,1-1.94-2.17l-2.44-57.89a2.29,2.29,0,0,1,2-2.37L127,185.67a2.29,2.29,0,0,1,2.53,2.62l-9.59,63A2.29,2.29,0,0,1,117.35,253.24Z"/><path class="cls-1" d="M71,300.1l-5-4.29a2.81,2.81,0,0,1-.38-3.88l38.31-48.33a2.8,2.8,0,0,1,3.74-.6L118,249.84a2.81,2.81,0,0,1,.49,4.28L74.8,299.9A2.81,2.81,0,0,1,71,300.1Z"/><polygon class="cls-2" points="129.7 190.15 97.78 190.15 101.12 236.31 123.13 237.83 129.7 190.15"/><polygon class="cls-3" points="129.7 190.15 63.12 190.15 63.94 172.89 65.58 147.41 49.96 98.9 72.98 88.22 118.19 88.22 137.92 98.9 124.77 153.16 127.24 176.18 129.7 190.15"/><path class="cls-4" d="M129,220.25l-9.85,12.64a1.09,1.09,0,0,1-1.55.19L64.71,191.5a1.11,1.11,0,0,1,.47-2l30.22-5.85a1.11,1.11,0,0,1,1,.33l32.48,34.79A1.12,1.12,0,0,1,129,220.25Z"/><path class="cls-4" d="M145.93,285l-9.25,3.2a1.74,1.74,0,0,1-2.2-1.05L111.81,226a1.74,1.74,0,0,1,1.06-2.25L127,218.79a2.25,2.25,0,0,1,2.91,1.52L147,282.87A1.76,1.76,0,0,1,145.93,285Z"/><path class="cls-1" d="M25.57,154.31h0a9.7,9.7,0,0,1-2.13-12.65L50,98.62c2.57-4.17,7.69-5.27,11.43-2.45h0a9.71,9.71,0,0,1,2.12,12.65L37,151.86C34.43,156,29.31,157.13,25.57,154.31Z"/><path class="cls-1" d="M27.24,196.76h0c-4.53-.39-4.58-2.56-4.3-7l-.87-42.92a7.9,7.9,0,0,1,8.7-7.35h0a8.4,8.4,0,0,1,7.7,8.78L33.73,189.5C33.46,194,31.77,197.16,27.24,196.76Z"/><path class="cls-1" d="M195.47,43.87h0c3.12,3.31,1.62,5.58-1.53,8.7L166.33,84.28A7.87,7.87,0,0,1,155,83.92h0a8.39,8.39,0,0,1,.06-11.64l31.41-28.67C189.61,40.49,192.36,40.55,195.47,43.87Z"/><polygon class="cls-2" points="63.94 179.47 128.88 182.75 129.7 190.15 63.12 190.15 63.94 179.47 63.94 179.47"/><polygon class="cls-2" points="107.14 224.89 123.47 212.96 96 183.57 63.12 190.15 107.14 224.89"/><path class="cls-3" d="M38.46,116.31l13.6,11,11.1-17.26s5.7-6.71-.39-13.06c0,0-6.06-6.47-12.51,1Z"/><polygon class="cls-3" points="143.37 80.82 155.35 93.41 128.95 115.34 126.42 93.44 143.37 80.82"/><path class="cls-4" d="M97,52.36c1.08.29,2.55-1.1,3.24-1.67a14.86,14.86,0,0,1,4.24-2.41,5.79,5.79,0,0,1,3.5-.36,4.85,4.85,0,0,1,3.12,3.91c.63,3.51-1.13,7.15-.57,10.68.08.49.22,1.61,1,1.07.33-.23.12-.83.47-1.1.77-.59,1.14.35,1.2.92a11.84,11.84,0,0,1-.86,6.16c-.5,1.1-1.27,1.44-2,2.25s-.59,2.57-.86,3.66a6,6,0,0,1-.9,2c-.9,1.28-2.54,1.94-3.58,3.12a12.3,12.3,0,0,1-3.26,3,7,7,0,0,1-3.12.53l-.43,0L96.57,52.26Z"/><path class="cls-1" d="M82,65c0-.58.28-1.55,1.1-1,.38.23.23.85.58,1,.83.46.86-.67.88-1.17.11-1.89-.89-3.66-.74-5.52.14-1.71,0-3.47.5-5.15A6.42,6.42,0,0,1,87,49.58,5.35,5.35,0,0,1,91.11,49,5.88,5.88,0,0,1,94,51c.88,1,1.29,1,2.62,1.27l1.62,31.86a6.07,6.07,0,0,1-2.73-.24,12.32,12.32,0,0,1-3.54-2.61c-1.15-1.06-2.85-1.56-3.87-2.74A5.9,5.9,0,0,1,87,76.61c-.38-1-.32-2.74-1.23-3.55s-1.62-1-2.24-2A11.89,11.89,0,0,1,82,65Z"/><path class="cls-5" d="M112.33,61c-.31,1.43-.66,2.79-1,4-.13.54-.25,1.15-.42,1.67a1.68,1.68,0,0,1-.26.62s-.65.47-.64.36a28.23,28.23,0,0,0,.21-6c-.38-3.52.28-9.27-4.74-9.08a15.18,15.18,0,0,0-4.36,1.14,8.9,8.9,0,0,1-4.42.66c-2.34-.42-4.16-2.48-6.51-2.77-3.63-.45-5,2.73-5.19,5.71a40.77,40.77,0,0,0-.17,6c.07.79.34,1.49.44,2.26a13.66,13.66,0,0,1,.41,2.77c-.13.11-.31-.06-.39-.22-2.75-5.27-4.57-12.5-1.28-18.19a14,14,0,0,1,2.58-3l8.07-7.7A1.24,1.24,0,0,1,95,39c.5-.27,1.08.16,1.52.53,4.65,3.89,11.32,4.27,15.06,9.6C113.72,52.18,113.2,56.93,112.33,61Z"/><path class="cls-5" d="M100.26,63.25v2.51a21.59,21.59,0,0,1,8.36-2.51C108.62,61.72,100.26,63.25,100.26,63.25Z"/><path class="cls-5" d="M95.43,63.25v2.51a21.6,21.6,0,0,0-8.37-2.51C87.06,61.72,95.43,63.25,95.43,63.25Z"/><path class="cls-5" d="M109.1,75.14a.88.88,0,0,1-.14.51,5.65,5.65,0,0,1-.66,1.09,7.09,7.09,0,0,0-.6,1.08,6.65,6.65,0,0,1-1.68,2,36.17,36.17,0,0,1-5.3,3.36,1.8,1.8,0,0,1-.89.26c-.87-.07-1.43-2.31-2.23-.85a2.54,2.54,0,0,1-.56.89c-1.51,1.09-4.75-2-5.84-2.76a10.85,10.85,0,0,1-1.48-1.23,12.76,12.76,0,0,1-1.11-1.41A6.86,6.86,0,0,1,87.13,75a4.73,4.73,0,0,0,.15,2.31,5.18,5.18,0,0,0,.31.57,14.19,14.19,0,0,0,2.85,3.92c1.18,1,2.56,1.68,3.79,2.59a8.35,8.35,0,0,0,3.57,1.41,8.36,8.36,0,0,0,3.6-1.44c1.3-1,2.79-1.71,4.1-2.79a9.91,9.91,0,0,0,1.27-1.32,9.32,9.32,0,0,0,1.09-1.43c.22-.43.41-.85.65-1.28A3.5,3.5,0,0,0,109.1,75.14Z"/><polygon class="cls-1" points="85.76 88.22 100.11 94.79 109.86 88.22 85.76 88.22"/><polygon class="cls-6" points="132.99 289.97 151.9 284 150.9 282.01 132.99 287.98 132.99 289.97"/><path class="cls-7" d="M133,288s0-9,6-11c0,0,8-3,11.94,5Z"/><polygon class="cls-6" points="60.8 295.95 82.11 315.93 90.1 315.93 90.1 313.26 83.44 313.26 62.13 293.29 60.8 295.95"/><path class="cls-7" d="M62.13,293.28l6.46-7.42,15.16,13.27s6.35,7.47,6.35,14.13H83.44Z"/><polygon class="cls-1" points="33.04 185.07 39.88 195.3 37.46 195.76 34.27 192.18 35.95 201.07 43.13 208.07 41.67 209.19 34.4 210.56 30.06 209.71 26.22 207.09 21.76 201.25 20.54 194.78 22.55 187.06 33.04 185.07"/><polygon class="cls-1" points="189.35 41.61 188.89 36.43 193 32.32 194.65 30.67 195.47 32.32 193 36.43 199.58 25.74 201.22 26.56 205.33 31.49 204.51 36.43 202.04 41.36 200.4 45.47 196.29 47.94 189.35 41.61"/><path class="cls-8" d="M100.11,94.79l.8,86.55-37-1.88,1.64-32.06L56.77,120l-4.34,7.65-14-11.51L50,98.08s4-5.06,9-3.35l14-6.51H86.13Z"/><text class="cls-9" transform="translate(86.14 142.68)">2</text></svg>