<svg id="Layer_1" data-name="Layer 1" xmlns="http://www.w3.org/2000/svg" viewBox="0 0 528.29 255.09"><defs><style>.cls-1{fill:#4787b5;}</style></defs><title>waves</title><path class="cls-1" d="M0,46.17H0c0-.16,0-.29,0-.45a6.4,6.4,0,0,1,6.79-5.9h.1c1.8.12,36.34,1.94,52.71-13.34,5.59-5.22,8.32-11.8,8.32-20.11A6.36,6.36,0,0,1,74.29,0h0a6.37,6.37,0,0,1,6.36,6.36c0,8.31,2.71,14.89,8.31,20.11,12.95,12.1,37.3,13.48,47.78,13.46,11.74-.29,32-2.46,43.5-13.1,5.69-5.26,8.45-12,8.45-20.46a6.37,6.37,0,0,1,12.73,0c0,8.31,2.72,14.89,8.31,20.11,12.06,11.26,34,13.22,45.42,13.44C267,39.55,286.72,37.26,298,26.83c5.68-5.26,8.45-12,8.45-20.46a6.37,6.37,0,0,1,12.73,0c0,8.31,2.71,14.89,8.3,20.11,12.14,11.33,34.27,13.25,45.64,13.44,11.82-.36,31.61-2.62,42.91-13.09,5.69-5.26,8.46-12,8.46-20.46a6.37,6.37,0,0,1,12.73,0c0,8.31,2.72,14.89,8.31,20.11,16.73,15.61,52.44,13.37,52.8,13.34a6.36,6.36,0,0,1,.89,12.7c-1.68.12-41.54,2.68-62.35-16.71a40,40,0,0,1-6-7c-4.75,7.28-12.14,13.06-22,17.1a94.64,94.64,0,0,1-25.66,6,6,6,0,0,1-2.06.53c-.43,0-3.48.22-8.07.17-1.36,0-2.61.05-3.72.05-3.64,0-6.89,0-9.21-.88-13.34-1.5-30.13-5.58-41.35-16.05a38.94,38.94,0,0,1-6-7c-4.75,7.28-12.14,13.06-22,17.1a94.92,94.92,0,0,1-25.25,6,5.89,5.89,0,0,1-2.17.57c-.44,0-3.57.24-8.28.17-1.39,0-2.67.05-3.81.05-3.7,0-7,0-9.29-.92-13.28-1.55-29.85-5.64-41-16a38.85,38.85,0,0,1-5.95-7c-4.76,7.28-12.15,13.06-22,17.1s-20.78,5.72-29.42,6.38a4.27,4.27,0,0,1-1,.17c-.17,0-.78.06-1.71.09-1.58.12-3.34.13-5.2.13h-2.15a48.12,48.12,0,0,1-7-.32c-8.78-.61-20.12-2.26-30.37-6.46-9.83-4-17.2-9.78-21.95-17-4.76,7.24-12.14,13-22,17-14.38,5.9-30.93,6.78-39.51,6.78-1.86,0-3.62,0-5.19-.13-.93,0-1.54-.07-1.72-.09a6.09,6.09,0,0,1-2.9-1A5,5,0,0,1,.12,47.41,6.4,6.4,0,0,1,0,46.47,1.32,1.32,0,0,0,0,46.17Zm521.47,63c-.35,0-36.08,2.28-52.8-13.32-5.59-5.23-8.31-11.8-8.31-20.12a6.36,6.36,0,0,0-12.73,0c0,8.51-2.77,15.21-8.45,20.46-11.3,10.47-31.09,12.73-42.92,13.1-11.37-.2-33.49-2.12-45.63-13.45-5.6-5.22-8.31-11.8-8.31-20.12a6.37,6.37,0,0,0-12.73,0c0,8.51-2.76,15.2-8.45,20.47-11.27,10.44-31,12.72-42.82,13.08-11.44-.2-33.37-2.18-45.42-13.43-5.59-5.23-8.31-11.8-8.31-20.12a6.37,6.37,0,0,0-12.73,0c0,8.5-2.76,15.2-8.44,20.46-11.48,10.64-31.76,12.8-43.5,13.11-10.49,0-34.83-1.35-47.78-13.46-5.6-5.22-8.31-11.8-8.31-20.12a6.36,6.36,0,0,0-6.36-6.35h0a6.35,6.35,0,0,0-6.36,6.35c0,8.32-2.72,14.9-8.32,20.12C66.39,111.11,31.85,109.29,30,109.18h-.1a6.41,6.41,0,0,0-6.79,5.92c0,.14,0,.29,0,.43h0c0,.11,0,.21,0,.33a6.44,6.44,0,0,0,.12.92,5.05,5.05,0,0,0,2.87,4.14,6.29,6.29,0,0,0,2.9,1l1.72.09c1.57.12,3.33.12,5.19.12,8.58,0,25.13-.88,39.51-6.78,9.83-4,17.21-9.78,22-17,4.74,7.24,12.12,13,21.95,17,10.25,4.2,21.59,5.86,30.37,6.46a47.74,47.74,0,0,0,7,.32h2.15c1.86,0,3.61,0,5.2-.12l1.71-.09a9,9,0,0,0,1-.17c8.64-.66,19.54-2.35,29.42-6.4s17.26-9.82,22-17.1a38.91,38.91,0,0,0,5.95,7c11.13,10.37,27.69,14.46,41,16,2.32.91,5.59.92,9.29.92,1.13,0,2.42,0,3.81-.06,4.72.07,7.85-.12,8.28-.15a6.31,6.31,0,0,0,2.17-.57,93.89,93.89,0,0,0,25.25-6c9.87-4,17.26-9.82,22-17.1a39.5,39.5,0,0,0,6,7c11.23,10.47,28,14.53,41.36,16,2.32.87,5.56.88,9.2.88,1.12,0,2.36,0,3.72-.06,4.6.07,7.64-.12,8.07-.15a6.67,6.67,0,0,0,2.06-.52A95.16,95.16,0,0,0,432,115.3c9.87-4,17.26-9.82,22-17.1a39.57,39.57,0,0,0,5.95,7c20.81,19.39,60.68,16.83,62.35,16.71a6.36,6.36,0,0,0,5.91-6.79A6.43,6.43,0,0,0,521.47,109.18Z"/><path class="cls-1" d="M0,179.17H0c0-.16,0-.29,0-.45a6.4,6.4,0,0,1,6.79-5.9h.1c1.8.12,36.34,1.94,52.71-13.34,5.59-5.22,8.32-11.8,8.32-20.11A6.36,6.36,0,0,1,74.29,133h0a6.37,6.37,0,0,1,6.36,6.36c0,8.31,2.71,14.89,8.31,20.11,12.95,12.1,37.3,13.48,47.78,13.46,11.74-.29,32-2.46,43.5-13.1,5.69-5.26,8.45-12,8.45-20.46a6.37,6.37,0,0,1,12.73,0c0,8.31,2.72,14.89,8.31,20.11,12.06,11.26,34,13.22,45.42,13.44,11.83-.36,31.56-2.65,42.83-13.09,5.68-5.26,8.45-12,8.45-20.46a6.37,6.37,0,0,1,12.73,0c0,8.31,2.71,14.89,8.3,20.11,12.14,11.33,34.27,13.25,45.64,13.44,11.82-.36,31.61-2.62,42.91-13.09,5.69-5.26,8.46-12,8.46-20.46a6.37,6.37,0,0,1,12.73,0c0,8.31,2.72,14.89,8.31,20.11,16.73,15.61,52.44,13.37,52.8,13.34a6.36,6.36,0,0,1,.89,12.7c-1.68.12-41.54,2.68-62.35-16.71a40,40,0,0,1-6-7c-4.75,7.28-12.14,13.06-22,17.1a94.64,94.64,0,0,1-25.66,6,6,6,0,0,1-2.06.53c-.43,0-3.48.22-8.07.17-1.36,0-2.61.05-3.72.05-3.64,0-6.89,0-9.21-.88-13.34-1.5-30.13-5.58-41.35-16.05a38.94,38.94,0,0,1-6-7c-4.75,7.28-12.14,13.06-22,17.1a94.92,94.92,0,0,1-25.25,6,5.89,5.89,0,0,1-2.17.57c-.44,0-3.57.24-8.28.17-1.39,0-2.67.05-3.81.05-3.7,0-7,0-9.29-.92-13.28-1.55-29.85-5.64-41-16a38.85,38.85,0,0,1-5.95-7c-4.76,7.28-12.15,13.06-22,17.1s-20.78,5.72-29.42,6.38a4.27,4.27,0,0,1-1,.17c-.17,0-.78.06-1.71.09-1.58.12-3.34.13-5.2.13h-2.15a48.12,48.12,0,0,1-7-.32c-8.78-.61-20.12-2.26-30.37-6.46-9.83-4-17.2-9.78-21.95-17-4.76,7.24-12.14,13-22,17-14.38,5.9-30.93,6.78-39.51,6.78-1.86,0-3.62,0-5.19-.13-.93,0-1.54-.07-1.72-.09a6.09,6.09,0,0,1-2.9-1,5,5,0,0,1-2.87-4.13,6.4,6.4,0,0,1-.12-.94A1.32,1.32,0,0,0,0,179.17Zm521.47,63c-.35,0-36.08,2.28-52.8-13.32-5.59-5.23-8.31-11.8-8.31-20.12a6.36,6.36,0,0,0-12.73,0c0,8.51-2.77,15.21-8.45,20.46-11.3,10.47-31.09,12.73-42.92,13.1-11.37-.2-33.49-2.12-45.63-13.45-5.6-5.22-8.31-11.8-8.31-20.12a6.37,6.37,0,0,0-12.73,0c0,8.51-2.76,15.2-8.45,20.47-11.27,10.44-31,12.72-42.82,13.08-11.44-.2-33.37-2.18-45.42-13.43-5.59-5.23-8.31-11.8-8.31-20.12a6.37,6.37,0,0,0-12.73,0c0,8.5-2.76,15.2-8.44,20.46-11.48,10.64-31.76,12.8-43.5,13.11-10.49,0-34.83-1.35-47.78-13.46-5.6-5.22-8.31-11.8-8.31-20.12a6.36,6.36,0,0,0-6.36-6.35h0a6.35,6.35,0,0,0-6.36,6.35c0,8.32-2.72,14.9-8.32,20.12C66.39,244.11,31.85,242.29,30,242.18h-.1a6.41,6.41,0,0,0-6.79,5.92c0,.14,0,.29,0,.43h0c0,.11,0,.21,0,.33a6.44,6.44,0,0,0,.12.92,5.05,5.05,0,0,0,2.87,4.14,6.29,6.29,0,0,0,2.9,1l1.72.09c1.57.12,3.33.12,5.19.12,8.58,0,25.13-.88,39.51-6.78,9.83-4,17.21-9.78,22-17,4.74,7.24,12.12,13,21.95,17,10.25,4.2,21.59,5.86,30.37,6.46a47.74,47.74,0,0,0,7,.32h2.15c1.86,0,3.61,0,5.2-.12l1.71-.09a9,9,0,0,0,1-.17c8.64-.66,19.54-2.35,29.42-6.4s17.26-9.82,22-17.1a38.91,38.91,0,0,0,5.95,7c11.13,10.37,27.69,14.46,41,16,2.32.91,5.59.92,9.29.92,1.13,0,2.42,0,3.81-.06,4.72.07,7.85-.12,8.28-.15a6.31,6.31,0,0,0,2.17-.57,93.89,93.89,0,0,0,25.25-6c9.87-4,17.26-9.82,22-17.1a39.5,39.5,0,0,0,6,7c11.23,10.47,28,14.53,41.36,16,2.32.87,5.56.88,9.2.88,1.12,0,2.36,0,3.72-.06,4.6.07,7.64-.12,8.07-.15a6.67,6.67,0,0,0,2.06-.52A95.16,95.16,0,0,0,432,248.3c9.87-4,17.26-9.82,22-17.1a39.57,39.57,0,0,0,5.95,7c20.81,19.39,60.68,16.83,62.35,16.71a6.36,6.36,0,0,0,5.91-6.79A6.43,6.43,0,0,0,521.47,242.18Z"/></svg>