<?xml version="1.0" encoding="iso-8859-1"?>
<!-- Generator: Adobe Illustrator 19.0.0, SVG Export Plug-In . SVG Version: 6.00 Build 0)  -->
<svg xmlns="http://www.w3.org/2000/svg" xmlns:xlink="http://www.w3.org/1999/xlink" version="1.1" id="Capa_1" x="0px" y="0px" viewBox="0 0 512 512" style="enable-background:new 0 0 512 512;" xml:space="preserve" width="512px" height="512px">
<g>
	<g>
		<path d="M230.229,109.225c-0.095-0.535-0.268-1.053-0.513-1.537c-0.188-0.543-0.448-1.058-0.771-1.533    c-0.312-0.448-0.653-0.876-1.021-1.279c-2.453-2.425-6.125-3.133-9.304-1.796c-1.033,0.434-1.984,1.041-2.813,1.796    c-0.341,0.425-0.683,0.85-1.025,1.279c-0.323,0.475-0.582,0.991-0.771,1.533c-0.246,0.484-0.417,1.002-0.508,1.538    c-0.096,0.565-0.153,1.136-0.171,1.709c0.032,2.259,0.916,4.423,2.475,6.059c0.83,0.752,1.781,1.358,2.813,1.792    c1.027,0.438,2.13,0.67,3.246,0.683c0.571-0.016,1.141-0.073,1.704-0.171c0.535-0.095,1.053-0.268,1.538-0.513    c0.544-0.188,1.062-0.447,1.538-0.771c0.425-0.338,0.85-0.679,1.279-1.021c1.557-1.637,2.441-3.8,2.475-6.058    C230.38,110.361,230.323,109.79,230.229,109.225z" fill="#FFFFFF"/>
	</g>
</g>
<g>
	<g>
		<path d="M255.317,107.688c-0.434-1.032-1.04-1.983-1.791-2.813c-0.429-0.341-0.854-0.683-1.279-1.025    c-0.476-0.324-0.993-0.583-1.538-0.771c-0.484-0.246-1.002-0.417-1.538-0.508c-1.123-0.258-2.29-0.258-3.412,0    c-0.535,0.091-1.053,0.263-1.538,0.508c-0.543,0.188-1.058,0.448-1.533,0.771c-0.429,0.341-0.854,0.683-1.279,1.025    c-0.773,0.814-1.383,1.769-1.796,2.813c-0.906,2.068-0.906,4.42,0,6.487c0.434,1.034,1.041,1.987,1.795,2.817    c0.425,0.341,0.85,0.683,1.279,1.021c0.475,0.323,0.991,0.582,1.533,0.771c0.485,0.245,1.003,0.418,1.538,0.513    c1.126,0.228,2.286,0.228,3.412,0c0.535-0.095,1.053-0.268,1.538-0.513c0.544-0.188,1.062-0.447,1.538-0.771    c0.425-0.338,0.85-0.679,1.279-1.021c1.557-1.637,2.441-3.8,2.475-6.059C256.03,109.813,255.795,108.701,255.317,107.688z" fill="#FFFFFF"/>
	</g>
</g>
<g>
	<g>
		<path d="M281.429,109.225c-0.095-0.535-0.268-1.053-0.513-1.538c-0.188-0.543-0.448-1.058-0.771-1.533    c-0.338-0.429-0.679-0.854-1.021-1.279c-0.83-0.754-1.782-1.362-2.817-1.796c-3.182-1.294-6.828-0.59-9.3,1.796    c-1.559,1.635-2.443,3.799-2.475,6.059c0.012,1.115,0.243,2.216,0.679,3.242c0.434,1.034,1.041,1.987,1.795,2.817    c0.425,0.341,0.85,0.683,1.279,1.021c0.475,0.323,0.991,0.582,1.533,0.771c0.485,0.245,1.003,0.418,1.538,0.513    c0.565,0.094,1.136,0.151,1.709,0.17c4.667,0.045,8.488-3.702,8.533-8.369c0.001-0.055,0.001-0.11,0-0.164    C281.58,110.361,281.523,109.79,281.429,109.225z" fill="#FFFFFF"/>
	</g>
</g>
<g>
	<g>
		<path d="M307.029,109.225c-0.095-0.535-0.268-1.053-0.513-1.538c-0.188-0.543-0.448-1.058-0.771-1.533    c-0.312-0.448-0.653-0.875-1.021-1.279c-0.816-0.772-1.772-1.382-2.817-1.796c-2.079-0.85-4.408-0.85-6.487,0    c-1.044,0.413-1.999,1.023-2.813,1.796c-0.341,0.425-0.683,0.85-1.025,1.279c-0.323,0.475-0.582,0.991-0.771,1.533    c-0.246,0.484-0.417,1.002-0.508,1.538c-0.096,0.565-0.153,1.136-0.17,1.709c0.032,2.259,0.916,4.423,2.475,6.059    c0.83,0.752,1.781,1.357,2.813,1.791c1.027,0.438,2.13,0.67,3.246,0.683c4.667,0.045,8.488-3.702,8.533-8.369    c0-0.055,0-0.11,0-0.164C307.18,110.361,307.123,109.79,307.029,109.225z" fill="#FFFFFF"/>
	</g>
</g>
<g>
	<g>
		<path d="M253.525,139.008c-0.406-0.367-0.833-0.709-1.279-1.025c-0.476-0.324-0.993-0.583-1.538-0.771    c-0.484-0.246-1.002-0.417-1.538-0.508c-1.123-0.258-2.29-0.258-3.412,0c-0.535,0.091-1.053,0.263-1.538,0.508    c-0.543,0.188-1.058,0.448-1.533,0.771c-0.448,0.314-0.876,0.656-1.279,1.025c-0.773,0.814-1.383,1.769-1.796,2.813    c-0.906,2.068-0.906,4.42,0,6.487c0.414,1.045,1.023,2.001,1.796,2.817c3.346,3.346,8.771,3.346,12.117,0    C256.871,147.779,256.871,142.354,253.525,139.008z" fill="#FFFFFF"/>
	</g>
</g>
<g>
	<g>
		<path d="M273.139,136.524c-0.598-0.003-1.195,0.058-1.781,0.18c-0.535,0.091-1.053,0.263-1.538,0.508    c-0.543,0.188-1.058,0.448-1.533,0.771c-0.429,0.341-0.854,0.683-1.279,1.025c-0.754,0.828-1.362,1.78-1.796,2.813    c-0.906,2.068-0.906,4.42,0,6.487c0.414,1.045,1.023,2.001,1.796,2.817c0.404,0.368,0.831,0.709,1.279,1.021    c0.475,0.323,0.991,0.582,1.533,0.771c0.485,0.245,1.003,0.418,1.538,0.513c0.565,0.094,1.136,0.151,1.709,0.171    c4.715,0.02,8.554-3.786,8.574-8.502C281.661,140.383,277.855,136.544,273.139,136.524z" fill="#FFFFFF"/>
	</g>
</g>
<g>
	<g>
		<path d="M273.066,170.626c-2.273,0-4.453,0.905-6.058,2.515c-0.773,0.814-1.383,1.769-1.796,2.813    c-0.436,1.027-0.667,2.13-0.679,3.246c0.032,2.259,0.916,4.423,2.475,6.059c0.425,0.341,0.85,0.683,1.279,1.021    c0.475,0.323,0.991,0.582,1.533,0.771c0.485,0.245,1.003,0.418,1.538,0.513c0.565,0.094,1.136,0.151,1.708,0.171    c4.724,0,8.553-3.83,8.553-8.554C281.619,174.455,277.79,170.626,273.066,170.626z" fill="#FFFFFF"/>
	</g>
</g>
<g>
	<g>
		<path d="M280.917,312.487c-0.434-1.032-1.04-1.983-1.792-2.813c-2.072-1.966-4.958-2.822-7.767-2.304    c-0.535,0.091-1.053,0.263-1.538,0.508c-0.543,0.188-1.058,0.448-1.533,0.771c-0.429,0.341-0.854,0.683-1.279,1.025    c-0.773,0.814-1.383,1.769-1.796,2.813c-0.436,1.027-0.667,2.13-0.679,3.246c0.032,2.259,0.916,4.423,2.475,6.059    c0.425,0.341,0.85,0.683,1.279,1.021c0.475,0.323,0.991,0.582,1.533,0.771c0.485,0.245,1.003,0.418,1.538,0.513    c0.565,0.094,1.136,0.151,1.709,0.171c4.667,0.045,8.488-3.702,8.533-8.369c0.001-0.055,0.001-0.11,0-0.164    C281.587,314.617,281.355,313.514,280.917,312.487z" fill="#FFFFFF"/>
	</g>
</g>
<g>
	<g>
		<path d="M306.517,141.821c-0.413-1.043-1.021-1.997-1.792-2.813c-2.457-2.417-6.124-3.125-9.304-1.796    c-1.033,0.434-1.984,1.041-2.813,1.795c-0.773,0.814-1.383,1.769-1.796,2.813c-0.437,1.027-0.667,2.13-0.679,3.246    c0.032,2.259,0.916,4.423,2.475,6.059c0.83,0.752,1.781,1.357,2.813,1.791c1.027,0.438,2.13,0.67,3.246,0.683    c4.667,0.045,8.488-3.702,8.533-8.369c0-0.055,0-0.109,0-0.164C307.23,143.946,306.995,142.834,306.517,141.821z" fill="#FFFFFF"/>
	</g>
</g>
<g>
	<g>
		<path d="M330.325,104.875c-3.23-3.346-8.56-3.44-11.906-0.21c-0.88,0.85-1.565,1.881-2.006,3.023c-0.906,2.068-0.906,4.42,0,6.487    c0.414,1.045,1.023,2.001,1.795,2.817c0.815,0.771,1.77,1.379,2.813,1.792c1.014,0.479,2.126,0.713,3.246,0.683    c4.732-0.019,8.553-3.87,8.534-8.602C332.792,108.621,331.903,106.47,330.325,104.875z" fill="#FFFFFF"/>
	</g>
</g>
<g>
	<g>
		<path d="M418.133,0H128c-14.132,0.015-25.585,11.468-25.6,25.6v128c-18.842,0.021-34.112,15.291-34.133,34.133v136.533    c0.022,18.842,15.291,34.112,34.133,34.133v128c0.015,14.132,11.468,25.585,25.6,25.6h290.133    c14.132-0.015,25.585-11.468,25.6-25.6V25.6C443.718,11.468,432.265,0.015,418.133,0z M102.4,341.333    c-9.422-0.009-17.057-7.645-17.067-17.067V187.733c0.009-9.422,7.645-17.057,17.067-17.067V341.333z M273.067,341.333    c-4.713,0-8.533,3.82-8.533,8.533v93.867h-77.231c-1.895-13.035-12.133-23.274-25.169-25.169V285.435    c16.257-2.277,27.59-17.301,25.313-33.558c-1.841-13.142-12.171-23.472-25.313-25.313V93.435    c13.035-1.895,23.274-12.133,25.169-25.169h171.529c1.895,13.035,12.133,23.274,25.169,25.169v133.129    c-16.257,2.277-27.59,17.301-25.313,33.558c1.841,13.142,12.171,23.472,25.313,25.313v133.129    c-13.035,1.895-23.274,12.133-25.169,25.169H281.6v-93.867C281.6,345.154,277.779,341.333,273.067,341.333z M157.867,243.2    c7.069,0,12.8,5.731,12.8,12.8c0,7.069-5.731,12.8-12.8,12.8c-7.069,0-12.8-5.731-12.8-12.8    C145.074,248.934,150.801,243.208,157.867,243.2z M145.334,61.395c1.439-6.921,8.215-11.366,15.136-9.927    c4.99,1.037,8.89,4.937,9.927,9.927l0,0c0.166,0.859,0.256,1.731,0.269,2.605c-0.008,7.066-5.734,12.792-12.8,12.8    c-0.875-0.013-1.746-0.103-2.605-0.269C148.34,75.093,143.896,68.316,145.334,61.395z M157.867,435.2    c7.069,0,12.8,5.731,12.8,12.8c0,7.069-5.731,12.8-12.8,12.8c-7.069,0-12.8-5.731-12.8-12.8    C145.074,440.934,150.801,435.208,157.867,435.2z M388.267,268.8c-7.069,0-12.8-5.731-12.8-12.8c0-7.069,5.731-12.8,12.8-12.8    c7.069,0,12.8,5.731,12.8,12.8C401.059,263.066,395.333,268.792,388.267,268.8z M401.067,448c0,7.069-5.731,12.8-12.8,12.8    c-7.066-0.008-12.792-5.734-12.8-12.8c0-7.069,5.731-12.8,12.8-12.8C395.336,435.2,401.067,440.931,401.067,448z M388.267,76.8    c-7.069,0-12.8-5.731-12.8-12.8c0-7.069,5.731-12.8,12.8-12.8c7.069,0,12.8,5.731,12.8,12.8    C401.059,71.066,395.333,76.792,388.267,76.8z M426.667,486.4c-0.006,4.71-3.823,8.527-8.533,8.533H281.6V460.8h79.796    c7.031,14.879,24.792,21.241,39.671,14.211c14.879-7.031,21.241-24.792,14.211-39.671c-2.948-6.24-7.971-11.262-14.211-14.211    V282.871c14.84-6.97,21.221-24.651,14.251-39.491c-2.943-6.267-7.984-11.307-14.251-14.251V90.871    c14.879-7.031,21.241-24.792,14.211-39.671c-7.031-14.879-24.792-21.241-39.671-14.211c-6.24,2.948-11.262,7.971-14.211,14.211    H184.744c-7.033-14.88-24.797-21.242-39.678-14.209c-14.88,7.033-21.242,24.797-14.209,39.678    c2.948,6.238,7.97,11.26,14.209,14.209v138.252c-14.84,6.97-21.221,24.651-14.251,39.491c2.943,6.267,7.984,11.307,14.251,14.251    v138.258c-14.879,7.031-21.241,24.792-14.211,39.671c7.031,14.879,24.792,21.241,39.671,14.211    c6.24-2.948,11.262-7.971,14.211-14.211h79.796v34.133H128c-4.71-0.006-8.527-3.823-8.533-8.533V25.6    c0.006-4.71,3.823-8.527,8.533-8.533h290.133c4.71,0.006,8.527,3.823,8.533,8.533V486.4z" fill="#FFFFFF"/>
	</g>
</g>
<g>
</g>
<g>
</g>
<g>
</g>
<g>
</g>
<g>
</g>
<g>
</g>
<g>
</g>
<g>
</g>
<g>
</g>
<g>
</g>
<g>
</g>
<g>
</g>
<g>
</g>
<g>
</g>
<g>
</g>
</svg>
